<?xml version="1.0" encoding="utf-8"?>
<!-- Generator: Adobe Illustrator 16.0.3, SVG Export Plug-In . SVG Version: 6.00 Build 0)  -->
<!DOCTYPE svg PUBLIC "-//W3C//DTD SVG 1.1//EN" "http://www.w3.org/Graphics/SVG/1.1/DTD/svg11.dtd">
<svg version="1.1" xmlns="http://www.w3.org/2000/svg" xmlns:xlink="http://www.w3.org/1999/xlink" x="0px" y="0px" width="500px"
	 height="500px" viewBox="0 0 500 500" enable-background="new 0 0 500 500" xml:space="preserve">
<g id="BACKGROUND">
	<rect fill="#FFCBCF" width="500" height="500"/>
</g>
<g id="OBJECTS">
	<g id="BACK_SHAPES">
		<path fill="#FFB1B9" d="M500,72.135C375.454,85.471,357.487,254.533,222.71,240.627C44.886,222.28,0,285.7,0,285.7V500h500V72.135
			z"/>
		<circle fill="#FFB1B9" cx="81.298" cy="181.148" r="31.776"/>
		<circle fill="#FFB1B9" cx="378.501" cy="74.856" r="23.955"/>
		<path fill="#F297A4" d="M62.503,360.157c-11.403,79.104,59.023,92.218,156.644,100.546s238.585-10.977,238.374-126.051
			c-0.211-115.073-118.84-76.079-176.822-41.203C222.717,328.326,74.205,278.984,62.503,360.157z"/>
	</g>
	<g id="WOMAN">
		<path fill="#4C2E6D" d="M193.604,234.956c0,0-4.756-23.771,14.677-26.432c29.763-4.076,40.311-10.041,58.177-14.618
			c17.867-4.577,22.323,3.289,20.672,18.014s-44.002,27.169-44.002,27.169L193.604,234.956z"/>
		<g>
			<path fill="#FFFFFF" d="M297.446,500c0,0,30.58-76.191,29.992-80.178c-0.588-3.987-46.81-215.374-46.81-215.374l0,0
				c-12.949,1.325-27.116,4.423-41.93,8.505c-15.574,4.292-29.178,8.687-41.087,14.245l0,0l-20.929,110.896L198.612,500l0,0H297.446
				L297.446,500z"/>
			<g>
				<path fill="#DDDEE8" d="M296.206,275.769c-8.582-39.327-15.578-71.32-15.578-71.32l0,0c-1.336,0.137-2.692,0.304-4.053,0.477
					c3.614,93.703,8.413,252.623,9.679,295.075h11.192l0,0c0,0,4.594-11.447,10.186-25.697L296.206,275.769z"/>
				<path fill="#DDDEE8" d="M201.78,225.335c-1.41,0.608-2.804,1.226-4.169,1.863l0,0l-20.929,110.896L198.612,500h17.309
					C215.262,472.052,211.349,321.111,201.78,225.335z"/>
			</g>
			<path fill="#E35D76" d="M206.153,223.518c1.097,16.112,7.054,53.057,38.636,52.449c29.287-0.564,30.592-45.859,29.103-70.686
				c-11.07,1.582-22.909,4.287-35.194,7.672C226.726,216.253,215.921,219.616,206.153,223.518z"/>
		</g>
		<g>
			<path fill="#3BACA0" d="M280.627,204.448c1.789,26.913,11.427,173.86,16.818,295.552h76.802c0,0-19.934-191.364-26.135-247.622
				C343.543,210.934,316.857,200.743,280.627,204.448z"/>
			<path fill="#269189" d="M357.127,336.684l-34.422-1.376l-13.723-15.893c0,0,6.359,44.184,52.137,55.157
				C359.093,355.26,359.151,355.842,357.127,336.684z"/>
			
				<path fill="none" stroke="#4C2E6D" stroke-width="1.5" stroke-linecap="round" stroke-linejoin="round" stroke-miterlimit="10" d="
				M348.112,252.378c-4.569-41.444-31.255-51.635-67.485-47.93"/>
			<path fill="#4C2E6D" d="M300.435,500c0-0.046,0.009-0.089,0.007-0.135c-5.841-129.923-16.376-288.912-16.822-295.616
				c-0.109-1.653-1.544-2.912-3.192-2.794c-1.653,0.11-2.904,1.539-2.794,3.192c0.445,6.7,10.969,165.518,16.808,295.353H300.435z"
				/>
		</g>
		<path fill="#4C2E6D" d="M227.328,329.479c-0.253,0-0.51-0.064-0.745-0.199c-0.719-0.412-0.967-1.329-0.555-2.047
			c0.119-0.207,11.695-20.715,0.486-27.968c-11.714-7.581-18.336-16.372-12.576-34.639c4.557-14.453-1.844-30.282-15.566-38.494
			c-0.71-0.425-0.942-1.347-0.517-2.058c0.426-0.71,1.346-0.942,2.058-0.517c14.919,8.928,21.863,26.187,16.886,41.97
			c-4.617,14.641-1.648,22.81,11.345,31.217c13.589,8.793,1.027,31.038,0.486,31.98
			C228.352,329.208,227.847,329.479,227.328,329.479z"/>
		<path fill="#4C2E6D" d="M268.108,344.835c-0.018,0-0.036,0-0.054-0.001c-0.828-0.029-1.475-0.724-1.446-1.552
			c0.606-17.153-1.414-23.708-3.196-29.491c-1.332-4.321-2.589-8.402-2.589-15.935c0-8.315,3.459-14.657,6.512-20.252
			c3.572-6.55,6.658-12.205,3.916-19.69c-5.874-16.032-2.602-40.823,3.954-55.528c0.337-0.757,1.224-1.096,1.981-0.759
			c0.757,0.337,1.097,1.224,0.759,1.981c-6.312,14.159-9.488,37.957-3.876,53.275c3.209,8.76-0.341,15.268-4.1,22.158
			c-3.021,5.538-6.145,11.265-6.145,18.815c0,7.08,1.138,10.774,2.456,15.051c1.852,6.011,3.951,12.822,3.327,30.48
			C269.578,344.198,268.912,344.835,268.108,344.835z"/>
		<g>
			<path fill="#3BACA0" d="M308.983,319.415c0,0,12.551,31.155,39.277,27.76c26.726-3.396,37.209-30.122,31.303-65.413
				l-52.126-18.014L308.983,319.415z"/>
			<path fill="#269189" d="M348.26,347.175c16.506-2.098,26.808-13.102,30.889-29.518c-5.875-4.501-15.385-6.708-30.211,1.299
				c-30.769,16.615-39.955,0.459-39.955,0.459S321.534,350.57,348.26,347.175z"/>
			
				<path fill="none" stroke="#4C2E6D" stroke-width="1.5" stroke-linecap="round" stroke-linejoin="round" stroke-miterlimit="10" d="
				M308.983,319.415c0,0,12.551,31.155,39.277,27.76c26.726-3.396,37.209-30.122,31.303-65.413"/>
		</g>
		<g>
			<path fill="#3BACA0" d="M313.708,276.412c0,0,1.597,54.815,31.363,60.426c29.767,5.611,46.25-18.604,36.089-55.371l-56.23-17.719
				L313.708,276.412z"/>
			<path fill="#269189" d="M382.343,286.297c-4.985,5.987-15.661,14.328-24.959,20.731c-14.548,10.02-29.938,5.523-38.024,1.164
				c4.371,13.207,12.091,26.078,25.712,28.646C373.512,342.199,389.808,320.323,382.343,286.297z"/>
			
				<path fill="none" stroke="#4C2E6D" stroke-width="1.5" stroke-linecap="round" stroke-linejoin="round" stroke-miterlimit="10" d="
				M313.708,276.412c0,0,1.597,54.815,31.363,60.426c29.767,5.611,46.25-18.604,36.089-55.371"/>
		</g>
		<path fill="#4C2E6D" d="M383.266,291.095c-0.492-3.1-1.189-6.312-2.105-9.628l-56.23-17.719l-2.225,2.511l1.154,2.73
			c0,0-6.977,32.448,22.259,37.875C368.68,311.052,379.5,297.501,383.266,291.095z"/>
		<g>
			<path fill="#E35D76" d="M390.737,239.921c0,0,9.345,53.036-36.618,54.234c-23.726,0.618-35.721-23.522-41.774-47.025
				c0,0-17.364-25.081-12.064-30.566c7.521-7.786,23.093,17.022,23.093,17.022s2.243-14.449,2.639-32.362
				c0.396-17.914-0.063-27.901,5.674-28.734c8.181-1.188,12.081,37.392,11.817,51.921c0,0,3.481-49.782,10.484-50.338
				c8.313-0.66,10.485,31.174,7.186,53.409c0,0,3.634-6.3,6.273-22.663c2.639-16.363,4.091-25.114,8.709-24.829
				c4.619,0.285,7.74,31.407,2.33,53.451c0,0,9.81-30.206,16.276-28.622C401.228,206.404,393.772,228.968,390.737,239.921z"/>
			<g>
				
					<path fill="none" stroke="#4C2E6D" stroke-width="1.5" stroke-linecap="round" stroke-linejoin="round" stroke-miterlimit="10" d="
					M312.345,247.13c0,0-17.364-25.081-12.064-30.566c7.521-7.786,23.093,17.022,23.093,17.022s2.243-14.449,2.639-32.362
					c0.396-17.914-0.063-27.901,5.674-28.734c8.181-1.188,12.081,37.392,11.817,51.921c0,0,3.481-49.782,10.484-50.338
					c8.313-0.66,10.485,31.174,7.186,53.409c0,0,3.634-6.3,6.273-22.663c2.639-16.363,4.091-25.114,8.709-24.829
					c4.619,0.285,7.74,31.407,2.33,53.451c0,0,9.81-30.206,16.276-28.622c6.466,1.583-0.99,24.148-4.025,35.101"/>
				
					<path fill="none" stroke="#4C2E6D" stroke-width="1.5" stroke-linecap="round" stroke-linejoin="round" stroke-miterlimit="10" d="
					M335.25,223.94c0,0,26.919-0.25,50.539,13.209"/>
			</g>
			
				<text transform="matrix(1.1477 0.1507 -0.1302 0.9915 334.1943 270.3535)" fill="#5826A8" font-family="'Cocogoose'" font-size="44.7853">D</text>
		</g>
		<g>
			<g>
				<circle fill="#6730B8" cx="308.27" cy="70.963" r="27.464"/>
				<path fill="#5826A8" d="M312.39,98.119c-3.398-19.596-20.612-31.777-29.774-36.963c-1.166,3.046-1.81,6.351-1.81,9.807
					c0,15.168,12.296,27.464,27.464,27.464C309.67,98.427,311.046,98.321,312.39,98.119z"/>
			</g>
			<g>
				<polygon fill="#E35D76" points="224.37,190.444 222.93,235.78 255.931,233.745 254.602,188.119 				"/>
				<path fill="#E64D69" d="M223.842,207.062c6.466,1.195,18.198,2.014,31.209-3.551l-0.449-15.392l-30.233,2.326L223.842,207.062z"
					/>
			</g>
			<path fill="#E64D69" d="M176.861,116.357c-0.443,0-7.42-6.202-14.951,1.993c-7.531,8.195,0,34.22,14.951,30.676V116.357z"/>
			<path fill="#6730B8" d="M175.075,107.553c0.548-3.459,1.196-6.647,1.896-9.469c7.53-30.344,34.943-47.462,71.54-42.304
				c33.002,4.651,70.876,27.243,56.701,80.178l-48.056,37.722L175.075,107.553z"/>
			<path fill="#E35D76" d="M289.144,131.307c0,0,9.423,65.338-55.915,67.553c-59.262,2.009-63.498-57.568-58.154-91.307
				c0,0,29.582,5.813,44.422-22.094c0,0,14.698,38.982,55.741,45.848c0,0-1.367,17,3.396,18.458
				C285.869,151.979,289.144,131.307,289.144,131.307z"/>
			<g>
				<path fill="#E64D69" d="M278.293,149.621c0.659,0.732,1.483,1.235,2.513,1.399c3.948,0.628,5.812-6.553,6.671-12.399
					c-1.647,5.705-4.547,12.459-8.844,11.145C278.516,149.729,278.404,149.675,278.293,149.621z"/>
				<path fill="#E64D69" d="M275.074,134.896c0.046-2.113,0.164-3.589,0.164-3.589c-41.044-6.866-55.741-45.848-55.741-45.848
					c-11,20.686-30.088,22.842-39.236,22.574c7.22,1.987,26.233,4.866,40.071-14.319C220.332,93.715,236.4,128.826,275.074,134.896z
					"/>
			</g>
			<g>
				<circle fill="#E64D69" cx="255.931" cy="173.68" r="12.403"/>
				<path fill="#E64D69" d="M182.814,157.855c-1.979,0-3.848,0.465-5.507,1.29c2.387,8.134,6.009,15.753,11.26,22.102
					c3.953-2.074,6.651-6.215,6.651-10.988C195.218,163.408,189.665,157.855,182.814,157.855z"/>
			</g>
			<g>
				<path fill="#E35D76" d="M289.144,131.307c0,0,18.135-4.577,22.712,6.94c4.578,11.518-4.578,32.042-27.169,21.854
					L289.144,131.307z"/>
				<g>
					
						<path fill="none" stroke="#4C2E6D" stroke-width="1.5" stroke-linecap="round" stroke-linejoin="round" stroke-miterlimit="10" d="
						M290.594,140.019c0,0,6.838-2.348,14.618,0.812"/>
					
						<path fill="none" stroke="#4C2E6D" stroke-width="1.5" stroke-linecap="round" stroke-linejoin="round" stroke-miterlimit="10" d="
						M294.802,151.02c0,0,3.913-3.898,3.101-11.805"/>
				</g>
			</g>
			
				<path fill="none" stroke="#4C2E6D" stroke-width="1.5" stroke-linecap="round" stroke-linejoin="round" stroke-miterlimit="10" d="
				M206.429,120.774c0,0-1.182,7.881-2.732,10.594s-3.083,3.913-2.251,5.408c0.83,1.495,5.426,1.551,5.426,1.551"/>
			
				<path fill="none" stroke="#4C2E6D" stroke-width="1.5" stroke-linecap="round" stroke-linejoin="round" stroke-miterlimit="10" d="
				M229.463,128.539c0,0,8.611,9.08,21.374,4.43"/>
			
				<path fill="none" stroke="#4C2E6D" stroke-width="1.5" stroke-linecap="round" stroke-linejoin="round" stroke-miterlimit="10" d="
				M175.975,122.337c0,0,7.531,6.977,16.39,3.101"/>
			
				<path fill="none" stroke="#4C2E6D" stroke-width="1.5" stroke-linecap="round" stroke-linejoin="round" stroke-miterlimit="10" d="
				M204.042,155.006c0,0,9.475-5.759,26.308-3.101"/>
		</g>
		<g>
			<path fill="#3BACA0" d="M197.611,227.198c-31.108,14.518-50.641,36.978-63.454,86.311C116.438,381.727,120.867,500,120.867,500
				h77.745C207.447,381.12,200.387,264.682,197.611,227.198z"/>
			<path fill="#269189" d="M159.406,300.696C141.827,370.056,142.279,476.409,142.617,500h13.799
				C165.386,428.682,159.406,300.696,159.406,300.696z"/>
			
				<path fill="none" stroke="#4C2E6D" stroke-width="1.5" stroke-linecap="round" stroke-linejoin="round" stroke-miterlimit="10" d="
				M197.611,227.198c-31.108,14.518-50.641,36.978-63.454,86.311"/>
			<path fill="#4C2E6D" d="M195.62,499.79c-0.005,0.071,0.006,0.14,0.006,0.21h5.993c9.076-129.445,0.044-258.704-1.016-273.023
				c-0.123-1.652-1.563-2.903-3.213-2.77c-1.652,0.122-2.893,1.561-2.77,3.213C195.677,241.703,204.69,370.694,195.62,499.79z"/>
			
				<path fill="none" stroke="#4C2E6D" stroke-width="1.5" stroke-linecap="round" stroke-linejoin="round" stroke-miterlimit="10" d="
				M156.416,500"/>
			
				<path fill="none" stroke="#4C2E6D" stroke-width="1.5" stroke-linecap="round" stroke-linejoin="round" stroke-miterlimit="10" d="
				M159.406,300.696c0,0,5.921,126.712-2.857,198.233"/>
		</g>
		<path fill="#6730B8" d="M175.976,112.134c0.135,4.187,15.854,6.771,17.858,3.081C195.837,111.524,175.801,106.733,175.976,112.134
			z"/>
		<path fill="#6730B8" d="M228.436,118.04c0.739,4.123,16.667,4.405,18.115,0.463C248,114.562,227.482,112.721,228.436,118.04z"/>
	</g>
	<g id="DOTS">
		<g>
			
				<path fill="none" stroke="#FFB1B9" stroke-width="1.5" stroke-linecap="round" stroke-linejoin="round" stroke-miterlimit="10" d="
				M98.956,66.028c0,0,11.985,8.067,24.454,32.783"/>
			
				<path fill="none" stroke="#FFB1B9" stroke-width="1.5" stroke-linecap="round" stroke-linejoin="round" stroke-miterlimit="10" d="
				M134.297,73.352c0,0-18.198,1.71-34.022,20.141"/>
		</g>
		<g>
			
				<path fill="none" stroke="#F297A4" stroke-width="1.5" stroke-linecap="round" stroke-linejoin="round" stroke-miterlimit="10" d="
				M460.967,202.997c0,0-11.985,8.067-24.454,32.783"/>
			
				<path fill="none" stroke="#F297A4" stroke-width="1.5" stroke-linecap="round" stroke-linejoin="round" stroke-miterlimit="10" d="
				M425.626,210.32c0,0,18.197,1.71,34.021,20.141"/>
		</g>
		
			<circle fill="none" stroke="#F297A4" stroke-width="1.5" stroke-linecap="round" stroke-linejoin="round" stroke-miterlimit="10" cx="49.521" cy="314.598" r="4.472"/>
		
			<circle fill="none" stroke="#F297A4" stroke-width="1.5" stroke-linecap="round" stroke-linejoin="round" stroke-miterlimit="10" cx="455.523" cy="470.739" r="4.472"/>
		
			<circle fill="none" stroke="#F297A4" stroke-width="1.5" stroke-linecap="round" stroke-linejoin="round" stroke-miterlimit="10" cx="420.183" cy="156.342" r="4.472"/>
		
			<circle fill="none" stroke="#F297A4" stroke-width="1.5" stroke-linecap="round" stroke-linejoin="round" stroke-miterlimit="10" cx="156.549" cy="204.448" r="4.472"/>
		
			<circle fill="none" stroke="#F297A4" stroke-width="1.5" stroke-linecap="round" stroke-linejoin="round" stroke-miterlimit="10" cx="53.994" cy="476.687" r="4.472"/>
		
			<circle fill="none" stroke="#F297A4" stroke-width="1.5" stroke-linecap="round" stroke-linejoin="round" stroke-miterlimit="10" cx="436.513" cy="66.028" r="4.472"/>
		
			<circle fill="none" stroke="#F297A4" stroke-width="1.5" stroke-linecap="round" stroke-linejoin="round" stroke-miterlimit="10" cx="40.577" cy="126.481" r="4.472"/>
		
			<line fill="none" stroke="#F297A4" stroke-width="3" stroke-linecap="round" stroke-linejoin="round" stroke-miterlimit="10" x1="89.593" y1="286.067" x2="89.593" y2="286.067"/>
		
			<line fill="none" stroke="#F297A4" stroke-width="3" stroke-linecap="round" stroke-linejoin="round" stroke-miterlimit="10" x1="397.323" y1="466.267" x2="397.323" y2="466.267"/>
		
			<line fill="none" stroke="#F297A4" stroke-width="3" stroke-linecap="round" stroke-linejoin="round" stroke-miterlimit="10" x1="468.978" y1="388.846" x2="468.978" y2="388.846"/>
		
			<line fill="none" stroke="#F297A4" stroke-width="3" stroke-linecap="round" stroke-linejoin="round" stroke-miterlimit="10" x1="142.518" y1="29.637" x2="142.518" y2="29.637"/>
		
			<line fill="none" stroke="#F297A4" stroke-width="3" stroke-linecap="round" stroke-linejoin="round" stroke-miterlimit="10" x1="36.105" y1="225.335" x2="36.105" y2="225.335"/>
		
			<line fill="none" stroke="#F297A4" stroke-width="3" stroke-linecap="round" stroke-linejoin="round" stroke-miterlimit="10" x1="343.001" y1="135.896" x2="343.001" y2="135.896"/>
		
			<line fill="none" stroke="#F297A4" stroke-width="3" stroke-linecap="round" stroke-linejoin="round" stroke-miterlimit="10" x1="468.978" y1="168.745" x2="468.978" y2="168.745"/>
		
			<line fill="none" stroke="#F297A4" stroke-width="3" stroke-linecap="round" stroke-linejoin="round" stroke-miterlimit="10" x1="274.29" y1="38.564" x2="274.29" y2="38.564"/>
		
			<line fill="none" stroke="#F297A4" stroke-width="3" stroke-linecap="round" stroke-linejoin="round" stroke-miterlimit="10" x1="420.183" y1="29.637" x2="420.183" y2="29.637"/>
		
			<line fill="none" stroke="#F297A4" stroke-width="3" stroke-linecap="round" stroke-linejoin="round" stroke-miterlimit="10" x1="53.994" y1="66.028" x2="53.994" y2="66.028"/>
		
			<line fill="none" stroke="#F297A4" stroke-width="3" stroke-linecap="round" stroke-linejoin="round" stroke-miterlimit="10" x1="23.528" y1="428.406" x2="23.528" y2="428.406"/>
	</g>
</g>
</svg>
