<?xml version="1.0" encoding="utf-8"?>
<!-- Generator: Adobe Illustrator 16.0.3, SVG Export Plug-In . SVG Version: 6.00 Build 0)  -->
<!DOCTYPE svg PUBLIC "-//W3C//DTD SVG 1.1//EN" "http://www.w3.org/Graphics/SVG/1.1/DTD/svg11.dtd">
<svg version="1.1"
	 id="Map" sodipodi:docname="mexicodf.svg" inkscape:version="0.48.4 r9939" xmlns:dc="http://purl.org/dc/elements/1.1/" xmlns:cc="http://creativecommons.org/ns#" xmlns:rdf="http://www.w3.org/1999/02/22-rdf-syntax-ns#" xmlns:svg="http://www.w3.org/2000/svg" xmlns:sodipodi="http://sodipodi.sourceforge.net/DTD/sodipodi-0.dtd" xmlns:inkscape="http://www.inkscape.org/namespaces/inkscape"
	 xmlns="http://www.w3.org/2000/svg" xmlns:xlink="http://www.w3.org/1999/xlink" x="0px" y="0px" width="440.25px"
	 height="553.219px" viewBox="0 0 440.25 553.219" enable-background="new 0 0 440.25 553.219" xml:space="preserve">
<sodipodi:namedview  id="namedview5489" inkscape:window-maximized="1" fit-margin-left="20" fit-margin-top="20" borderopacity="1" pagecolor="#ffffff" bordercolor="#666666" showgrid="false" guidetolerance="10" inkscape:cy="386.37048" gridtolerance="10" inkscape:cx="34.837478" objecttolerance="10" inkscape:zoom="0.60539796" fit-margin-bottom="20" fit-margin-right="20" inkscape:current-layer="Map" inkscape:window-y="-8" inkscape:window-x="-8" inkscape:window-height="715" inkscape:window-width="1366" inkscape:pageshadow="2" inkscape:pageopacity="0">
	</sodipodi:namedview>
<path id="alvaroobregon" inkscape:connector-curvature="0" fill="#CCCCCC" stroke="#FFFFFF" stroke-width="0.2141" d="
	M157.106,285.469L157.106,285.469l0.862,1.145l0.44,0.554l0.422,0.418l0.456,0.414l0.576,0.425l0.794,0.385l1.317,0.474l0.791,0.188
	l0.888,0.15l2.044,0.463l0.779,0.113l1.969,0.377l1.393,0.225l0.527-0.662l0.979-0.938l3.2-3.082l-0.802-0.377l2.748-4.11
	l3.286-5.374l0.376-0.572l0.031-0.188v-0.151l0.021-0.301l-0.018-0.264l0.025-0.58v-1.626l0.024-0.425v-0.15l0.113-4.301
	l-1.193-1.826l-0.188-0.376l-0.15-0.301v-0.339l0.038-0.226l-0.038-0.151l-0.113-0.018l-3.173,0.471l0.113-0.339l0.188-0.392
	l0.264-0.376l0.264-0.376l0.263-0.301l0.301-0.264l0.339-0.113l4.026-0.96l0.956-0.188l1.193-0.151l0.301-0.188l0.742-0.903
	l-0.023-0.301l0.019-0.301l0.226-0.188l0.226-0.264l0.15-0.264l0.226-0.263l0.922-0.58l0.264-0.226l0.226-0.301l0.388-0.301
	l0.673-0.188l0.038-0.301l0.076-0.226l0.655-0.576l1.359-1.095h0.403l0.583-0.99l0.264-0.809l0.395-0.874l0.264-0.038l0.226-0.15
	l0.226-0.226l0.301-0.392l1.17,0.376l0.421-1.86l0.076-0.226l0.113-0.188l0.113-0.188l0.113-0.188l0.113-0.188l0.625-0.599
	l0.512-0.452l0.5-0.467l0.188-0.226l0.188-0.38l0.113-0.113l0.113-0.113l0.113-0.113l0.113-0.113l0.99-0.775l2.413-2.639
	l0.226-0.264l0.226-0.301l0.226-0.376l0.301-0.64l0.599-1.536l-1.547-1.141l-0.339-0.301l-0.542-0.565l-0.523-0.583l-1.852-1.841
	l-0.704-0.625l-1.619,1.393l-0.226,0.301l-1.378,0.384l-1.355,0.263l-1.303,0.802h-0.753l-0.752,0.018l-1.265-0.376l-1.073-0.723
	l-1.22-0.188l-1.25-0.301l-0.557-0.188l0.113-1.514l0.188-1.524l-0.075-0.339l-0.339-0.681l-0.516-1.321l-0.076-0.817l0.151-1.622
	l-0.388-1.442l0.226-2.085l0.301-2.082l-0.15-2.289l0.038-2.424l0.602-1.528l0.531-1.174l0.693-2.56l1.261-4.905l-0.15-0.67
	l-0.504-1.25l-0.828-2.059l-0.851-1.524l-1.163-1.416l-0.226-0.338v-0.376l0.038-0.264l0.516-1.675l-2.308,0.226l-2.45,0.376
	l-1.352,0.15l-3.181,1.34l-0.9,0.15l-0.576,0.075l-4.116,0.384l-1.559,0.263l-2.624,0.603l-0.915,0.339l-0.907,0.338l-0.99,0.467
	l-0.64,0.264l-0.945,0.339l-0.832,0.263l-0.572,0.188l-4.248,1.374l-1.189,0.376l-1.062,0.188l-0.806-0.025l-0.745-0.151
	l-0.603-0.027l-1.494,0.263l-1.092,0.264l-0.806,0.301l-0.561,0.075l-0.376-0.031l-0.376-0.023l-0.376-0.018l-0.617,0.226
	l-1.005,0.41l-0.835,0.396l-0.817,0.188L139.837,208l-0.516,0.151l-0.603,0.384l-0.418,0.339v0.486l0.113,0.696l-0.027,0.723
	L138,211.802l-0.188,0.338l-0.429,0.339l-0.783,0.452l-0.971,0.994l-0.602,0.226l-0.572,0.038L133.772,214l-0.682-0.151
	l-0.561-0.075l-0.376,0.038L131.74,214l-1.032,0.802l-1.423,1.125l-2.251,1.701l-4.374,2.763l-1.073,0.727l-2.548,2.251
	l-1.005,0.922l-0.741,0.452l-0.851,0.339l-0.542,0.188l-0.527,0.15l-2.699,0.489l-0.456,0.301l-0.734,0.746l-0.606-0.151
	l-0.798-0.15l-0.516,0.15l-0.264,0.339l-0.075,0.508l0.301,1.027l1.306-0.339l0.075,0.38l0.033,0.463l-0.113,0.904l-0.655,0.979
	l0.339,0.15l0.392,0.075l0.301-0.018l0.41-0.226l0.384-0.471l0.076-0.15l0.075-0.151l0.075-0.15h0.113l0.264-0.188l0.779-1.66
	l0.534-0.226l-0.512,1.272l-1.434,3.008l0.188,0.93l0.151,0.58l0.075,0.809l0.018,0.625l-0.151,0.52l-0.075,0.264l0.188,0.188
	l0.188,0.038l0.448,0.188l0.459,0.113l0.264,0.188l0.489,0.338l1.261,0.264l0.761,0.075l0.557,0.264l0.922,0.907l0.715,3.297
	l0.188,0.828l-4.027,0.708l-1.863,0.772l-0.949,0.376v0.15l0.15,0.075l0.535-0.15l0.456-0.113l0.564-0.038l0.433,0.018l0.188-0.02
	l0.113-0.038l0.264,0.15l1.167-0.15l-0.535,0.485l-0.263,0.384l-0.076,0.301l-0.018,0.264l0.113,0.188l0.681,0.076l0.749-0.038
	l0.659-0.188h0.396l0.602,0.264l0.376,0.301l0.15,0.609l0.018,0.113l0.018,0.113v0.113v0.113l0.151,0.301l-0.339,0.527l-0.553,0.188
	l-0.339,0.388l-0.376,0.264l-0.03,0.15l0.038,0.151l0.15,0.075l1.6-0.489l0.949-0.226l0.448-0.038l0.151,0.018l0.075,0.038
	l0.03,0.15l-0.03,0.188l-0.075,0.15l-0.647,0.264l-0.264,0.15l-0.384,0.61l-0.384,0.15l-0.402,0.018l-0.497,0.264l-0.226,0.264
	l0.018,0.113l0.418-0.264l0.396-0.075l0.602-0.075l0.264-0.113l0.263-0.113l0.264-0.113l0.075,0.038v0.113l-0.188,0.226
	l-0.636,0.188l-0.339,0.031l-0.113,0.113l0.018,0.113l-0.711,0.301l-0.264,0.15l-0.226,0.075l-0.433,0.031l-0.339,0.113
	l-0.263,0.188h-0.113l-0.338-0.113l-0.188,0.076l-0.15,0.301l-0.031,0.188l-0.075,0.113l-0.531,0.188l-0.376,0.539l-0.263,0.188
	l-0.038,0.075l-0.038,0.076l-0.038,0.075l-0.036,0.075l-0.035,0.075l-0.03,0.076l-0.15,0.018l-0.151,0.02l-0.15,0.025l-0.151,0.188
	l-0.075,0.188l-0.113,0.075l-0.339,0.038l-0.497,0.038l-0.301,0.301l-0.188,0.301l-0.226,0.425l-0.644,0.61l-1.103,0.075
	l-0.994,0.715l-1.073,0.647l-3.169,1.302l-0.417,0.113h-0.388l-2.48,1.272l-0.666,0.226l-0.761-0.075l-0.508,0.339h-0.226
	l-0.535-0.339l-0.018,0.339l0.038,0.226l0.376,0.301l0.411,0.226l0.15,0.226l0.075,0.339v0.339l-0.113,0.301l-0.15,0.076
	l-0.655-0.076l-1.005-0.338l-1.457-0.87l-0.617-0.151l-0.617,0.188l-0.226,0.403l-1.995,4.244l-0.15,0.376l-0.018,0.188l0.018,0.264
	l0.113,0.188l0.636,0.791l-0.339-0.075l-0.835-0.425l-0.226-0.188l-0.15-0.486l0.029-0.557l0.429-1.024l0.151-0.425l-0.076-0.263
	l-0.226-0.113l-0.264,0.038l-1.46,1.585l-0.399,0.963l-0.603,0.847l-0.463,0.768l-0.023,0.263l0.264,1.035l0.188,0.418l0.113,0.523
	l-0.075,0.226l-0.486,0.787l-0.264,0.546l-0.038,0.546l0.113,0.791l0.113,0.478l0.188,0.339l0.433,0.188l0.339,0.264l0.075,0.226
	l-0.018,0.339l-0.188,0.188l-0.188,0.113l-0.696,0.188l-0.595,0.113l-0.723,0.301l-0.226,0.301l-0.339,0.647l-0.113,0.693
	l-0.301,0.67l-0.15,0.459l-0.188,0.455l-0.188,0.227l-0.15,0.075l-0.151-0.022l-0.075-0.112l-0.075-0.112l-0.075-0.113l-0.075-0.113
	l-0.226-0.15l-0.264,0.023l-0.301,0.264l-0.188,0.074l-0.188-0.035l-0.076-0.15l0.076-0.456v-0.188l-0.076-0.301l-0.188-0.226
	l-0.376-0.264l-0.478-0.15h-0.301l-0.301-0.188l-0.264-0.426l-0.339-0.963l-0.113-0.226l-0.587-0.561l-0.188-0.301l-0.113-0.15
	l-0.038-0.113l-0.075-0.075v-0.018l-0.018-0.018v-0.019l-0.018-0.018l-0.018-0.018l-0.018-0.018h-0.018l-0.018-0.018h-0.018H80.82
	h-0.018h-0.018l0,0h-0.018h-0.018h-0.018h-0.018h-0.018h-0.018h-0.018H80.64h-0.018h-0.018h-0.018h-0.018H80.55l-0.076-0.038
	l-0.075,0.15l-0.038,0.226l0.027,0.376l0.032,0.113v0.038v0.038v0.038v0.038v0.038v0.038l-0.018,0.038l-0.018,0.038l-0.018,0.038
	l0.075,0.459l0.018,0.15l-0.018,0.02l-0.018,0.022l-0.018,0.02l-0.018,0.02l-0.018,0.02l-0.018,0.02l-0.018,0.018l-0.018,0.018
	l-0.018,0.019l-0.113,0.188l-0.02,0.019l-0.02,0.019l-0.018,0.018l-0.018,0.018l-0.018,0.018l-0.018,0.019l-0.018,0.019
	l-0.018,0.018l-0.018,0.019l-0.018,0.019l-0.018,0.02l-0.018,0.018l-0.018,0.02l-0.018,0.019l-0.018,0.023l-0.018,0.024v0.023v0.025
	v0.023v0.025v0.025v0.025v0.025v0.026v0.025v0.025l-0.023,0.226v0.426l-0.036,0.074l-0.113,0.076h-0.029h-0.029h-0.029h-0.029
	l-0.029,0.018h-0.029l-0.028,0.019l-0.027,0.019l-0.027,0.018l-0.027,0.018l-0.026,0.018l-0.076,0.076v0.018v0.018v0.019v0.019
	v0.018v0.018v0.019v0.019v0.018v0.018v0.018v0.019l0.038,0.075l0.038,0.038l0.038,0.075l0.038,0.075l0.038,0.075l0.018,0.018
	l0.018,0.019l0.02,0.019l0.02,0.018l0.02,0.019l0.02,0.019l0.021,0.018l0.021,0.018l0.022,0.018l0.023,0.019l0.023,0.075
	l0.027,0.076l0.029,0.074l0.031,0.076l0.034,0.074l0.339,1.299l0.075,0.188l0.031,0.151l0.034,0.15l0.038,0.15l0.038,0.15
	l0.036,0.188l0.188,0.49l0.113,0.545v0.49l-0.113,0.406l-0.301,0.633l-0.486,0.188l-0.188,0.113v0.512l-0.038,0.385v0.737
	l0.038,0.613l-0.113,0.188l-0.188,0.075l-0.15-0.036l-0.301-0.301l-0.339-0.456l-0.339-0.388l-0.15-0.113l-0.15-0.112l-0.151-0.113
	l-0.226,0.113l-0.188,0.263l-0.429,0.844l-0.034,0.113l-0.113,0.264l-0.15,0.037l-0.151,0.037l-0.188,0.037l-0.188,0.112
	l-0.15,0.302l-0.15,0.301l-0.151,0.301l-0.113,0.264l-0.113,0.264l-0.113,0.264l-0.226,0.188l-0.339-0.037l-0.025-0.037
	l-0.226-0.189l-0.188-0.338h-0.188l-0.151,0.15l-0.075,0.377l-0.025,0.301l-0.301,0.847l-0.15,0.384l-0.429,0.377l-0.376,0.075
	h-0.264l-0.263-0.188l-0.113-0.437l-0.075-0.617l-0.075-0.376l-0.264-0.385l-0.188-0.188l-0.188,0.037l-0.075,0.075l-0.075,0.075
	l-0.075,0.076l-0.075,0.074l-0.076,0.076l-0.038,0.074l-0.075,0.038h-0.188l-0.264-0.038l-0.301,0.076l-0.15,0.226l-0.15,0.339
	l-0.188,0.301l-0.075,0.227v0.264l0.038,0.338l0.113,0.377l0.075,0.301l-0.075,0.075h-0.858l-0.264,0.188l-0.339,0.384l-0.264,0.41
	l-0.023,0.538l0.026,0.844l-0.075,0.15l-0.113,0.037h-0.301l-0.263-0.112l-0.606,0.301l-0.542,0.437l-0.113,0.264l-0.188,0.848
	l-0.151,1.012l-0.339,1.54l-0.038,0.339l-0.075,0.338l-0.075,0.34l-0.075,0.504l-0.033,0.535l0.264,0.955l0.226,0.957l0.226,0.948
	l0.075,0.716l0.036,0.733l0.018,0.733l-0.113,0.779l-0.263,1.258v0.945l0.075,0.715l0.226,0.828l0.188,1.551l-0.038,0.96
	l-0.188,0.982l-0.226,0.753l-0.188,0.76l-0.15,0.746l-0.113,0.745l-0.075,0.726l-0.113,0.682l-0.188,0.523l-0.339,0.512l-0.339,0.6
	l-5.323,8.449l0.15,13.893l-0.67,11.705l-0.113,3.804l0.036,1.92l0.745,0.032l0.742,0.038l0.075-1.487v-1.303l-0.264-0.782v-0.188
	l0.113-0.756l0.15-1.183l-0.033-0.339l-0.038-0.113l-0.075-0.425l-0.018-0.264l0.075-0.38l0.226-0.264l0.188-0.15l1.769-1.705
	l0.561-0.606l0.301-0.263l0.5-0.189l0.64-0.15l0.339-0.338l0.376-0.58l0.075-0.588l-0.038-0.387l-0.075-0.302l-0.075-0.621
	l-0.075-0.621l0.038-0.301l0.263-0.388l0.151-0.339l0.075-0.523l0.226-0.463l0.15-0.392l0.113-0.339v-0.519l-0.075-0.264
	l0.226-0.302l0.038-0.188l0.15,0.076l0.15,0.112l0.188-0.019v-0.15l-0.226-0.688l0.075-0.188l0.151-0.15v-0.301l0.339-0.75
	l0.113-0.263l0.113-0.403l0.264-0.526l0.188-0.339l-0.038-0.264l-0.15-0.188l-0.376-0.381l-0.15-0.264l0.15-0.264l0.508-0.226
	l0.113-0.15l0.339-0.15l0.339,0.037l0.263,0.151l0.554,0.074l0.568-0.15l0.113,0.019h0.113h0.113h0.113l0.809-0.075l0.486-0.15
	l0.339-0.264l0.58-0.264l0.553-0.113l0.444-0.188l0.685-0.113l0.226,0.018l0.975,0.302l0.512,0.112l0.982-0.226l0.689-0.188
	l0.463-0.188l0.44-0.339l0.444-0.151l0.226-0.018l0.741-0.474l0.339-0.53l0.188-0.434l0.437-0.538l0.421-0.15l0.568,0.15
	l0.301,0.075l0.625-0.15l0.538-0.113l0.376-0.301l0.226-0.339l0.226-0.302l0.399-0.263l0.151-0.339l0.226-0.301l0.448-0.188
	l0.467-0.264l0.481-0.264l0.52-0.388l0.339-0.377l0.113-0.432l0.018-0.456l0.188-0.542l0.388-0.591l0.504-0.493l0.264-0.388
	l0.188-0.478l0.188-0.113l0.44-0.227l0.396-0.15l0.425-0.226l0.493-0.388l0.478-0.398l0.41-0.264l0.339,0.023l0.489,0.112
	l0.591,0.019l0.485-0.15l0.636-0.264l0.459-0.414l0.922-1.396l0.151-0.576l0.075-0.301l0.403-0.34l0.15-0.188l0.031-0.227
	l0.113-0.15l0.113-0.15l0.113-0.15l0.113-0.15l0.301-0.452l-0.023-0.663l-0.151-0.398l-0.038-0.339l0.151-0.301l0.896-1.081
	l0.226-0.301l0.226-0.338l0.226-0.34l0.388-0.301l0.301-0.609l0.188-0.302l0.226-0.226l0.339-0.113l0.602-0.15l0.264-0.113
	l0.338-0.264l0.264-0.074l0.264,0.037l0.263,0.113l0.339,0.037l0.075-0.226l0.029-0.027l0.026-0.03l0.027-0.031l0.025-0.03
	l0.025-0.03l0.023-0.033l0.018-0.113l0.018-0.112v-0.112v-0.113V313l0.226-0.339l4.1-2.428l-2.981-3.91l2.989-3.603l1.231-2.398
	l0.478-3.263l1.186-1.272l0.444-0.595l-0.113-0.038l-0.113-0.037l-0.113-0.037l-0.113-0.038l-0.113-0.034l-0.798-0.599l-0.263-0.188
	l-0.647-0.15l-0.226-0.15l0.565-0.264l0.463-0.339l0.339-0.339l0.263-0.301l0.264-0.301l0.376-0.189l0.433-0.15l0.44-0.15
	l0.429-0.226l0.301-0.226l-0.188-0.076l-0.188-0.074l-0.188-0.076l-0.188-0.074l-0.606-0.302l-0.038-0.036l-0.038-0.032
	l-0.038-0.033l-0.038-0.028l-0.038-0.029l-0.038-0.027l-0.038-0.025l-0.188-0.15l-0.188-0.226v-0.028v-0.029v-0.029l-0.018-0.026
	v-0.029l-0.018-0.026l-0.018-0.027l-0.018-0.025l-0.018-0.027l-0.188-0.301l-0.032-0.032l-0.035-0.03l-0.034-0.031l-0.036-0.028
	l-0.036-0.029l-0.15-0.384l-0.15-0.595l-0.038-0.422v-0.15l-0.038-0.226l0.018-0.377l0.113-0.226l0.226-0.376l0.038-0.113
	l0.076-0.113l0.075-0.113l0.075-0.112l0.151-0.403l0.113-0.188l0.113-0.301l-0.018-0.076l-0.018-0.074v-0.076v-0.075v-0.075v-0.075
	v-0.075l0.038-0.188l0.339-0.727l0.075-0.263l0.15-0.227l0.188-0.188l0.338-0.227l0.595-0.188l0.602-0.189l0.301-0.15l0.263,0.501
	l0.542,0.339l0.264,0.075l0.61,0.188l0.339-0.603l0.15-0.188l0.113-0.15l0.151-0.15l0.15-0.113l0.113-0.15l0.264-0.226l0.075-0.188
	l0.151-0.188l1.118-0.855l0.151-0.112l0.15-0.113l0.15-0.112l0.113-0.113l0.263-0.339l0.151-0.112l0.226-0.264l0.188-0.34
	l0.723-1.513l0.388-0.55l0.264-0.398l0.301-0.411l1.088-1.065l0.497-0.339l0.188-0.075l0.376-0.226l0.497-0.651l0.188-0.338
	l0.587-1.178l0.376-0.67l0.188-0.263l0.264-0.339l0.226-0.226l0.452-0.226l0.73-0.264l1.253,0.038l1.058,0.018l0.301-0.036
	l1.227,0.027l1.299-0.554v-0.075l0.553-0.188h0.388l0.73-0.075l0.264,0.018l0.075-0.031l0.226-0.018l0.188-0.075l0.489-0.075
	l0.075-0.029l0.076-0.03l0.075-0.034l0.075-0.034l0.075-0.036l0.038-0.038l0.038-0.038l0.188-0.076h0.075h0.075h0.075h0.076h0.075
	l0.075-0.018h0.226l0.478,0.151l0.226,0.075l0.617,0.301l0.113,0.15l0.113,0.15l0.113,0.151l0.113,0.15l0.339,0.486l0.632,1.306
	l0.151,0.188l0.188,0.188l0.188,0.188l0.226,0.15l0.226,0.113l0.15,0.018l0.188-0.018l0.41-0.151l0.301-0.038h0.15h0.15h0.151
	l0.15-0.018l0.151-0.018l1.027,0.025l0.264-0.076l0.301-0.188l0.452-0.553l0.58-0.456l0.858-0.339l1.073-0.756l1.434-1.506
	l0.388-0.339l0.572-0.632l0.406-0.226l0.907-0.263l0.264-0.188l0.689-0.41l1.118-0.531l1.069-0.188l0.843-0.226l0.301-0.188
	l0.151-0.188l0.075-0.15l1.807-0.463l0.968-0.444l1.419-0.376l0.535-0.038l0.388,0.036l0.869-0.264l0.49-0.188l0.497-0.113
	l0.151-0.113l0.15-0.113l0.15-0.113l0.151-0.113l0.632-0.113l0.421-0.188l0.226-0.301l0.15-0.399l0.437-0.151l1.178-0.113
	l1.024,0.113l1.235,0.188l0.689-0.429l1.114-0.768l1.042-0.448l0.599,0.038l-0.986,1.731l1.453-0.459l0.674,0.226l-0.339,0.264
	l-0.339,0.263l-0.339,0.226l-0.576,0.659l-0.384,0.384l-0.15,0.226l-0.113,0.113l-0.113,0.113l-0.075,0.113l-0.075,0.113
	l-0.075,0.113l-0.93,1.604l-1.75,3.471l-1.141,1.604l-0.226,0.264l-0.263,0.264l-0.301,0.226l-1.024,0.745l-3.343,2.292
	l-0.873,0.621l-0.798,0.554l-0.188,0.15l-0.075,0.038l-0.075,0.038l-0.038,0.038l-0.038,0.038l-0.038,0.038l-0.038,0.038
	l-0.038,0.075l-0.188,0.264l-0.075,0.188l-0.151,0.456l-0.038,0.188l-0.032,0.188l-0.025,0.188v0.037v0.038v0.037v0.038v0.075v0.038
	v0.037l0.018,0.075v0.075v0.075v0.075v0.076l0.076,0.541l0.075,0.302l0.075,0.301l0.075,0.302l0.151,0.906l0.15,0.697l0.113,0.699
	l0.151,0.463l0.15,0.396l0.15,0.395l0.151,0.398l0.188,0.34l0.301,0.538l0.188,0.226"/>
<path id="azcapotzalco" inkscape:connector-curvature="0" fill="#CCCCCC" stroke="#FFFFFF" stroke-width="0.2141" d="
	M209.767,148.752L209.767,148.752l0.425-2.179l0.264-0.685l0.459-0.425l0.557-0.376l0.497-0.403l0.399-0.471l1.201-2.002
	l0.433-0.339l0.384-0.264l0.583-0.113l0.632,0.018l0.61,0.113l4.684,0.832l0.858,0.076l0.847-0.076l2.447-0.696l3.787-1.238
	l0.188-0.151l-0.038-0.459l-3.33-8.792l-2.342-6.525l-5.321-14.011l-2.266-5.71l-0.029-0.226l-15.683-5.002l-4.125,1.961
	l-13.993-5.406l-11.25-2.932l-2.951,1.664l-1.186,1.145l-0.618,0.771l-0.376,0.794l-0.411,1.133l-0.376,1.152l-0.504,3.019
	l-0.226,1.088l-0.967,2.8l-0.512,2.876l-0.075,0.504l-5.958,16.899l-0.64,2.191l-0.339,1.942l13.196,3.392l0.535-0.113l2.258-1.095
	l2.199-0.685l0.824-0.038l4.666,1.34l5.017,1.359l-0.15,4.642v0.839l2.586,0.817l-0.47,2.868l4.577,0.957l4.563,0.756l1.216,0.226
	l3.618,0.606l5.362,0.854l3.166,0.602l1.091,0.188"/>
<path id="benitojuarez" inkscape:connector-curvature="0" fill="#CCCCCC" stroke="#FFFFFF" stroke-width="0.2141" d="
	M231.834,242.428L231.834,242.428l0.188-0.783l0.922-4.067l0.825-3.835l0.65-2.887l1.75-7.588l0.919-4.496l0.692-3.181l0.43-1.814
	l0.15-0.998l0.459-2.176l0.113-0.226l0.15-0.15l0.926-4.485l0.113-0.411l0.15-0.301l0.15-0.226l0.027-1.788l-5.762-0.188
	l0.543-3.599l0.15,0.018l0.15-0.027l0.264-0.188l0.113-0.264v-0.038v-0.038v-0.038v-0.038v-0.038v-0.038l-0.189-0.226l-0.376-0.151
	l-0.188,0.031l-0.338,0.075l-0.188,0.188l-0.113,0.264l-0.414-0.018l-3.94-0.226l-2.568-0.188l-2.205-0.075l-8.381-0.075
	l-1.325,0.15l-0.595,0.15l-4.188,1.25l-1.042,0.376l-2.391,0.915l-0.994,0.418l-3,0.741l-1.498,0.44l-6.426,1.863l-0.595,0.188
	l-0.264-0.188l-2.315,0.339l-2.059,0.7l-2.108,0.561l-2.451-0.031l0.504,1.25l0.15,0.67l-1.261,4.905l-0.693,2.56l-0.531,1.174
	l-0.602,1.528l-0.038,2.424l0.15,2.292l-0.301,2.082l-0.226,2.085l0.388,1.441l-0.15,1.623l0.075,0.817l0.516,1.321l0.339,0.681
	l0.075,0.339l-0.188,1.524l-0.113,1.513l0.557,0.188l1.25,0.301l1.22,0.188l1.073,0.723l1.265,0.376l0.753-0.018h0.753l1.302-0.806
	l1.355-0.263l1.378-0.384l0.226-0.301l1.619-1.393l0.704,0.625l1.852,1.841l0.523,0.583l0.542,0.564l0.339,0.301l1.547,1.14
	l1.509,0.986l1.747,0.226l1.133,0.018l3.655,0.15l13.424,0.663l8.275,0.52"/>
<path id="coyoacan" inkscape:connector-curvature="0" fill="#CCCCCC" stroke="#FFFFFF" stroke-width="0.2141" d="M169.841,290.793
	L169.841,290.793l2.04,0.338l3.117,1.07l1.385,0.744l1.476,0.746l0.734,0.264l0.549,0.112l0.828,0.151h0.475h0.474l0.474-0.019
	l0.723-0.075l4.155-0.463l2.285-0.188l4.964-0.64l0.775-0.027l0.892,0.038l5.188,0.575l2.149,0.264l3.5,0.471l3.196,0.493
	l1.781,0.339l1.088,0.301l0.301,0.15l0.41,0.264l0.263,0.15l0.493,0.34l0.411,0.338l0.338,0.377l1.039,1.22l0.802,1.023l4.7-1.021
	l0.075-0.188l0.558-0.339l0.075-0.264l0.188-0.301l0.074-0.075l0.264-0.113l0.227-0.075l0.15-0.075l1.476-1.122l0.301-0.15
	l0.772-0.075l0.534,0.02l0.862,0.15l1.227,0.396l1.725,0.632l1.562-1.563l5.347-5.866l0.549-0.688l1.018,0.407l1.705,0.727
	l5.809,2.521l0.881,0.377l2.459,0.896l2.07,0.712l0.94,0.263l1.024,0.264l3.35,0.821l0.803,0.225l0.646,0.151l0.641,0.15
	l0.809,0.188l0.806,0.188l0.798,0.227l0.734,0.15l0.437-0.018l1.536-0.113l2.838-0.15l1.344-0.113h1.242l0.076-0.696l0.504-5.424
	l0.226,0.075l0.226-3.076l0.564-6.24l0.385-3.222l-0.02-0.452l-0.34-0.948l-0.688-0.832l-1.009-0.957l-0.264-0.15l-2.895-1.705
	l-0.76-0.568l-2.154-2.36l-0.425-0.583l-0.41-0.599l-0.892-1.234l-0.821-1.999l-1.186-0.802l-0.674-0.651l-1.054-1.694l-0.448-1.091
	l-0.226-1.125l-0.15-1.404l-0.264-0.689l-1.25-2.925l-0.764-0.99l-0.6-1.216l-1.088-1.683l-1.264-2.18l-0.227-0.264l-0.188-0.15
	l-0.15-0.038l-0.633-1.694l-0.486-1.664l-0.188-0.904l-0.264-2.285l-5.359-0.565l-3.433-0.388l-0.302,0.535l-0.301,0.388
	l-0.381,0.403l-0.643,0.418l-0.467,0.188l-0.75-0.018l-0.429-0.023l-0.81-0.075l-4.346-0.263l-8.275-0.52l-13.425-0.663l-3.655-0.15
	l-1.133-0.018l-1.747-0.226l-1.509-0.986l-0.599,1.536l-0.301,0.64l-0.226,0.376l-0.226,0.301l-0.226,0.264l-2.413,2.639
	l-0.99,0.775l-0.113,0.113l-0.113,0.113l-0.113,0.113l-0.113,0.113l-0.188,0.38l-0.188,0.188l-0.5,0.467l-0.512,0.452l-0.625,0.598
	l-0.113,0.188l-0.113,0.188l-0.113,0.188l-0.113,0.188l-0.076,0.226l-0.417,1.859l-1.171-0.376l-0.301,0.392l-0.226,0.226
	l-0.226,0.151l-0.263,0.038l-0.396,0.873l-0.263,0.81l-0.583,0.99h-0.403l-1.359,1.092l-0.655,0.576l-0.075,0.226l-0.038,0.301
	l-0.674,0.188l-0.388,0.301l-0.226,0.301l-0.264,0.226l-0.922,0.58l-0.226,0.263l-0.151,0.264l-0.226,0.263l-0.226,0.188
	l-0.018,0.301l0.023,0.301l-0.742,0.904l-0.301,0.188l-1.193,0.15l-0.956,0.188l-4.026,0.96l-0.339,0.113l-0.301,0.263l-0.264,0.301
	l-0.263,0.376l-0.264,0.376l-0.188,0.392l-0.113,0.339l3.173-0.471l0.113,0.018l0.038,0.15l-0.038,0.226v0.339l0.151,0.301
	l0.188,0.376l1.193,1.826l-0.113,4.302v0.15l-0.023,0.425v1.626l-0.025,0.58l0.018,0.263L180,275.267v0.15l-0.031,0.188
	l-0.376,0.572l-3.286,5.373l-2.748,4.111l0.802,0.376l-3.2,3.083l-0.979,0.938l-0.527,0.662"/>
<path id="cuajimalpa" inkscape:connector-curvature="0" fill="#CCCCCC" stroke="#FFFFFF" stroke-width="0.2141" d="M130.719,214.809
	L130.719,214.809l-0.663-0.794l-0.226-0.376l-0.113-2.033v-0.843l0.113-0.376l0.376-0.655l0.493-0.557l0.301-0.572l0.339-0.406
	v-0.44l-0.226-0.339l-0.301-0.113l-0.41-0.021l-0.339,0.075l-0.437,0.339l-0.452,0.338l-0.301,0.038l-0.226-0.076l-0.226-0.075
	l-0.226-0.075h-0.651l-0.301,0.075l-0.264,0.15l-0.301,0.076l-1.242-0.151l-0.264-0.395l-1.054-0.881l-0.264-0.264l-0.188,0.113
	l-0.018,0.263l0.49,0.471l-0.076,0.226l-0.226,0.226l-0.151,0.113l-0.402,0.113l-0.411,0.038l-0.226,0.076l-0.554,0.301
	l-0.263,0.188l-0.226,0.075l-0.433,0.038l-0.264,0.018l-0.264,0.02l-0.263,0.027l-0.226,0.113l-0.15,0.15l-0.188,0.113l-0.15-0.151
	l-0.075-0.263l-0.264-0.558l-0.113-0.301l-0.031-0.376l0.038-0.188l0.599-0.406l0.61-0.388l0.81-0.557l1.058-0.915l0.384-0.376
	l0.264-0.433l0.15-0.474l0.075-0.422l0.038-0.485v-0.425l-0.038-0.301l-0.038-0.301v-0.15l0.076-0.64l-0.151-0.817l-0.018-0.113
	l-0.018-0.508l-0.113-0.301l-0.113,1.001l-0.188,0.516l-0.226,0.471l-0.482,0.52L121.442,201l-0.263-0.606l-0.264-0.61l-0.038-0.489
	l0.113-0.602l0.075-0.603l-0.113-0.301l-0.599,0.52l-0.474,0.986l-0.7,1.547l-0.376,0.52l-0.685,1.035l-0.557,0.264l-0.888,0.113
	l-1.035-0.113l-0.516-0.018l-0.414,0.497l-0.651,0.226l-0.512,0.226l-0.501,0.899l-0.403,0.986l-0.903,1.841l-0.188,0.516
	l-0.113,0.493l-0.338,1.073l-1.024,0.395l-0.264,1.607l-1.596-0.113l-0.771,0.113l-0.768,0.376l-0.301,0.516l-0.414,3.034
	l-0.264,1.716l-0.038,0.761v0.756l-0.075,0.602l0.018,0.712l-0.828,0.903l-0.301,0.516l-0.15,0.647l-0.076,1.336l-0.651,0.338
	l-0.264,2.229l-0.392,0.226l-0.726,0.075l-0.516-0.075l-0.5-0.437l-0.553-3.286l-0.188-0.376l-0.301-0.463l-0.301-0.301
	l-0.489,0.076l0.038-0.448l-0.075-0.399l-0.113-0.376l-0.545-0.301l-0.915,0.019l-0.538,0.113l-0.482,0.52l-0.531,0.5l-0.459,0.497
	l-0.018,1.626l-0.907,0.437l-0.038,1.314l-1.694-0.264l-0.459,0.41l-0.264,0.647l-0.339,0.226l-0.817,0.226l-0.516-0.113
	l-0.489,0.151l-0.885,0.376l-0.384,0.764l-0.339,0.964l-0.47,0.738l-0.486,0.727l-0.587,1.167l-0.629,0.376l-0.512,0.188
	l-0.636-0.113l-0.636-0.151l-0.636-0.038l-0.467,0.018l-0.516,0.151l-0.339,0.429l-0.263,0.376l-0.407,0.787l-0.835-0.877
	l0.113-0.448l0.15-0.403l0.151-0.403l-0.113-0.512l-0.15-0.301l-0.384-0.595l-0.339-1.442l-0.376-0.617l-0.264-0.599l-0.188-0.64
	l-0.113-0.711l0.151-0.493l0.113-0.301l0.339-0.452l-0.188-0.339l-0.779-0.338l-0.87-0.113l-0.52-0.188l-0.301,0.263l-0.58,0.907
	l-0.561,0.915l-0.5,0.899l-0.617,0.791l-0.689,0.813l-0.482,0.497l-0.647,0.456l-0.625,0.376l-0.768,0.338l-0.376,0.429l-0.67,0.523
	l-2.462-0.038l-0.52,0.986l-0.504,1.769l-0.15,0.339l-0.301,0.448l-0.339,0.226l-0.7,0.113l-0.399-0.075l-0.471-0.113l-0.715,0.482
	l-0.376,0.583l-0.151,0.471l-0.263,0.301l-0.339-0.301l-0.403-0.301l-0.489,0.075l-0.188,0.738l-0.113,0.938l-0.038,0.937v0.734
	l-0.075,0.715l0.595,0.433l0.264,0.188l0.595,0.501l0.032,0.444l-0.226,0.602l-0.771,0.113l-0.911-0.188l-0.903-0.226l-0.448-0.075
	l-0.689,0.226l-0.685,0.226l-0.922,0.862l-0.474,0.877l-0.44,0.339l-0.644,0.591l-0.301,0.425l-0.301,0.719l-0.264,0.113
	l-0.263,0.075l-0.264,0.075l-0.76,0.523l-0.339,0.497l-0.032,0.761l0.301,0.771l0.674,0.835l0.38,0.339l0.376,0.727l0.15,1.269
	l-0.023,1.246l-0.113,0.982l-0.151,0.779l-0.339,0.851l-0.741,1.638l-0.591,0.944l-0.685,1.013l-0.482,0.497l-0.459,0.61
	l-0.508,0.52l-0.549,0.768l-0.58,1.611l-0.188,1.784v1.001l0.036,0.644l-1.212,0.918l-11.947,12.541l-7.253,7.781l-2.319,2.27
	l1.073,4.904l3.599,2.902l1.509,1.396l-1.735-0.112l-0.226,0.64l0.018,0.625l0.835,0.588l0.463,0.447l0.264,0.58L33.368,302
	l-0.821-0.075l-0.61,0.038l-0.564,0.225l-0.339,0.189l-0.376,0.301l-0.339,0.018l-0.794-0.301l0.542,1.807l-5.053,5.98l-4.889,5.893
	l0.113,0.87l1.028,0.456l1.72,1.084l0.787,0.854l2.037,0.113l1.969-0.025l1.498,0.188l1.355,0.113l1.167,0.433l1.216,0.264
	l0.866,0.03l1.145,0.302l1.626,1.039l1.065,1.257l0.854,1.186l1.253,0.881l1.163,0.7l1.096,0.568l0.93,0.388l0.771,0.112
	l1.442,3.441l-1.363,2.454l-0.651,1.927l-0.975,3.55l-0.964,4.649l0.075,9.082l2.338,0.67l5.548,1.585l1.916,0.761l1.039,0.658
	l2.187,2.605l0.572,0.797l0.595,0.686l0.73,0.264l1.129,0.264l0.73,0.032l-0.036-1.919l0.113-3.805l0.67-11.703l-0.15-13.895
	l5.323-8.449l0.339-0.599l0.339-0.513l0.188-0.522l0.113-0.678l0.076-0.727l0.113-0.745l0.15-0.746l0.188-0.76l0.226-0.753
	l0.188-0.982l0.038-0.96l-0.188-1.551l-0.226-0.828l-0.075-0.715v-0.945l0.263-1.258l0.113-0.778l-0.018-0.734l-0.036-0.733
	l-0.075-0.716l-0.226-0.948l-0.226-0.956l-0.264-0.956l0.033-0.535l0.075-0.504l0.075-0.339l0.075-0.339l0.038-0.339l0.339-1.54
	l0.151-1.012l0.188-0.848l0.113-0.264l0.542-0.436l0.606-0.302l0.263,0.113h0.301l0.113-0.038l0.075-0.15l-0.027-0.844l0.023-0.537
	l0.263-0.411l0.339-0.384l0.264-0.188h0.858l0.075-0.076l-0.075-0.301l-0.113-0.377l-0.038-0.338v-0.264l0.075-0.227l0.188-0.301
	l0.15-0.339l0.151-0.226l0.301-0.076l0.264,0.038h0.188l0.076-0.038l0.038-0.074l0.075-0.076l0.075-0.074l0.075-0.076l0.075-0.075
	l0.076-0.075l0.188-0.037l0.188,0.188l0.263,0.385l0.075,0.376l0.076,0.617l0.113,0.437l0.263,0.188h0.264l0.38-0.075l0.429-0.377
	l0.15-0.383l0.301-0.848l0.025-0.301l0.076-0.377l0.15-0.15h0.188l0.188,0.339l0.226,0.188l0.025,0.037l0.339,0.037l0.226-0.188
	l0.113-0.264l0.113-0.264l0.113-0.264l0.151-0.301l0.15-0.301l0.15-0.301l0.188-0.113l0.188-0.036l0.151-0.038l0.15-0.037
	l0.113-0.264l0.034-0.113l0.429-0.843l0.188-0.264l0.226-0.112l0.151,0.112l0.15,0.112l0.15,0.113l0.339,0.389l0.339,0.455
	l0.301,0.301l0.15,0.036l0.188-0.075l0.113-0.188l-0.038-0.613v-0.737l0.038-0.385v-0.512l0.188-0.113l0.486-0.188l0.301-0.633
	l0.113-0.406v-0.49l-0.113-0.545l-0.188-0.49l-0.036-0.188l-0.038-0.15l-0.038-0.15l-0.034-0.15l-0.031-0.151l-0.075-0.188
	l-0.339-1.299l-0.034-0.074l-0.03-0.076l-0.029-0.074l-0.027-0.076l-0.023-0.075l-0.023-0.018l-0.022-0.019l-0.021-0.018
	l-0.021-0.018l-0.02-0.019l-0.02-0.019l-0.02-0.018l-0.02-0.018l-0.018-0.019l-0.018-0.019l-0.038-0.074l-0.038-0.076l-0.038-0.074
	l-0.038-0.038l-0.038-0.075v-0.019v-0.018v-0.019v-0.018v-0.018v-0.019v-0.019v-0.018v-0.018v-0.019v-0.019v-0.018l0.076-0.075
	l0.027-0.018l0.027-0.019l0.026-0.018l0.027-0.018l0.029-0.019h0.029l0.029-0.019h0.029h0.028h0.029h0.029l0.113-0.075l0.036-0.075
	v-0.426l0.023-0.225v-0.026v-0.025v-0.026v-0.025v-0.025v-0.025v-0.025v-0.023v-0.025v-0.023l0.018-0.024l0.018-0.023l0.018-0.019
	l0.018-0.02l0.018-0.018l0.018-0.02l0.018-0.019l0.018-0.019l0.018-0.018l0.018-0.018l0.018-0.019l0.018-0.019l0.018-0.018
	l0.018-0.018l0.02-0.019l0.02-0.019l0.113-0.15l0.018-0.018l0.018-0.018l0.018-0.019l0.018-0.02l0.018-0.02l0.018-0.02l0.018-0.02
	l0.018-0.022l0.018-0.02l-0.018-0.15l-0.075-0.459l0.018-0.038l0.018-0.038l0.018-0.038v-0.038v-0.038v-0.038v-0.038v-0.038v-0.038
	l-0.032-0.113l-0.027-0.376l0.038-0.226l0.076-0.15l0.075,0.038h0.018h0.018h0.018h0.018h0.018h0.018h0.018h0.018h0.018h0.018h0.018
	h0.018h0.018l0,0h0.018h0.018h0.018h0.018l0.018,0.018h0.018l0.018,0.018l0.018,0.018l0.018,0.018v0.019l0.018,0.018v0.018
	l0.076,0.075l0.038,0.113l0.113,0.151l0.188,0.301l0.587,0.557l0.113,0.226l0.339,0.964l0.264,0.425l0.301,0.188h0.301l0.478,0.15
	l0.376,0.264l0.188,0.226l0.075,0.302v0.188l-0.075,0.456l0.075,0.15l0.188,0.036l0.188-0.075l0.301-0.264l0.263-0.024l0.226,0.151
	l0.075,0.112l0.075,0.113l0.075,0.113l0.075,0.113l0.151,0.021l0.15-0.076l0.188-0.188l0.188-0.455l0.15-0.46l0.301-0.67
	l0.113-0.692l0.339-0.647l0.226-0.301l0.719-0.301l0.595-0.113l0.697-0.188l0.188-0.113l0.188-0.188l0.018-0.339l-0.075-0.226
	l-0.339-0.263l-0.433-0.188l-0.188-0.338l-0.113-0.479l-0.113-0.79l0.038-0.546l0.264-0.546l0.485-0.787l0.075-0.226l-0.113-0.523
	l-0.188-0.418l-0.264-1.035l0.023-0.264l0.463-0.764l0.602-0.847l0.399-0.964l1.46-1.584l0.263-0.038l0.226,0.113l0.075,0.263
	l-0.15,0.426l-0.433,1.02l-0.028,0.557l0.113,0.485l0.226,0.188l0.836,0.425l0.339,0.075l-0.636-0.791l-0.113-0.188l-0.018-0.264
	l0.018-0.188l0.15-0.376l1.995-4.244l0.226-0.403l0.618-0.188l0.617,0.15l1.457,0.87l1.005,0.339l0.655,0.075l0.15-0.075
	l0.113-0.301v-0.339l-0.075-0.338l-0.151-0.226l-0.41-0.226l-0.376-0.301l-0.038-0.226l0.018-0.339l0.535,0.339h0.226l0.508-0.339
	l0.76,0.076l0.667-0.226l2.48-1.272h0.388l0.418-0.113l3.169-1.302l1.073-0.647l0.994-0.715l1.103-0.075l0.644-0.61l0.226-0.425
	l0.188-0.301l0.301-0.301l0.497-0.038l0.338-0.038l0.113-0.075l0.075-0.188l0.15-0.188l0.151-0.025l0.15-0.02l0.15-0.018
	l0.031-0.075l0.034-0.075l0.036-0.075l0.038-0.076l0.038-0.075l0.038-0.075l0.264-0.188l0.376-0.538l0.531-0.188l0.075-0.113
	l0.031-0.188l0.15-0.301l0.188-0.075l0.339,0.113h0.113l0.264-0.188l0.339-0.113l0.433-0.031l0.226-0.075l0.263-0.151l0.711-0.301
	l-0.018-0.113l0.113-0.113l0.338-0.031l0.632-0.188l0.188-0.226v-0.113l-0.075-0.038l-0.264,0.113l-0.264,0.113l-0.263,0.113
	l-0.603,0.076l-0.395,0.075l-0.418,0.264l-0.018-0.113l0.226-0.263l0.497-0.264l0.403-0.018l0.388-0.15l0.384-0.61l0.263-0.151
	l0.647-0.263l0.075-0.151l0.031-0.188l-0.031-0.151l-0.075-0.038l-0.15-0.018l-0.448,0.038l-0.948,0.226l-1.6,0.489l-0.15-0.075
	l-0.038-0.15l0.031-0.151l0.376-0.264l0.339-0.388l0.553-0.188l0.339-0.527l-0.15-0.301v-0.113v-0.113l-0.018-0.113l-0.018-0.113
	l-0.151-0.61l-0.376-0.301l-0.602-0.263h-0.396l-0.659,0.188l-0.749,0.038l-0.681-0.075l-0.151-0.188l0.018-0.263l0.076-0.301
	l0.263-0.384l0.535-0.486l-1.167,0.151l-0.264-0.151l-0.113,0.038l-0.188,0.02l-0.433-0.018l-0.564,0.038l-0.456,0.113l-0.535,0.15
	l-0.15-0.075v-0.15l0.949-0.376l1.863-0.772l4.027-0.708l-0.188-0.828l-0.715-3.297l-0.922-0.907l-0.557-0.264l-0.76-0.075
	l-1.261-0.264l-0.489-0.339l-0.264-0.188l-0.459-0.113l-0.448-0.188l-0.188-0.038l-0.188-0.188l0.076-0.264l0.15-0.52l-0.018-0.625
	l-0.075-0.81l-0.151-0.58l-0.188-0.93l1.434-3.008l0.512-1.272l-0.534,0.226l-0.779,1.66l-0.264,0.188h-0.113l-0.075,0.151
	l-0.075,0.15l-0.076,0.15l-0.384,0.471l-0.41,0.226l-0.301,0.018l-0.392-0.076l-0.339-0.15l0.655-0.979l0.113-0.903l-0.032-0.463
	l-0.075-0.38l-1.307,0.338l-0.301-1.027l0.075-0.508l0.264-0.339l0.516-0.15l0.798,0.15l0.606,0.151l0.734-0.746l0.455-0.301
	l2.699-0.489l0.527-0.15l0.542-0.188l0.851-0.338l0.741-0.452l1.005-0.922l2.548-2.251l1.073-0.727l4.373-2.763l2.251-1.701
	l1.423-1.125"/>
<path id="cuauhtemoc" inkscape:connector-curvature="0" fill="#CCCCCC" stroke="#FFFFFF" stroke-width="0.2141" d="M235.93,198.731
	L235.93,198.731l1.336,0.076l0.791-0.019l1.577,0.113l0.802,0.023l0.377-0.025l0.557-0.075l0.497-0.113l0.813-0.301l1.494-0.429
	l1.279-0.226l-0.376-2.055l-0.226-0.986l-0.302-1.174l-0.704-2.04l-0.301-1.321l-0.113-0.949l-0.338-0.376l0.391-2.755l0.572-3.343
	l0.625-1.637l0.52-1.092l0.486-3.982l1.779-11.499l0.426-2.959l-0.674-0.881l-0.948-1.969l-0.903-1.362l-0.15-0.625l0.15-1.404
	l0.376-1.374l0.489-1.069l1.408-5.809l1.051-1.63l-3.328-1.107l-1.683-0.538l-4.963-2.921l-0.505-0.263l-0.376-0.075l-5.626-0.339
	l-1.148,0.021l-0.682-0.576h-0.263l-0.46,0.151l-0.338,0.338l-0.302,0.113l-0.188,0.15l-3.787,1.238l-2.447,0.697l-0.847,0.075
	l-0.858-0.075l-4.684-0.832l-0.61-0.113l-0.632-0.018l-0.583,0.15l-0.384,0.264l-0.433,0.338l-1.201,2.003l-0.399,0.47l-0.497,0.403
	l-0.557,0.376l-0.459,0.425l-0.264,0.682l-0.425,2.179l-0.15,0.546l-0.553,3.764l-0.151,1.66l-1.291,6.123l-2.736,5.372
	l-0.994,1.506l-3.795,6.275l-3.772,5.717l-0.018,0.719l-0.022,3.245l-4.018,7.333l-2.127,3.463l6.776,2.379l5.609,1.89l0.949,3.354
	l3-0.742l0.994-0.418l2.39-0.915l1.043-0.376l4.188-1.25l0.591-0.151l1.325-0.15l8.381,0.075l2.207,0.075l2.566,0.188l3.941,0.226
	l0.414,0.018l0.113-0.263l0.188-0.188l0.339-0.075l0.188-0.031l0.377,0.15l0.225,0.226v0.038v0.037v0.038v0.037v0.038v0.037"/>
<path id="gustavoamadero" inkscape:connector-curvature="0" fill="#CCCCCC" stroke="#FFFFFF" stroke-width="0.2141" d="
	M248.683,145.532L248.683,145.532l3.452,1.148l1.246,0.433l3.215,2.533l2.01,1.555l2.521,0.918l0.027-0.038l0.075-0.075l0.075,0.025
	v0.02v0.02v0.018v0.02v0.02v0.02v0.02v0.02v0.02v0.02l0.188,0.038l2.425,0.934l4.35,1.573l0.654,0.113l0.986-0.031l0.715-0.264
	l3.629-1.468l0.633-0.075l0.479,0.02l0.545,0.113l0.438,0.226l0.545,0.475l2.429,2.258l1.705,1.619l0.7,0.956l3.734-2.45
	l2.383-1.683l0.481-0.076l0.339-0.021l10.705,3.647l0.828-0.038l0.46-0.151l3.8,1.348l0.874,0.264l4.063-1.517l0.112,0.15
	l0.46-0.188l-0.038-0.188l1.171-0.376l0.534-0.226l2.47-0.896l1.096-1.144l0.263-0.226l0.339-0.15l0.075-0.113l-3.372-7.644
	l-5.873-14.04l-6.434-15.232l3.389-8.866l-5.187-2.078l-11.717-5.035l-8.01-3.489l-7.884-3.433l-7.073,3.241l-1.441-1.352
	l-0.61,0.018l-0.301,0.599l-1.005-0.523l-2.86,0.038l-0.844,0.076l-2.854-2.654l-0.609,0.076l-1.901-0.076l-0.854-1.076
	l-0.613-1.653l-1.307-0.794l-1.324-1.212l-1.688-2.063l-0.624-0.941l-0.889-2.232l-0.526-1.028l-0.509-0.538l-0.15-1.716
	l0.376-2.507l0.188-1.712l0.226-1.333l-0.15-0.893l-0.459-0.692l-1.607-1.106l0.647-1.22l2.925-3.508l1.404-1.766l1.307-1.434
	l0.881-1.171l2.014-3.674l1.095-1.434l0.644-0.771l0.99-0.591l0.572-0.708l0.339-0.485l0.019-1.246l0.188-0.576l0.994-0.858
	l0.617-0.749l0.546-0.463l0.425-0.395l0.807-0.704l1.758-1.897l0.898-0.768l0.385-0.64l0.15-0.843l0.032-0.749l0.038-0.542
	l-0.339-0.301l-0.765-0.874l-1.113-1.099l-0.46-1.005l-0.112-0.847l-0.076-0.979l-0.226-1.314l-0.613-1.63l-0.384-1.159
	l-0.301-1.404l-0.527-1.186l-0.783-1.43l-1.156-1.457l-1.569-2.153l-0.226-0.825l-0.301-0.779l0.15-0.866l0.662-2.62l0.41-0.93
	l-2.021-1.822l-1.731-0.395l-1.009-0.113l-0.113-0.035l-0.85-0.263l-0.614,0.437l-0.572,0.839l-0.505,1.107l-0.643,0.794
	l-0.641,0.482l-1.219,0.485l-1.209,0.512l-1.25,0.5l-0.873,0.339l-0.64,0.301l-0.757,0.572l-0.113,0.711l-0.301,0.621l-0.301,0.508
	l-0.73,0.437l-0.945,0.437l-0.741,0.482l-0.723,0.504l-0.667,0.727l-0.338,0.463l-2.244,5.361l-0.899,0.813l-0.903,1.035
	l-0.783,0.704l-0.617,0.463l-0.545,0.486l-0.667,0.636l-0.403,0.339l-0.5,0.772l-0.377,0.64v0.779l0.113,0.708l0.113,0.452
	l-0.438,1.197l-0.643,1.016l-0.596,0.794l-0.617,0.663l-0.783,0.613l-0.52,0.339l-0.805,0.591l-0.633-0.188l-1.476-0.15
	l-0.681,0.075l-0.779,0.376l-0.564,0.38l-0.572,0.376l-0.568,0.504l-0.711,0.549l-0.452,0.531l-0.663,0.414l0.301,1.607l0.15,0.602
	l-0.038,0.889l-0.339,0.866l-0.384,0.685l-0.339,0.264l-0.52,0.301l-0.339,0.73l-0.226,1.223l-0.226,0.798v0.421l8.844,4.203
	l-3.746,5.68l-2.164,2.669l-0.693,0.971l-0.459,1.174l0.113,0.376l1.148,0.188l1.427,0.504l-0.595,0.75l-0.903,1.08l-0.689,0.93
	l-0.376,0.599l-0.038,0.711l0.188,0.339l-0.809,0.884l-4.045-1.242l-3.414-0.854l-3.324-0.768l-5.286-1.521l-4.022-1.084l0.15,1.182
	l1.141,0.881l2.962,1.607l0.81-1.239l3.655,2.662l-3.766,3.32l1.894,0.73l3.347,0.945l6.267,3.777l5.428,14.155l0.029,0.226
	l2.266,5.71l5.321,14.011l2.341,6.525l3.332,8.792l0.037,0.463l0.302-0.113l0.339-0.338l0.459-0.151h0.264l0.682,0.576l1.147-0.021
	l5.626,0.339l0.377,0.075l0.504,0.263l4.963,2.921l1.683,0.538l3.327,1.107"/>
<path id="iztacalco" inkscape:connector-curvature="0" fill="#CCCCCC" stroke="#FFFFFF" stroke-width="0.2141" d="M236.173,223.27
	L236.173,223.27l1.187-0.075l1.227,0.075l3.357,0.406l6.611,1.141l-0.074-1.912l0.018-2.345l0.074-2.036l6.092,0.459l8.226,0.945
	l1.532,0.15l3.357,0.376l4.217,0.516l1.942,0.226l0.403-0.644l2.107-3.268l0.264-0.448l3.181-4.956l0.568-0.873l2.018,0.264
	l1.698,0.421l0.564-2.815l3.613,1.811l3.67,1.886l3.708,1.938l3.886,2.021l1.344,0.685l0.58,0.301l5.132,0.862l1.092-7.298
	l0.741-4.39l0.339-3.425l0.429-2.006l2.202-20.482l-0.753,0.76l-1.031,0.497l-1.434,0.15h-8.032l-0.741,0.036l-0.704,0.226
	l-0.425,0.226l-0.811,1.122l-1.724,2.699l-0.989,1.302l-2.029,3.508l-0.971,1.638l-0.572,1.133l-0.621,0.76l-0.67,0.399
	l-0.535,0.188l-1.336,0.018l-4.662-0.715l-4.217-0.606l-5.092-0.688l-0.674-0.226l-0.621-0.113l-0.377-0.018l-0.377-0.022
	l-0.226,0.034l-0.263,0.264l-1.115,0.226l-5.029,0.971l-7.85,1.683l-1.072,0.188l-1.555,0.188l-1.059,0.025l-1.275-0.018
	l-0.595,0.034l-0.948,0.113l-1.179,0.226l-1.182,0.226l-3.31,0.58l-1.279,0.226l-1.494,0.429l-0.813,0.301l-0.497,0.113
	l-0.557,0.075l-0.377,0.025l-0.801-0.024l-1.578-0.113l-0.79,0.018l-1.337-0.075l-0.112,0.264l-0.264,0.188l-0.15,0.027
	l-0.151-0.019l-0.541,3.603l5.76,0.226l-0.025,1.788l-0.151,0.226l-0.15,0.301l-0.112,0.41l-0.927,4.485l-0.15,0.15l-0.113,0.226
	l-0.459,2.175l-0.15,0.998l-0.429,1.814l-0.693,3.181l-0.918,4.496"/>
<path id="iztapalapa" inkscape:connector-curvature="0" fill="#CCCCCC" stroke="#FFFFFF" stroke-width="0.2141" d="M236.173,223.27
	L236.173,223.27l-1.75,7.588l-0.651,2.887l-0.824,3.834l-0.922,4.067l-0.188,0.783l4.347,0.263l0.809,0.075l0.43,0.023l0.748,0.018
	l0.467-0.188l0.645-0.418l0.38-0.403l0.302-0.388l0.301-0.535l3.433,0.388l5.359,0.564l0.263,2.285l0.189,0.904l0.484,1.664
	l0.633,1.694l0.15,0.038l0.188,0.15l0.226,0.264l1.266,2.18l1.088,1.683l0.598,1.216l0.765,0.99l1.249,2.925l0.264,0.689l0.15,1.404
	l0.227,1.125l0.447,1.091l1.055,1.694l0.674,0.651l1.186,0.802l0.82,1.999l0.893,1.234l0.41,0.595l0.426,0.583l2.152,2.36
	l0.761,0.568l2.895,1.705l0.264,0.151l1.009,0.956l0.689,0.832l0.338,0.949l0.02,0.451l0.076,0.561l0.037,0.227l0.15,0.564
	l0.505,0.798l0.188,0.226l0.188,0.227l0.188,0.226l0.188,0.226l0.188,0.227l0.189,0.226l0.338,0.421l0.301,0.34l0.227,0.301
	l1.096,1.359l1.43,1.656l1.988,2.48l0.264,0.414l0.376,0.425l0.188,0.264l0.188,0.226l0.188,0.227l1.973,2.367l0.554,0.696
	l2.736,3.188l4.678,5.727l1.479,1.834l2.319,2.815l0.339,0.301l0.188,0.226l0.463,0.34l0.075,0.074l0.113,0.076l0.112,0.074
	l0.113,0.038l0.112,0.038l0.15,0.113l0.227,0.112l0.301,0.188l0.49,0.338l0.338,0.34l2.76,2.552l2.138-2.281l0.475-0.376
	l1.155-1.238l3.361-3.562v-1.513l-0.564-1.619l-0.377-1.577l-0.074-0.075l-0.558-0.816l-0.497-1.006l-0.629-1.145l-0.15-0.902
	l0.264-0.828l1.021-2.93l3.335,1.107l5.222-6.24l1.431,1.035l1.569-1.908l0.621,0.455l0.264,0.188l0.264,0.188l0.264,0.188
	l1.047-1.314l0.692-0.074l1.042,0.741l1.269-1.521l1.506,1.279l3.223-3.113l4.584-1.299l1.909-0.474l27.837-8.095l2.021-0.606
	l3.136-0.038l17.132,0.414l0.938,0.075l0.037,0.113l-0.226,0.226l-0.538,0.493l-0.226,0.395l-0.019,0.226l0.075,0.226l0.15,0.188
	l0.227,0.113l0.376,0.113l0.302,0.024l0.263-0.038l0.339-0.113l0.264-0.15l0.188-0.188l0.075-0.113l0.075-0.113l0.037-0.113
	l0.038-0.113l0.075-0.226l0.019-0.339l1.72,0.632l1.336-1.265l2.951,0.113l0.957,0.938l1.133-0.188l0.474,0.339l0.907-1.088
	l6.778,0.151l-0.558-0.501l-2.367-1.927l-1.239-1.054l-1.358-1.077l-2.007-1.75l-1.039-0.824l-0.699-0.674l-0.75-0.651l-0.959-0.873
	l-0.844-0.629l-0.587-0.474l-0.463-0.489l-0.452-0.497l-0.376-0.474l-0.381-0.463l-0.301-0.493l-0.813-1.476l-0.263-0.486
	l-0.302-0.478l-0.422-0.493l-0.338-0.425l-0.377-0.603l-0.444-0.338l-1.193-1.118l-0.749-0.76l-0.96-0.918l-0.771-0.783
	l-0.798-0.651l-0.633-0.761l-1.192-1.23l-1.126-1.077l-0.489-0.493l-0.568-0.52l-0.558-0.531l-0.47-0.471l-2.082-1.683l-0.587-0.493
	l-0.467-0.448l-1.031-0.851l-0.264-0.376l-0.15-0.301l-0.021-0.301l0.035-0.075l0.038-0.075l0.037-0.075l0.038-0.076l0.037-0.075
	l0.151-0.301l0.15-0.226l0.075-0.226l0.075-0.263l0.075-0.264l0.15-0.467l0.075-0.403l0.113-0.403l0.113-0.395l0.188-0.471
	l0.188-0.376l0.15-0.403l0.15-0.338l0.151-0.301l0.112-0.301l0.302-0.489l0.425-1.216l0.075-0.226l0.113-0.38l-0.15-0.151
	l-0.516-0.339l-0.339-0.188l-0.562-0.301l-0.564-0.301l-0.339-0.188l-0.226-0.15l-0.226-0.151l-0.227-0.15l-0.226-0.15l-1.362-0.674
	l-0.516-0.339l-0.399-0.226l-0.376-0.263l-0.227-0.113l-0.226-0.113l-0.226-0.113l-1.08-0.471l-0.655-0.339l-1.005-0.892
	l-3.313-1.976l-5.327-3.034l-8.732-4.672l-19.781-9.019l-17.275-7.81l-0.433,2.006l-0.339,3.425l-0.741,4.39l-1.092,7.298
	l-5.132-0.862l-0.58-0.301l-1.344-0.685l-3.885-2.021l-3.709-1.938l-3.67-1.886l-3.613-1.814l-0.564,2.815l-1.697-0.421
	l-2.018-0.264l-0.568,0.874l-3.178,4.956l-0.264,0.448l-2.107,3.268l-0.402,0.644l-1.943-0.226l-4.217-0.516l-3.357-0.376
	l-1.531-0.151l-8.227-0.945l-6.091-0.459l-0.075,2.036l-0.019,2.345l0.075,1.912l-6.611-1.14l-3.357-0.407l-1.228-0.075
	l-1.187,0.075"/>
<path id="magdalena" inkscape:connector-curvature="0" fill="#CCCCCC" stroke="#FFFFFF" stroke-width="0.2141" d="M157.106,285.469
	L157.106,285.469l-0.188-0.225l-0.301-0.539l-0.188-0.339l-0.15-0.399l-0.15-0.395l-0.151-0.396l-0.15-0.463l-0.15-0.7l-0.151-0.696
	l-0.15-0.907l-0.075-0.301l-0.076-0.301l-0.075-0.302l-0.075-0.542v-0.075v-0.075v-0.076v-0.074l-0.018-0.076v-0.037v-0.037v-0.076
	V278.4v-0.037v-0.038v-0.038l0.025-0.188l0.033-0.188l0.038-0.188l0.15-0.455l0.075-0.188l0.188-0.264l0.038-0.075l0.038-0.038
	l0.038-0.038l0.038-0.038l0.038-0.038l0.075-0.038l0.076-0.038l0.188-0.15l0.802-0.554l0.874-0.621l3.342-2.292l1.024-0.746
	l0.301-0.226l0.264-0.263l0.226-0.264l1.141-1.604l1.75-3.471l0.93-1.604l0.075-0.113l0.075-0.113l0.076-0.113l0.113-0.113
	l0.113-0.113l0.151-0.226l0.384-0.384l0.576-0.659l0.339-0.226l0.339-0.263l0.339-0.264l-0.674-0.226l-1.453,0.459l0.986-1.731
	l-0.599-0.038l-1.042,0.448l-1.114,0.768l-0.689,0.429l-1.235-0.188l-1.023-0.113l-1.178,0.113l-0.437,0.151l-0.15,0.399
	l-0.226,0.301l-0.417,0.188l-0.632,0.113l-0.151,0.113l-0.15,0.113l-0.15,0.113l-0.151,0.113l-0.497,0.113l-0.49,0.188l-0.87,0.264
	l-0.388-0.036l-0.534,0.038l-1.419,0.376l-0.967,0.444l-1.807,0.463l-0.075,0.15l-0.151,0.188l-0.301,0.188l-0.843,0.226
	l-1.069,0.188l-1.118,0.531l-0.689,0.41l-0.264,0.188l-0.907,0.263l-0.406,0.188l-0.572,0.636l-0.388,0.339l-1.434,1.506
	l-1.073,0.756l-0.858,0.339l-0.58,0.456l-0.452,0.553l-0.301,0.188l-0.264,0.075l-1.028-0.025l-0.15,0.018l-0.15,0.018h-0.151h-0.15
	h-0.15l-0.301,0.038l-0.41,0.15l-0.188,0.018l-0.15-0.018l-0.226-0.113l-0.226-0.151l-0.188-0.188l-0.188-0.188l-0.151-0.188
	l-0.632-1.306l-0.339-0.486l-0.113-0.15l-0.113-0.15L135,270.007l-0.113-0.15l-0.617-0.301l-0.226-0.075l-0.478-0.15h-0.226
	l-0.075,0.018h-0.076h-0.075h-0.075h-0.075h-0.075l-0.188,0.075l-0.038,0.038l-0.038,0.038l-0.075,0.036l-0.075,0.034l-0.076,0.034
	l-0.075,0.031l-0.075,0.029l-0.489,0.075l-0.188,0.076l-0.226,0.018l-0.075,0.03l-0.264-0.018l-0.73,0.075h-0.388l-0.553,0.188
	v0.075l-1.299,0.553l-1.227-0.027l-0.301,0.036l-1.058-0.018l-1.253-0.038l-0.73,0.264l-0.452,0.226l-0.226,0.226l-0.264,0.339
	l-0.188,0.264l-0.376,0.67l-0.587,1.182l-0.188,0.339l-0.497,0.651l-0.376,0.226l-0.188,0.075l-0.497,0.339l-1.088,1.065
	l-0.301,0.411l-0.263,0.399l-0.388,0.549l-0.723,1.514l-0.188,0.339l-0.226,0.264l-0.151,0.112l-0.263,0.34l-0.113,0.112
	l-0.15,0.112l-0.15,0.113l-0.151,0.113l-1.118,0.854l-0.151,0.188l-0.075,0.188l-0.264,0.227l-0.113,0.15l-0.15,0.113l-0.151,0.15
	l-0.113,0.15l-0.15,0.188l-0.339,0.604l-0.61-0.189l-0.264-0.074l-0.542-0.34l-0.263-0.5l-0.301,0.15l-0.603,0.188l-0.595,0.188
	l-0.339,0.226l-0.188,0.188l-0.15,0.226l-0.076,0.263l-0.338,0.727l-0.038,0.189v0.074v0.076v0.074v0.076v0.075l0.018,0.075
	l0.018,0.075l-0.113,0.302l-0.113,0.188l-0.15,0.402l-0.075,0.113l-0.076,0.113l-0.075,0.113l-0.038,0.112l-0.226,0.376
	l-0.113,0.227l-0.018,0.377l0.038,0.225v0.151l0.038,0.425l0.151,0.596l0.15,0.383l0.036,0.029l0.036,0.029l0.034,0.03l0.035,0.03
	l0.032,0.033l0.188,0.301l0.018,0.026l0.018,0.025l0.018,0.027l0.018,0.026v0.029l0.018,0.027v0.029v0.028v0.028l0.188,0.227
	l0.188,0.15l0.038,0.025l0.038,0.027l0.038,0.028l0.038,0.028l0.038,0.033l0.038,0.031l0.038,0.037l0.606,0.301l0.188,0.075
	l0.188,0.075l0.188,0.075l0.188,0.075l-0.301,0.227l-0.429,0.226l-0.44,0.15l-0.433,0.188l-0.376,0.188l-0.264,0.302l-0.264,0.302
	l-0.338,0.338l-0.463,0.339l-0.564,0.264l0.226,0.15l0.647,0.151l0.263,0.188l0.798,0.595l0.113,0.034l0.113,0.037l0.113,0.038
	l0.113,0.038l0.113,0.037l-0.444,0.599l-1.186,1.269l-0.478,3.264l-1.231,2.398l-2.989,3.602l2.981,3.91l-4.099,2.428l-0.226,0.34
	v0.112v0.112v0.113l-0.018,0.113l-0.018,0.113l-0.023,0.031l-0.025,0.031l-0.025,0.031l-0.027,0.03l-0.027,0.03l-0.029,0.027
	l-0.075,0.226l-0.339-0.038l-0.264-0.15l-0.263-0.037l-0.264,0.075l-0.339,0.264l-0.263,0.112l-0.599,0.15l-0.339,0.113
	l-0.226,0.227l-0.188,0.301l-0.301,0.609l-0.388,0.301l-0.226,0.34l-0.226,0.338l-0.226,0.302l-0.896,1.08l-0.151,0.302l0.038,0.338
	l0.15,0.399l0.023,0.663l-0.301,0.451l-0.113,0.15l-0.113,0.15l-0.113,0.15l-0.113,0.15l-0.031,0.227l-0.151,0.188l-0.403,0.34
	l-0.075,0.301l-0.15,0.576l-0.926,1.396l-0.459,0.414l-0.636,0.264l-0.485,0.15l-0.587-0.019l-0.489-0.112l-0.339-0.023l-0.41,0.263
	l-0.478,0.399l-0.493,0.388l-0.425,0.226l-0.396,0.15l-0.44,0.227l-0.188,0.112l-0.188,0.478l-0.263,0.389l-0.505,0.492
	l-0.388,0.588l-0.188,0.542l-0.018,0.456l-0.113,0.432l-0.339,0.377l-0.52,0.388l-0.482,0.264l-0.47,0.264l-0.448,0.188
	l-0.226,0.301l-0.151,0.339l-0.399,0.263l-0.226,0.302l-0.226,0.339l-0.376,0.301l-0.538,0.113l-0.625,0.15l-0.301-0.075
	l-0.568-0.15l-0.421,0.15l-0.437,0.538l-0.188,0.434l-0.339,0.53l-0.741,0.474l-0.226,0.019l-0.444,0.151l-0.44,0.338l-0.467,0.188
	l-0.688,0.188l-0.982,0.226l-0.512-0.112l-0.975-0.302l-0.226-0.019l-0.685,0.113l-0.444,0.188l-0.553,0.112l-0.58,0.264
	l-0.339,0.264l-0.486,0.15l-0.809,0.076h-0.113h-0.113h-0.113l-0.113-0.019l-0.568,0.15l-0.554-0.075l-0.263-0.15l-0.339-0.037
	l-0.339,0.15l-0.113,0.15l-0.508,0.226l-0.15,0.264l0.15,0.263l0.376,0.377l0.15,0.188l0.038,0.263l-0.188,0.34l-0.264,0.526
	l-0.113,0.403l-0.113,0.264l-0.339,0.748v0.302l-0.15,0.15l-0.076,0.188l0.226,0.688v0.188l-0.188,0.018l-0.151-0.112l-0.15-0.075
	l-0.038,0.188l-0.226,0.302l0.075,0.263v0.52l-0.113,0.34l-0.15,0.391l-0.226,0.463l-0.075,0.523l-0.15,0.339l-0.264,0.388
	l-0.038,0.301l0.075,0.621l0.075,0.621l0.075,0.302l0.038,0.388l-0.076,0.591l-0.376,0.579l-0.338,0.34l-0.64,0.15l-0.5,0.188
	l-0.301,0.264l-0.561,0.606l-1.769,1.705l-0.188,0.15l-0.226,0.264l-0.075,0.38l0.018,0.264l0.075,0.426l0.038,0.113l0.032,0.338
	l-0.15,1.182l-0.113,0.761v0.188l0.263,0.783v1.303l-0.075,1.486l0.806,0.075l1.528,0.497l1.227,0.809l1.389,0.678l0.806,0.572
	l0.474,0.44l0.301,0.531l0.113,0.778l0.339,0.302l0.339,0.302l0.301,0.301l0.151,0.113l0.452,0.112l0.489,0.302l0.15,0.02
	l0.151,0.018l0.15,0.019h0.15l0.188,0.038h0.576l0.301,0.074l0.339,0.151l0.075,0.038l0.038,0.037l0.038,0.037l0.038,0.038
	l0.038,0.038l0.038,0.037l0.263,0.188l0.301,0.189l0.617,0.263l0.516,0.414l0.226,0.188l0.226,0.188l0.226,0.189l0.226,0.074
	l0.188,0.15l0.226,0.227l0.598,0.402l0.531,0.339l0.711,0.429l1.284,0.817l0.621,0.376l0.264,0.264l0.113,0.188l0.075,0.226
	l0.264,0.572l0.301,0.422l0.301,0.339l0.96,0.437l0.452,0.15l0.746,0.15h0.339l0.576-0.037h0.339l0.339-0.018l0.339-0.025
	l0.376,0.075l0.429,0.15l0.38,0.151l0.339,0.225l0.263,0.227l0.339,0.339l0.339,0.418l0.429,0.715l0.301,0.821l0.839,0.85
	l0.188,0.076l0.226-0.038l0.564-0.188l0.459-0.188l0.455-0.227l0.448-0.226l0.339,0.113l0.994,0.571l1.058,0.227l0.881,0.113
	l1.51,0.15l0.113-0.076l0.113-0.074l0.15-0.076l0.151-0.074l0.15-0.076l0.339-0.113l0.264-0.031l0.338,0.037l0.188,0.037
	l0.188,0.076l0.188,0.074l0.263,0.151l0.076,0.038l0.075,0.037l0.075,0.037l0.075,0.038l0.075,0.038l0.076,0.037l0.263,0.075h0.339
	l0.376-0.038l0.407-0.15l0.263-0.264l0.151-0.112l0.602-0.032l0.602-0.038l0.407-0.075l0.339-0.113l0.538-0.15l0.542-0.15
	l0.429-0.377l0.188-0.112l0.15-0.112l0.151-0.113l0.15-0.113l0.497-0.546l0.113-0.226l0.021-0.113l0.018-0.113l0.018-0.112v-0.112
	l0.075-0.113l0.075-0.075l0.113-0.028l0.301-0.15l0.264-0.227l1.088-1.352l0.075-0.264l0.038-0.636l-0.018-0.339l0.075-0.264
	l0.018-0.338l-0.038-0.264v-0.264l0.076-0.227l0.113-0.188l0.301-0.188l0.504-0.38l0.338-0.264l0.339-0.399l0.226-0.301l0.264-0.151
	l0.188-0.112l0.226-0.075l0.226-0.075l0.15-0.075l0.038-0.15l0.038-0.113l0.038-0.113l0.038-0.113l0.188-0.188l0.339-0.15
	l0.523-0.076l0.384-0.112l0.851-0.564l0.708-0.58l0.854-0.526l0.226-0.188l0.15-0.188l0.113-0.264l0.113-0.402l0.15-0.227
	l0.226-0.15l0.338-0.188l0.339-0.188l0.301-0.112l1.171-0.189l0.263-0.074l0.376-0.15l0.264-0.151l0.406-0.188l0.376-0.112
	l0.188-0.031l0.188-0.036l0.151-0.037l0.15-0.037l0.58-0.264l1.329-0.599l0.264-0.226l0.264-0.15l0.263-0.377l0.113-0.264
	l0.113-0.301l0.226-0.15l1.137-0.377l0.226-0.113l0.565-0.682l0.338-0.338l0.339-0.301l0.376-0.377l0.384-0.339l0.301-0.264
	l0.376-0.226l0.226-0.264l0.075-0.15l0.075-0.264l0.075-0.64v-0.546l0.038-0.339l0.076-0.264l0.15-0.301l0.376-0.523l0.113-0.264
	l0.399-1.038l0.188-0.998l-0.027-0.301l-0.075-0.302l-0.113-0.226l-0.113-0.227l-0.113-0.225l0.151-0.076l0.263-0.301l0.075-0.076
	l0.076-0.074l0.075-0.113l0.075-0.113l0.038-0.112l0.038-0.113l0.038-0.112l0.188-0.264l0.076-0.15l0.075-0.15l0.113-0.151
	l0.113-0.15l0.151-0.264l0.023-0.188l0.028-0.188l0.036-0.188l0.038-0.188l0.038-0.188l0.029-0.264l0.076-0.15l0.113-0.113
	l0.456-0.301l0.564-0.264l0.264-0.227l0.188-0.226l0.113-0.226l0.113-0.227l0.075-0.263l0.226-0.554l0.15-0.15l0.15-0.113
	l0.226-0.075l0.339-0.038l0.263-0.074l0.113-0.076l0.038-0.037l0.038-0.075l0.036-0.075l0.036-0.075l0.034-0.075l0.031-0.076
	l0.264-0.338l0.15-0.15l0.038-0.027l0.038-0.029l0.038-0.03l0.038-0.03l0.038-0.035l0.038-0.033l0.038-0.035l0.038-0.037
	l0.035-0.076l0.029-0.15l0.038-0.074l0.113-0.509l-0.038-0.546l0.018-0.418l0.113-0.339l0.263-0.388l0.036-0.467l-0.018-0.338
	l-0.075-0.189l0.113-0.188l-0.263-0.264l-0.339-0.542v-0.112l0.113-0.302l0.15-0.188l0.076-0.301l-0.076-0.264l-0.15-0.226
	l-0.264-0.264l-0.038-0.226l0.076-0.264l0.188-0.264l0.264-0.226l0.188-0.113l0.188-0.15l0.188-0.15l0.113-0.302l-0.018-0.376
	l-0.075-0.226l-0.113-0.076l-0.301,0.227l-0.188,0.188l-0.338,0.113l-0.264,0.019l-0.301-0.075l-0.226-0.15l-0.188-0.188
	l-0.301-0.226l-0.301-0.302l-0.188-0.226l-0.036-0.113l0.376-0.264l0.15-0.074l0.301-0.302l0.075-0.112l0.075-0.113l0.076-0.113
	l0.075-0.113l0.113-0.264l0.029-0.15l0.036-0.15l0.038-0.15l0.038-0.15l0.027-0.396l-0.018-0.112l-0.018-0.113l-0.02-0.113
	l-0.025-0.113l-0.03-0.112l-0.151-0.226l-0.263-0.188l-0.301-0.15l-0.301-0.151l-0.339-0.263l-0.15-0.226v-0.302l0.034-0.339
	l0.075-0.188l0.647-0.302l0.226-0.15l0.075-0.188l-0.018-0.764l0.151-0.113l0.113-0.188l0.512-0.652l0.188-0.225l0.113-0.113
	l0.188-0.227l0.113-0.074l0.113-0.113l0.113-0.113l0.113-0.113l0.113-0.074l0.15-0.189l0.264-0.338v-0.15l-0.075-0.34l-0.02-0.188
	l0.02-0.075v-0.019v-0.018v-0.019v-0.019v-0.018v-0.018v-0.018v-0.019v-0.019v-0.018v-0.018v-0.019v-0.038v-0.035v-0.037v-0.035
	v-0.037v-0.035l0.018-0.15l-0.036-0.41v-0.471l-0.075-0.227l-0.437-0.576l0.038-0.074l0.038-0.076l0.038-0.074l0.038-0.076
	l0.188-0.493l0.018-0.026l0.038-0.15l0.038-0.15l0.038-0.15l0.038-0.151l0.264-0.444l0.038-0.113l0.038-0.112l0.038-0.112
	l0.038-0.113l-0.188-0.392l-0.226-0.188l-0.339-0.226l-0.301-0.112l-0.301-0.076l-0.263-0.15l-0.075-0.301v-0.377l0.113-0.73
	l0.15-0.727l0.151-1.113l0.075-0.15l0.794-0.6l0.188-0.15l0.188-0.15l0.188-0.15l-0.075-0.15l-0.226-0.399v-0.038l0.038-0.225
	l0.018-0.019h0.018l0.019-0.019l0.018-0.018l0.018-0.018l0.018-0.019l0.018-0.019l0.018-0.018l0.018-0.018l0.018-0.019l0.018-0.019
	l0.018-0.018l0.018-0.018l0.113-0.038l0.113-0.075l0.113-0.075l0.113-0.075l0.422-0.188l0.226-0.112l0.226-0.076v-0.037v-0.037
	v-0.038v-0.038v-0.037v-0.037l-0.038-0.076l-0.188-0.113l-0.339-0.301l-0.151-0.15l-0.075-0.113l0.018-0.15l0.113-0.264l0.264-0.301
	l0.226-0.188l0.018-0.019l0.018-0.018l0.018-0.019l0.018-0.018l0.018-0.019l0.018-0.019l0.018-0.018l0.018-0.018l0.018-0.019
	l0.018-0.018l0.018-0.019l0.018-0.018l0.075-0.188l0.075-0.112l0.038-0.188l0.038-0.188l0.038-0.188l0.038-0.227l0.188-0.226
	l0.075-0.075l0.226-0.15l0.038-0.038l0.376-0.226l0.027-0.227l-0.027-0.112l-0.15-0.226l-0.73-0.795l-0.301-0.391l-0.188-0.151
	l-0.075-0.075l-0.376-0.188h-0.025l-0.188-0.418l-0.113-0.34l-0.076-0.263l-0.038-0.418l0.019-0.226l0.113-0.406l0.113-0.403
	l0.113-0.226l0.113-0.227l0.075-0.226l0.15-0.226l0.188-0.188l0.188-0.188l0.188-0.188l0.226-0.227l0.437-0.376l0.151-0.113
	l0.301,0.038l0.15-0.019h0.264l0.376-0.15l0.463-0.15l0.338-0.038l0.339-0.025l0.339-0.018h0.075l0.151,0.034l0.113,0.034
	l0.301,0.076l0.15,0.074l0.339,0.113l0.264-0.037l0.338-0.15l0.301-0.076h0.038l0.038-0.037l0,0l0,0l0,0l0,0l0,0l0,0l0,0l0,0l0,0
	l0,0l0,0l0,0l0,0l0,0l0,0l0,0l0,0l0,0l0,0l-0.018-0.019l-0.018-0.019l-0.018-0.018h-0.018h-0.018l-0.018-0.018h-0.018h-0.018h-0.018
	l-0.038-0.035l-0.038-0.074l0.038-0.151l0.113-0.019l0.301-0.074l0.188-0.027l0.113-0.037l0.113-0.038l0.113-0.038l0.075-0.037
	l0.15-0.037l0.076-0.038l0.075-0.038l0.075-0.037l0.075-0.037l0.075-0.038l0.076-0.038l0.113-0.113l0.075-0.112l-0.018-0.019
	l0.15-0.15l0.035-0.028l0.036-0.028l0.036-0.027l0.038-0.025l0.038-0.025l0.038-0.023l0.038-0.023l0.038-0.021l0.339-0.15
	l0.018-0.019l0.018-0.019l0.018-0.018l0.018-0.018l0.018-0.019l0.018-0.018l0.018-0.019l0.018-0.018l0.018-0.018h0.019l0.15-0.151
	l0.075-0.075l0.075-0.075l0.038-0.075l0.038-0.075l0.038-0.075l0.038-0.076l0.264-0.496v-0.075l-0.15-0.452l-0.036-0.338
	l-0.038-0.34l0.018-0.15v-0.035v-0.037v-0.035v-0.037v-0.035v-0.036v-0.038v-0.037v-0.037v-0.038v-0.038v-0.037V296.4l-0.038-0.15
	l-0.025-0.037l-0.027-0.037l-0.031-0.038l-0.03-0.038l-0.035-0.037l-0.027-0.075l-0.226-0.264l-0.036-0.112l1.032-0.652l0.075-0.074
	l0.226-0.381l0.037-0.113l0.036-0.112l0.038-0.112l0.038-0.113l0.075-0.339v-0.038v-0.037v-0.038v-0.038v-0.037l0.02-0.15
	l0.025-0.15l0.028-0.15l0.036-0.15l0.038-0.539l0.113-0.188l-0.15-0.592l0.113-0.037l0.339-0.15l0.038-0.027l0.038-0.029l0.038-0.03
	l0.038-0.03l0.038-0.033l0.038-0.033l0.038-0.037l0.226-0.032l0.301-0.112l0.076-0.076l0.075-0.074l0.075-0.076l0.075-0.075
	l0.075-0.075l0.188-0.075l0.392-0.019l0.301-0.037l0.264-0.113l0.264-0.15l0.376-0.301l0.075-0.113v-0.226v-0.038v-0.037v-0.038
	v-0.038v-0.037v-0.037v-0.038v-0.038l0.036-0.112l0.075-0.112l0.264-0.227l0.15-0.113l0.15-0.112l0.151-0.113l0.226-0.112
	l0.151-0.113l0.15-0.113l0.15-0.113l0.113-0.033l0.512-0.418l0.226-0.227l0.038-0.074l0.038-0.189l0.018-0.018l0.018-0.018
	l0.018-0.019l0.018-0.019v-0.018v-0.018v-0.019v-0.018v-0.019v-0.018v-0.019v-0.019v-0.018v-0.15l-0.027-0.075l0.884-0.188
	l0.696-0.075l0.7-0.075l1.6-0.113l0.752-0.075l0.674-0.112"/>
<path id="miguelhidalgo" inkscape:connector-curvature="0" fill="#CCCCCC" stroke="#FFFFFF" stroke-width="0.2141" d="
	M130.719,214.809L130.719,214.809l1.031-0.802l0.414-0.188l0.376-0.038l0.561,0.075l0.685,0.151l0.677,0.188l0.572-0.038
	l0.603-0.226l0.971-0.994l0.783-0.452l0.429-0.338l0.188-0.339l0.384-1.024l0.027-0.719l-0.113-0.696v-0.485l0.418-0.339
	l0.602-0.384l0.516-0.151l1.551-0.038l0.817-0.188l0.836-0.396l1.005-0.41l0.617-0.226l0.376,0.018l0.376,0.023l0.376,0.03
	l0.561-0.075l0.806-0.301l1.091-0.264l1.495-0.264l0.602,0.027l0.746,0.15l0.805,0.025l1.062-0.188l1.189-0.376l4.248-1.374
	l0.572-0.188l0.832-0.263l0.945-0.339l0.64-0.264l0.99-0.463l0.907-0.339l0.915-0.339l2.624-0.602l1.558-0.264l4.116-0.384
	l0.576-0.075l0.9-0.151l3.181-1.34l1.351-0.188l2.451-0.376l2.308-0.226l-0.516,1.675l-0.038,0.264v0.376l0.226,0.339l1.163,1.415
	l0.851,1.525l0.828,2.059l2.45,0.031l2.108-0.561l2.059-0.7l2.315-0.339l0.264,0.188l0.599-0.188l6.426-1.863l1.498-0.44
	l-0.948-3.354l-5.61-1.89l-6.776-2.379l2.127-3.463l4.018-7.333l0.022-3.245l0.018-0.719l3.771-5.718l3.795-6.274l0.994-1.506
	l2.736-5.372l1.291-6.123l0.151-1.656l0.553-3.765l0.15-0.546l-1.091-0.188l-3.166-0.602l-5.363-0.854l-3.617-0.606l-1.216-0.226
	l-4.563-0.756l-4.577-0.956l0.467-2.869l-2.586-0.817v-0.839l0.151-4.642l-5.017-1.359l-4.666-1.34l-0.824,0.038l-2.198,0.685
	l-2.259,1.095l-0.535,0.113l-0.704,1.032h-1.174l-0.832,0.749l-0.828,0.858l-0.301,1.073l-0.798-0.076l-1.378,4.318l1.133,0.403
	l-1.235,1.687l-0.459,1.743l-0.625,1.814l-1.626,2.074l-0.809,0.523l-0.998,0.595l-1.306,0.425l-0.614,3.659l0.031,1.735l0.15,1.088
	l0.339,0.798l0.693,0.632l0.805,0.456l-1.095,0.395l-0.862,0.226l-0.889,0.339l-2.59,1.913l-1.348,0.666l-0.926,0.704l-0.628,0.376
	l-0.482,0.474l-0.376,0.583l0.301,0.572l0.376,0.418l0.264,0.617l-0.15,0.591l-0.113,0.591l0.113,0.376l0.975,0.606l0.113,0.467
	l-0.301,1.16l-0.301,1.167l2.654,1.426l0.806,0.339l0.384,0.527l-0.301,1.449l-0.542-0.038l-0.538-0.038l-0.542-0.029l-0.768,0.433
	l-0.414,0.474l-0.384,0.851l-0.467,0.376l-0.459,0.38l-0.474,0.922l-0.599,0.564l-0.599,0.632l-0.53,0.456l-0.535,0.264
	l-1.269,1.269l-0.644,0.681l-0.339,0.806l-0.188,0.67l-0.692,0.681l-0.58,0.388l-0.554,0.501l-0.338,0.497l-0.384,0.742l-0.576,0.61
	l-0.376,0.651l-0.264,0.538l-0.301,0.516l-0.44,0.301l-0.591,0.15l-0.433,0.113l-0.893-0.151l-0.659-0.075l-1.396,0.535
	l-1.186,0.621l-1.02,0.685l-0.998,0.527l-1.212,0.339l-0.557,0.226l-0.892,0.076l-0.952,0.527l-0.531,0.52l-0.888,0.263
	l-0.501,0.768l-0.644,0.632l-0.745,0.264l-0.625,0.456l-0.456,0.263l-0.448,0.264l-0.44,0.301l-0.599,0.478l-0.301,0.719
	l-0.038,0.38l0.113,0.301l0.018,0.508l0.018,0.113l0.15,0.816l-0.075,0.64v0.15l0.038,0.301l0.038,0.301v0.425l-0.038,0.485
	l-0.075,0.422l-0.151,0.474l-0.263,0.433l-0.384,0.376l-1.058,0.915l-0.809,0.557l-0.61,0.388l-0.599,0.407l-0.038,0.188
	l0.031,0.376l0.113,0.301l0.263,0.557l0.075,0.263l0.151,0.151l0.188-0.113l0.151-0.15l0.226-0.113l0.264-0.027l0.263-0.02
	l0.264-0.018l0.433-0.038l0.226-0.075l0.264-0.188l0.553-0.301l0.226-0.076l0.41-0.037l0.403-0.113l0.113-0.113l0.226-0.226
	l0.075-0.226l-0.489-0.471l0.018-0.263l0.188-0.113l0.264,0.264l1.054,0.881l0.263,0.395l1.242,0.151l0.301-0.076l0.264-0.15
	l0.301-0.075h0.651l0.226,0.075l0.226,0.075l0.226,0.075l0.301-0.037l0.452-0.339l0.437-0.339l0.339-0.075l0.41,0.021l0.301,0.113
	l0.226,0.338v0.44l-0.339,0.407l-0.301,0.572l-0.493,0.557l-0.376,0.655l-0.113,0.376v0.843l0.113,2.036l0.226,0.376l0.663,0.794"/>
<path id="milpaalta" inkscape:connector-curvature="0" fill="#CCCCCC" stroke="#FFFFFF" stroke-width="0.2141" d="M335.96,366.804
	L335.96,366.804l-24.666,5.64l-32.822,7.252l-0.301,0.188l-0.264,0.113l-0.264,0.227l-0.737,0.074l-0.61,0.021l-0.41-0.074
	l-0.302-0.113l-0.225-0.15l-0.189-0.15l-0.188-0.076l-0.188-0.018l-0.188,0.075l-0.112,0.151l-0.113,0.263l-0.075,0.497
	l-0.075,0.806l-0.075,0.226l-0.075,0.113l-0.075,0.113l-0.076,0.112l-0.074,0.112l-0.076,0.113l-0.112,0.113l-0.188,0.028
	l-0.707-0.019l-0.227,0.031l-1.084,0.264l-0.5,0.113l-0.151-0.02l-0.301,0.018l-0.038,0.113l-0.037,0.075l-0.037,0.075l-0.038,0.075
	l-0.151,0.188l-0.021,0.034l-0.021,0.036l-0.018,0.034l-0.018,0.036l-0.019,0.037l-0.019,0.036l-0.018,0.038l-0.018,0.037
	l-0.019,0.038L270,383.965l0.188,0.498l-0.264,0.553l-0.075,0.227l-0.037,0.439l-0.674-0.188l-0.568,1.973l-0.705-0.113
	l-0.188,2.209l-0.113,0.301l-0.113,0.038L265.1,391.4l-0.302,0.94l-0.44,0.688l-5.413,10.013l-17.552,31.964l-2.198,4.004
	l-5.78-2.574l-0.422-0.151l-0.422-0.15l-0.338-0.15l-0.227-0.15l-0.188-0.15l-0.227-0.264l-0.339-0.501l-0.522-0.609l-0.151-0.302
	l-0.15-0.301l-0.15-0.301l-0.113-0.302l-0.226-0.376l-0.418-0.81l-0.301-0.501l-0.264-0.504l-0.188-0.339l-0.226-0.264l-0.771-0.783
	l-0.302-0.188l-1.2-0.651l-0.41-0.226l-0.264-0.113l-0.377-0.075l-0.376-0.113l-0.587-0.075l-1.341-0.112l-2.202,9.05l-0.512,8.161
	l-2.394,6.424l-7.788,16.814l15.624,15.827l11.564,12.493l0.93,0.486l11.748,6.165l14.357,7.332l12.639,6.658l13.742,6.938
	l16.685,8.74l15.59-25.384l14.129-9.271l10.246,1.472l12.313,1.924l4.122,0.655l5.398,0.737l8.978,1.058l5.696,4.478l6.274-5.589
	l1.604-1.021l1.046-0.636l1.604-1.065l0.94-1.524l1.818-2.691l0.73-1.611l0.037-0.625l0.075-0.692l0.075-0.688l0.339-0.606
	l0.264-0.692l0.44-0.538l0.828-1.077l0.595-1.141l0.339-1.117l0.226-1.205l0.7-2.232l0.644-2.856l0.188-1.449l0.075-1.938v-1.201
	l0.15-0.802l0.113-1.671l-0.15-1.355l0.376-3.742l0.562-3.878l-0.113-1.046l-0.264-1.043l-1.269-2.345l-0.392-1.465l-0.226-1.354
	l-0.075-1.536l-0.264-1.532l-1.242-1.923l-2.13-3.961l-2.409-3.513l-1.394-2.856l13.552-4.377l-2.135-2.312l-4.844-5.646
	l-0.516-0.58l-4.946-5.569l5.698-1.42l8.004-2.333l-0.485-1.442l-0.485-1.328l-0.791-1.394l-0.674-1.596l-0.79-1.569l-1.017-0.745
	l-1.559-1.228l-1.095-1.435l-2.04-2.138l-3.008-2.861l-0.264-1.423l-0.998-2.925l0.038-1.468l-0.15-1.713l-0.188-4.703l-8.817-0.15
	l-0.15-2.3l-0.029-0.113l-0.03-0.113l-0.036-0.112l-0.037-0.113l-0.038-0.075l-0.075-0.113l-0.113-0.074l-0.112-0.076l-0.113-0.075
	l-0.433-0.448l-0.188-0.481l-0.037-0.075l-0.038-0.075l-0.037-0.075l-0.038-0.076l-0.037-0.074l-0.038-0.076l-0.113-0.15
	l-0.188-0.113l-0.339-0.112l-2.602-4.013l-0.188,0.15l-0.226,0.075l-0.15-0.075l-0.113-0.15l-0.226-0.497l1.208-2.488l1.57-4.119
	l0.771,0.075l-11.292-9.99l-0.263,0.075l-0.076-0.112l-0.075-0.264l-2.436-0.396l-0.075-0.554l-1.604-0.075l-0.075,0.761
	l-0.376,1.103l-0.535-0.112l0.113-0.547l-0.264-0.112l-1.2-0.112l0.226-1.141l1.092-0.543l0.075-0.226l-2.255,0.038l-0.15,0.504
	l-0.226,0.418l-0.558,0.877l-0.188,0.402l-0.112,0.033l-0.188-0.019l-0.188-0.026l-0.112-0.038h-0.021h-0.02h-0.021h-0.021h-0.02
	h-0.021h-0.02h-0.021h-0.021h-0.021h-0.02l-0.075,0.026l-27.33,0.513"/>
<path id="tlahuac" inkscape:connector-curvature="0" fill="#CCCCCC" stroke="#FFFFFF" stroke-width="0.2141" d="M335.96,366.804
	L335.96,366.804l27.329-0.513l0.075-0.026h0.02h0.022h0.02h0.021h0.02h0.021h0.021h0.02h0.021h0.02h0.021l0.112,0.038l0.188,0.026
	l0.188,0.019l0.112-0.033l0.188-0.402l0.558-0.877l0.226-0.418l0.15-0.504l2.255-0.038l-0.075,0.226l-1.092,0.543l-0.226,1.141
	l1.2,0.112l0.264,0.112l-0.112,0.547l0.534,0.112l0.376-1.103l0.075-0.761l1.604,0.075l0.075,0.554l2.436,0.396l0.075,0.264
	l0.075,0.112l0.264-0.075l11.291,9.99l-0.771-0.075l-1.57,4.119l-1.208,2.488l0.226,0.497l0.113,0.15l0.112,0.075l0.227-0.075
	l0.188-0.15l2.602,4.013l0.339,0.112l0.188,0.113l0.112,0.15l0.038,0.076l0.037,0.074l0.038,0.076l0.037,0.075l0.038,0.075
	l0.037,0.075l0.188,0.481l0.433,0.448l0.113,0.075l0.112,0.076l0.113,0.074l0.075,0.113l0.038,0.075l0.037,0.112l0.036,0.113
	l0.03,0.113l0.029,0.113l0.15,2.3l8.816,0.15l-0.188-4.595l-0.188-0.93l-0.113-1.111l0.188-0.76l0.399-1.852l-0.806-2.839
	l3.678-2.04l2.085-1.849l3.44-0.392l1.189-0.338l0.772-0.076l0.771,0.113l0.704-0.15l0.79-0.301l0.84-0.377l1.37-1.058l7.592,2.142
	l2.312-6.701l-3.96-1.359l-8.368-2.869l-14.16-4.652l2.466-16.853l-1.818-0.775l-2.36-0.613l-1.712-0.497l-2.323-0.633l-0.986-0.338
	l0.151-1.092l0.15-0.535l0.112-0.534l0.075-0.579l0.151-0.513l0.188-0.979l-0.021-0.512l0.113-0.671l0.188-1.494l0.15-0.938
	l0.113-0.914l0.188-1.205l0.113-1.092l0.376-2.607l0.151-0.625l0.188-0.982l0.075-0.979l0.264-1.07l0.075-0.857l0.113-0.858
	l0.226-1.046l0.264-1.54l0.625-3.229l0.226-1.607l0.384-1.961l0.482-2.809l0.226-1.069l0.15-1.562l0.576-2.877l0.376-2.341
	l0.227-1.987l0.41-2.139l0.339-2.676l0.437-2.654l0.188-1.092l0.376-0.074l0.753-0.038l0.493-0.15l0.658-0.399l0.264-0.226
	l0.227-0.264l0.15-0.339l0.112-0.398l0.113-0.558l0.301-1.517l0.188-1.069l0.075-1.671l0.15-1.228l0.377-2.454l0.188-0.301
	l0.263-0.302l0.264-0.339l0.264-0.264l0.339-0.443l0.226-0.399l0.226-0.264l0.381-0.38l0.188-0.301l0.188-0.302l0.188-0.302
	l0.376-0.398l0.614-0.873l0.595-0.885l0.226-0.188l0.226-0.188l0.227-0.188l-0.655-0.629l-1.547-1.189l-0.471-0.418l-6.777-0.15
	l-0.907,1.088l-0.475-0.339l-1.133,0.188l-0.956-0.938l-2.951-0.113l-1.337,1.265l-1.72-0.632l-0.019,0.339l-0.075,0.226
	l-0.037,0.113l-0.038,0.113l-0.075,0.113l-0.075,0.113l-0.188,0.188l-0.263,0.15l-0.339,0.113l-0.264,0.038l-0.302-0.023
	l-0.376-0.113l-0.226-0.113l-0.188-0.188l-0.075-0.226l0.018-0.226l0.227-0.396l0.538-0.493l0.226-0.226l-0.037-0.113l-0.938-0.076
	l-17.132-0.414l-3.136,0.038l-2.021,0.606l-27.837,8.095l-1.909,0.475l-4.584,1.299l-3.223,3.113l-1.505-1.28l-1.269,1.521
	l-1.043-0.742l-0.692,0.076l-1.047,1.313l-0.264-0.188l-0.264-0.188l-0.263-0.188l-0.621-0.456l-1.57,1.912l-1.43-1.035l-5.223,6.24
	l-3.335-1.105l-1.02,2.928l-0.264,0.828l0.15,0.904l0.629,1.144l0.496,1.005l0.557,0.817l0.076,0.075l0.376,1.577l0.565,1.618v1.514
	l-3.362,3.561l-1.155,1.238l-0.475,0.377l-2.138,2.281l-0.019,0.02l4.289,2.669l2.334,0.899l2.172,0.761l1.615,0.52l0.455,0.112
	l0.456,0.113l0.952,0.15l0.376-0.018h0.113l0.455,0.075h0.388l0.572,0.15l0.41,0.151l0.407,0.188l0.443,0.227l0.227,0.074
	l0.226,0.076l0.226,0.112l0.188,0.113l0.44,0.15l0.433,0.264l0.227,0.075l1.042,0.633l0.746,0.383l0.564,0.34l0.226,0.15
	l0.948,0.188l5.551,1.83l0.753,0.301l1.604,1.031l1.731,0.535l0.745,0.496l0.377,0.406l1.942,2.861l0.226,0.227l0.425,0.264
	l0.339,0.428l1.002,1.032l0.64,0.749l0.113,0.075l0.226,0.599l0.075,0.7l0.113,0.263l0.417,0.302l0.479,0.226l0.471,0.264
	l0.15,0.018h0.15h0.15h0.151l0.922,0.038l0.188,0.075l0.188,0.038l0.188,0.038l0.58-0.113l0.15-0.113h0.15l0.817,0.188l0.733,0.226
	l0.15,0.037l0.151,0.038l0.15,0.038l0.591,0.15l0.264,0.075l0.264,0.075l0.263,0.075l0.188,0.036l0.188,0.037l0.188,0.038
	l0.188,0.038l0.407,0.074l0.595,0.031h0.112l0.113-0.018l0.112-0.019l0.113-0.019l0.113-0.021l0.112-0.025l0.113-0.028l1.886,0.696
	l1.021,0.402l0.301,0.227l0.038,0.075l0.037,0.075l0.038,0.075l0.037,0.075l0.038,0.037l0.075,0.038l1.811,0.716l0.264,0.15
	l0.406,0.264l0.583,0.538l0.475,0.609l0.15,0.302l0.113,0.414l0.15,0.226l0.226,0.226l1.378-4.023l6.071,2.01l-3.482,5.878
	l0.018,0.188l0.505,0.636l-0.388,0.339l1.031,1.389l0.81,1.043l0.075,0.188l-0.704-0.376l-0.226,0.508l-0.426,1.058l-0.402,1.065
	l-0.227,0.553l-0.226,0.546l-0.075,0.188l-0.075,0.188l-0.075,0.189l-0.339,0.786l-0.396,0.806l-0.301,0.564l0.504,0.264
	l-0.112,0.188l-0.075,0.113l-0.019,0.019l-0.018,0.019l-0.019,0.018l-0.018,0.018l-0.019,0.018l-0.018,0.019l-0.019,0.019
	l-0.018,0.018l-0.019,0.018v0.019v0.019v0.018v0.018v0.019l-0.037,0.026l-0.038,0.025l-0.037,0.023l-0.038,0.021l-0.037,0.021
	l-0.038,0.019h-0.595l-0.037,0.113l-0.038,0.112l-0.037,0.113l-0.075,0.113l-0.075,0.113l-0.434,0.225l-0.264,0.189l-0.188,0.338
	l-0.075,0.377l-0.188,0.188l-0.301,0.035l-0.339,0.15l-0.075,0.037l-0.076,0.037l-0.075,0.038l-0.075,0.038l-0.613-0.035
	l-0.264-0.112l-0.025-0.019l-0.022-0.018l-0.023-0.018l-0.022-0.019l-0.022-0.019L352,354.77l-0.021-0.018l-0.02-0.019l-0.226-0.188
	l-0.019-0.188l0.019-0.227l-0.019-0.188l0.15-1.189l0.075-0.302l0.076-0.339l0.075-0.338l0.037-0.377l-0.113-0.455l-0.037-0.038
	l-0.038-0.038l-0.037-0.037l-0.038-0.075l-0.036-0.075l-0.034-0.076l-0.032-0.074l-0.188-0.15l-0.884-0.227l-0.264-0.034
	l-0.388,0.64l-0.377,1.16l-5.034,5.737l-8.625,9.306"/>
<path id="tlalpan" inkscape:connector-curvature="0" fill="#CCCCCC" stroke="#FFFFFF" stroke-width="0.2141" d="M241.367,435.107
	L241.367,435.107l-0.908-0.038l-0.768-0.075l-0.301-0.15l-0.188-0.264l-0.15-0.339l-0.113-0.447l-0.112-0.55l-0.038-0.798v-0.858
	l-0.038-1.822v-0.692l0.038-0.802l0.226-0.938l0.113-0.376l0.226-0.55l0.505-1.017l0.975-1.596l0.301-0.949l0.076-0.636l0.037-1.404
	l-0.339-1.973v-0.496l0.075-0.41l0.188-0.513l0.188-0.512v-0.264l-0.113-0.188l-0.264-0.302l-0.301-0.422l-0.075-0.15l-0.113-0.15
	l-0.112-0.15l-0.34-0.613l-0.037-0.188l-0.037-0.188l-0.076-0.188l-0.112-0.226l-0.226-0.264l-0.377-0.549l-0.113-0.302l-0.074-0.52
	v-0.15v-0.15v-0.15l0.018-0.15l0.018-0.151h-0.018l0.226-0.93l0.075-0.64l0.038-0.15l0.038-0.15l0.074-0.151l0.076-0.15l0.074-0.15
	l0.076-0.15l0.188-0.264l0.188-0.264l0.188-0.264l0.377-0.467l0.188-0.338l0.037-0.113l0.038-0.15l0.038-0.113l0.035-0.15
	l0.038-0.264l0.038-0.264l0.074-0.226l0.025-0.075l0.031-0.075l0.03-0.075l0.034-0.075l0.035-0.075l0.037-0.076l0.037-0.075
	l0.339-0.339l0.392-0.188l0.227-0.151l0.112-0.226l0.15-0.112l0.302-0.302l0.301-0.301l0.301-0.302l0.301-0.376l0.113-0.188
	l0.113-0.188l0.113-0.188l0.074-0.302l-0.037-0.263l-0.037-0.113l-0.038-0.113l-0.075-0.112l-0.075-0.113l-0.075-0.112l-0.301-0.302
	l-0.452-0.339l-0.46-0.339l-1.121-1.076l-0.599-0.771l-0.188-0.422l-0.074-0.301l-0.019-0.407l0.021-0.226l-0.019-0.422l0.076-0.301
	l0.467-1.348l0.018-0.302l-0.035-0.376l-0.074-0.188l-0.113-0.338l-0.037-0.34l0.074-0.301l0.227-0.226l0.301-0.188l0.188-0.226
	l0.038-0.036l0.029-0.15v-0.227l0.029-0.188l0.023-0.188l0.018-0.226l-0.022-0.188l0.226-0.663l-0.02-0.225l-0.075-0.264
	l0.022-0.264l-0.076-0.264l-0.15-0.227l0.398-1.986l-0.625-0.15l-0.037-0.34l-0.113-0.188l-0.035-0.033l-0.036-0.035l-0.034-0.037
	l-0.033-0.037l-0.03-0.037l-0.028-0.038l-0.029-0.038l-0.113-0.018l-0.553,0.038h-0.023l-0.021-0.019l-0.021-0.018l-0.022-0.019
	l-0.02-0.019l-0.02-0.018l-0.021-0.018l-0.02-0.018l-0.02-0.019v-0.075l0.037-0.15l0.15-0.15l0.076-0.264v-0.227l-0.038-0.112
	l-0.038-0.113l-0.033-0.112l-0.031-0.113l-0.074-0.188l-0.038-0.301v-0.188l0.15-0.481l0.414-0.501l0.226-0.15l0.434-0.406
	l0.112-0.188l0.019-0.151l-0.029-0.545l-0.018-0.15v-0.188l0.028-0.151l0.075-0.112l-0.903-0.64l-0.226,0.15l-0.113,0.113
	l-0.113,0.074l-0.112,0.076l-0.226,0.075l-0.339,0.038l-0.376-0.076l-0.264-0.188l-0.076-0.076l-0.074-0.074l-0.076-0.076
	l-0.075-0.074l-0.075-0.076l-0.075-0.075l-0.075-0.075l-0.113-0.025l-0.037,0.018l0,0l0,0l0,0l0,0l0,0l0,0l0,0l0,0l0,0l0,0l0,0l0,0
	l0,0l0,0l-0.019,0.029l-0.019,0.029l-0.018,0.029l-0.018,0.027l-0.019,0.031l-0.019,0.031v0.03l-0.033,0.263l-0.038,0.264
	l-0.075,0.771l-0.038,0.076l-0.038,0.018h-0.263l-0.151-0.025l-0.613-0.074l-0.338-0.113l-0.34,0.226l-0.225,0.112l-0.189,0.076
	l-0.188,0.037l-0.188,0.037l-0.188,0.038l-0.516,0.113h-0.301h-0.301h-0.302l-0.666-0.031l-0.302-0.112l-0.301-0.113l-0.301-0.113
	l-0.52-0.188l-0.584-0.264l-0.113-0.035l-0.301-0.035h-0.447l-0.994-0.076h-2.963l-1.559,0.037l-1.088,0.037h-0.02h-0.021h-0.02
	h-0.02h-0.02l-0.021,0.018h-0.019l-0.02,0.019l-0.15,0.113l-0.553,0.587l-0.151,0.113l-0.038,0.018l-0.024-0.018l-0.024-0.019
	h-0.025l-0.022-0.018l-0.023-0.019l-0.022-0.018l-0.021-0.018l-0.021-0.019l-0.021-0.019l-0.021-0.018l-0.02-0.018l-0.301-0.264
	l-0.033-0.037l-0.034-0.038l-0.036-0.038l-0.037-0.037l-0.038-0.037l-0.038-0.037l-0.03-0.018l-0.028-0.018l-0.033-0.019
	l-0.03-0.019l-0.032-0.018l-0.033-0.018l-0.031-0.019l-0.035-0.019l-0.034-0.018l-0.075-0.112l-0.075-0.113l-0.075-0.112
	l-0.076-0.113l-0.15-0.075l-0.406-0.302l-0.113-0.037l0.227,1.148l-0.264-0.34l-0.339-0.414l-0.376-0.402l-0.388-0.479l-0.61-0.624
	l-0.226-0.264l-0.188-0.15l-0.15-0.151l-0.15-0.15l-0.151-0.15l-0.263,0.588l-0.742-0.399l-0.561-0.772l-0.188-0.188l-0.113-0.188
	l-0.113-0.189l-0.113-0.15l-0.226-0.384l-0.075-0.226l-0.188-0.264l-0.339-0.037l-0.151-0.019l-0.301-0.112l-0.151-0.031
	l-0.15-0.027l-0.15-0.023l-0.539-0.15l-0.113-0.037l-0.113-0.037l-0.113-0.076l-0.113-0.075l-0.113-0.15l-0.029-0.075l0.076-0.075
	l0.075-0.075l0.188-0.113l0.226-0.188h0.021h0.02h0.021h0.02h0.021h0.022h0.021h0.02h0.021h0.022h0.021h0.02h0.021l0.075-0.113
	v-0.301l0.151-0.113l0.338-0.035l0.504-0.338l0.188-0.15l0.075-0.076l0.075-0.074l0.075-0.076l0.076-0.075l0.075-0.075l0.075-0.075
	l0.113-0.15l0.113-0.188l0.021-0.226l0.113-0.376l0.075-0.151l0.025-0.112l0.027-0.113l0.032-0.113l0.035-0.113l0.038-0.112
	l0.075-0.339l0.075-0.339l0.113-0.339l0.113-0.264l0.15-0.301l0.188-0.301l-0.188-0.621l-0.264-0.972l-0.15-0.459l-0.188-1.242
	l-0.076-1.031l-0.113-0.513l-0.113-0.225l-0.113-0.227l-0.113-0.226l-0.113-0.226l-0.113-0.227l-0.226-0.338l-0.226-0.34
	l-0.038-0.03l-0.226-0.301l-0.075-0.151l-0.076-0.15l-0.075-0.15l-0.263-0.301l-0.113-0.15l-0.113-0.188l-0.339-0.712l-0.429-0.433
	l-0.113-0.112l-0.113-0.038l-0.027-0.023l-0.027-0.024l-0.025-0.025l-0.025-0.027l-0.023-0.027l-0.024-0.028l-0.075-0.188
	l-0.018-0.113l0.022-0.112l0.018-0.038l0.075-0.075l0.113-0.034l0.038-0.075l0.038-0.075l0.038-0.075l0.038-0.075l0.15-0.55
	l0.301-0.753l0.263-0.43l0.076-0.028h0.113l0.188-0.034l0.113-0.075l0.076-0.301l-0.339-0.388l-0.113-0.15l-0.029-0.076
	l-0.032-0.074l-0.034-0.076l-0.036-0.074l0.075-0.189l0.15-0.112l0.403-0.075l0.986-0.023l-0.113-0.227l-0.113-0.112l-0.226-0.188
	l-0.075-0.075l-0.188-0.075l-0.15-0.113l-0.038-0.074l-0.029-0.302v-0.429l0.036-0.264l0.15-0.546l0.15-0.226l0.226-0.264l0.15-0.15
	l0.264-0.227l0.226-0.301l0.076-0.188l0.113-0.776l0.038-0.591l0.018-0.226l0.018-0.226l0.023-0.227l0.113-0.576l0.038-0.15
	l0.036-0.15l0.031-0.15l0.075-0.15l0.029-0.038l0.038-0.037l0.038-0.038l0.038-0.037l0.038-0.038l0.038-0.037l0.038-0.038
	l0.038-0.075l0.038-0.075l0.038-0.075l0.038-0.112l0.075-0.531l0.15-1.431l0.113-0.112l0.113-0.113l0.113-0.113l0.113-0.113
	l0.113-0.15l0.075-0.15l0.075-0.15l0.075-0.188l0.033-0.113l0.031-0.113l0.027-0.113l0.023-0.112l0.075-0.188l0.188-0.339
	l0.023,0.019l0.023,0.018l0.024,0.018l0.023,0.019l0.021,0.019l0.02,0.018l0.021,0.018l0.02,0.019l0.02,0.019l0.018,0.018
	l0.018,0.02l0.188,0.113l0.226,0.188l0.553,0.43l0.113,0.113l0.151,0.112l0.15,0.075l0.151,0.076l0.301,0.188l0.151,0.037
	l0.15,0.038l0.151,0.038l0.15,0.037l0.15,0.037l0.512,0.151l0.264,0.112l0.075,0.076l0.075,0.074l0.113,0.076l0.113,0.075
	l0.112,0.075l0.226,0.226l0.189,0.264l0.112,0.188l0.188,0.41l0.264-0.021l0.112,0.037h0.437l0.076,0.033l0.074,0.03l0.076,0.027
	l0.074,0.025l0.076,0.022h0.113l0.15-0.037l0.707-0.264l0.15-0.113l0.15-0.112l0.151-0.112l0.15-0.113l0.376-0.15l0.264-0.076
	l0.15-0.023l0.023-0.018l0.021-0.018l0.021-0.019l0.022-0.018l0.021-0.019l0.022-0.018l0.02-0.018l0.02-0.019l0.437-0.716
	l0.948-1.878l0.15-0.075l0.407-0.113l0.989-0.376l0.264-0.113l0.264-0.226l0.018-0.227v-0.225v-0.227l0.038-0.188l1.355-2.334
	l0.075-0.076l0.075-0.074l0.075-0.076l0.037-0.075l0.189-0.339l0.188-0.338v-0.34l0.188-0.636l-0.226-1.859l-0.023-0.038
	l-0.023-0.037l-0.025-0.036l-0.027-0.036l-0.029-0.036l-0.028-0.034l-0.03-0.032l-0.031-0.032v-0.076l0.075-0.112l0.226-0.226
	l0.113-0.227l0.025-0.188l-0.037-0.302l-0.113-0.188l-0.188-0.15l-0.339-0.226l-0.414-0.339l-0.388-0.226l-0.15-0.113l-0.113-0.075
	l-0.075-0.075l-0.075-0.075l-0.075-0.075l-0.075-0.075l-0.302-0.15l-0.027-0.021l-0.026-0.022l-0.027-0.022l-0.024-0.023
	l-0.025-0.024l-0.023-0.024l-0.023-0.025l-0.021-0.027l-0.076-0.15l-0.025-0.15v-0.339l0.151-0.485l0.038-0.227l0.037-0.226
	l0.032-0.226l-0.188-1.532l-0.075-0.534l-0.038-0.113l-0.376-0.605l-0.038-0.302l-0.188-0.595l0.025-0.188l-0.038-0.302l-0.112-0.15
	l-0.15-0.038l0.15-0.737l-0.15,0.019l-0.399-0.019l-0.58-0.075l-0.376-0.076l0.075-0.512l0.112-0.301l0.076-0.15l0.074-0.15
	l0.076-0.15l0.113-0.151l0.112-0.15l0.112-0.15l0.302-0.03l0.151-0.038l0.15-0.075l0.112-0.113l0.075-0.264l0.113-0.188l0.226-0.15
	l0.151-0.15l0.15-0.264l0.226,0.037l0.075-0.075l0.075-0.038l0.112-0.225l0.113-0.385l0.113-0.395l0.075-0.399l0.112-0.264
	l0.113-0.264l0.113-0.263l0.037-0.189l0.038-0.188l0.075-0.188l-0.5-0.112l-0.038-0.479v-0.188l-0.021-0.076l-0.034-0.301
	l-0.038-0.301l-0.038-0.15l-0.188-0.264l-0.037-0.113l-0.027-0.15v-0.301l0.035-0.471l-0.018-0.113l-0.338-0.188l-0.113-0.112
	l0.075-0.113v-0.031l0.019-0.032v-0.032v-0.034v-0.032v-0.033v-0.033v-0.033v-0.034v-0.112v-0.113v-0.113v-0.113v-0.15l-0.038-0.301
	v-0.15v-0.15l0.038-0.113l0.037-0.037l0.15-0.018h0.075h0.075h0.076h0.074l0.076,0.018h0.188l0.113-0.038l0.075-0.112l0.038-0.189
	l0.376-2.924h0.075l0.339,0.075l0.802,0.112l0.787,0.076l0.15,0.033l0.447,0.035l0.934-0.038l0.93-0.075l0.885-0.113l0.923-0.188
	l0.794-0.227l4.885-1.358l2.537-0.761l0.941-0.264l0.554-0.264l5.251-2.273l5.469-2.27l7.861-3.361l2.883-1.208l0.264-2.951
	l0.188-1.601h-1.242l-1.344,0.113l-2.842,0.15l-1.535,0.113l-0.438,0.018l-0.733-0.15l-0.798-0.226l-0.807-0.188l-0.809-0.188
	l-0.641-0.15l-0.646-0.151l-0.806-0.226l-3.351-0.82l-1.023-0.264l-0.941-0.264l-2.07-0.711l-2.458-0.896l-0.881-0.377l-5.81-2.521
	l-1.705-0.727l-1.017-0.406l-0.546,0.688l-5.347,5.866l-1.558,1.565l-1.725-0.632l-1.227-0.396l-0.863-0.15l-0.533-0.02
	l-0.772,0.075l-0.301,0.151l-1.476,1.121l-0.15,0.075l-0.227,0.075l-0.264,0.113l-0.074,0.075l-0.189,0.302l-0.074,0.263
	l-0.558,0.339l-0.075,0.188l-4.7,1.021l-0.802-1.021l-1.039-1.219l-0.339-0.377l-0.41-0.338l-0.493-0.34l-0.263-0.15l-0.411-0.264
	l-0.301-0.15l-1.088-0.301l-1.781-0.339l-3.196-0.493l-3.5-0.471l-2.149-0.264l-5.188-0.575l-0.888-0.038l-0.775,0.027l-4.964,0.644
	l-2.285,0.188l-4.155,0.463l-0.723,0.075l-0.474,0.018h-0.475h-0.474l-0.828-0.15l-0.55-0.15l-0.734-0.264l-1.476-0.745
	l-1.385-0.746l-3.117-1.068l-2.04-0.339l-1.393-0.226l-1.969-0.377l-0.779-0.113l-2.044-0.463l-0.889-0.15l-0.791-0.188
	l-1.317-0.475l-0.794-0.384l-0.576-0.426l-0.456-0.414l-0.421-0.417l-0.44-0.555l-0.862-1.144l-0.674,0.112l-0.752,0.076l-1.6,0.113
	l-0.7,0.074l-0.696,0.076l-0.885,0.188l0.027,0.076v0.15v0.018v0.018v0.018v0.019v0.019v0.018v0.019v0.019v0.018L152,286.08
	l-0.018,0.018l-0.018,0.019l-0.018,0.019l-0.038,0.188l-0.038,0.076l-0.226,0.225l-0.512,0.418l-0.113,0.035l-0.15,0.113
	l-0.15,0.112l-0.151,0.112l-0.226,0.113l-0.151,0.113l-0.15,0.113l-0.15,0.112l-0.264,0.226l-0.075,0.113l-0.036,0.113v0.037v0.037
	v0.038v0.038v0.037v0.037v0.038v0.038v0.226l-0.075,0.112l-0.376,0.302l-0.264,0.15l-0.264,0.113l-0.301,0.038l-0.392,0.018
	l-0.188,0.075l-0.075,0.075l-0.075,0.075l-0.075,0.075l-0.075,0.076l-0.076,0.074l-0.301,0.113l-0.226,0.032l-0.038,0.036
	l-0.038,0.035l-0.038,0.031l-0.038,0.031l-0.038,0.031l-0.038,0.027l-0.038,0.027l-0.339,0.15l-0.113,0.038l0.15,0.591l-0.113,0.188
	l-0.038,0.538l-0.036,0.15l-0.029,0.15l-0.025,0.151l-0.02,0.15v0.038v0.037v0.037v0.038v0.038l-0.075,0.338l-0.038,0.113
	l-0.038,0.113l-0.036,0.113l-0.038,0.112l-0.226,0.384l-0.075,0.076l-1.032,0.65l0.036,0.113l0.226,0.264l0.027,0.074l0.035,0.038
	l0.03,0.038l0.031,0.037l0.027,0.038l0.025,0.038l0.038,0.15v0.074v0.038v0.038v0.037v0.037v0.038v0.038v0.035v0.037v0.035v0.036
	v0.036v0.036l-0.018,0.151l0.038,0.338l0.036,0.339l0.15,0.452v0.075l-0.264,0.497l-0.038,0.074l-0.038,0.076l-0.038,0.075
	l-0.038,0.075l-0.075,0.075l-0.075,0.075l-0.151,0.15h-0.018l-0.018,0.019l-0.018,0.019l-0.018,0.018l-0.018,0.018l-0.018,0.019
	l-0.018,0.019l-0.018,0.018l-0.018,0.018l-0.018,0.018l-0.339,0.151l-0.038,0.021l-0.038,0.023l-0.038,0.023l-0.038,0.024
	l-0.038,0.025l-0.036,0.027l-0.036,0.029l-0.035,0.028l-0.15,0.151l0.018,0.018l-0.075,0.113l-0.113,0.112l-0.076,0.038
	l-0.075,0.037l-0.075,0.037l-0.075,0.038l-0.076,0.038l-0.075,0.037l-0.15,0.038l-0.075,0.038l-0.113,0.037l-0.113,0.037
	l-0.113,0.038l-0.188,0.026l-0.301,0.076l-0.113,0.018l-0.038,0.15l0.038,0.076l0.038,0.033h0.018h0.018h0.018l0.018,0.019h0.018
	h0.018l0.018,0.019l0.018,0.018l0.018,0.018l0,0l0,0l0,0l0,0l0,0l0,0l0,0l0,0l0,0l0,0l0,0l0,0l0,0l0,0l0,0l0,0l0,0l0,0l0,0
	l-0.038,0.038h-0.038l-0.301,0.075l-0.338,0.15l-0.264,0.038l-0.339-0.112l-0.15-0.076l-0.301-0.075l-0.113-0.034l-0.151-0.034
	h-0.075l-0.339,0.019l-0.339,0.025l-0.338,0.037l-0.463,0.15l-0.376,0.15h-0.263l-0.151,0.018l-0.301-0.037l-0.151,0.113
	l-0.437,0.377l-0.226,0.225l-0.188,0.189l-0.188,0.188l-0.188,0.188l-0.15,0.226l-0.075,0.227l-0.113,0.225l-0.113,0.227
	l-0.113,0.402l-0.113,0.406l-0.018,0.227l0.038,0.418l0.076,0.264l0.113,0.338l0.188,0.418h0.025l0.376,0.188l0.075,0.075
	l0.188,0.15l0.301,0.392l0.73,0.794l0.15,0.227l0.027,0.113l-0.027,0.225l-0.376,0.227l-0.038,0.037l-0.226,0.15l-0.075,0.076
	l-0.188,0.188l-0.038,0.227l-0.038,0.188l-0.038,0.188l-0.038,0.188l-0.075,0.113l-0.075,0.188l-0.018,0.019l-0.018,0.019
	l-0.018,0.018l-0.018,0.018l-0.018,0.018l-0.018,0.019l-0.018,0.019l-0.018,0.018l-0.018,0.018l-0.018,0.019l-0.018,0.019
	l-0.019,0.018l-0.226,0.188l-0.264,0.302l-0.113,0.263l-0.018,0.151l0.075,0.112l0.151,0.15l0.338,0.302l0.188,0.112l0.038,0.075
	v0.037v0.038v0.038v0.037v0.038v0.038l-0.226,0.074l-0.226,0.113l-0.422,0.188l-0.113,0.075l-0.113,0.075l-0.113,0.075l-0.113,0.037
	l-0.018,0.019l-0.018,0.019l-0.018,0.018l-0.018,0.018l-0.018,0.019l-0.018,0.019l-0.018,0.018l-0.018,0.018l-0.018,0.019
	l-0.019,0.019l-0.018,0.018h-0.018l-0.018,0.018l-0.038,0.188v0.038l0.226,0.398l0.075,0.15l-0.188,0.15l-0.188,0.151l-0.188,0.15
	l-0.794,0.599l-0.075,0.15l-0.151,1.114l-0.15,0.727l-0.113,0.73v0.376l0.075,0.301l0.263,0.151l0.301,0.075l0.301,0.113
	l0.339,0.226l0.226,0.188l0.188,0.391l-0.038,0.113l-0.038,0.113l-0.038,0.113l-0.038,0.112l-0.264,0.444l-0.038,0.15l-0.038,0.15
	l-0.038,0.15l-0.038,0.15l-0.018,0.027l-0.188,0.493l-0.038,0.075l-0.038,0.076l-0.038,0.074l-0.038,0.076l0.437,0.576l0.075,0.225
	v0.471l0.036,0.41l-0.018,0.151v0.036v0.036v0.036v0.035v0.037v0.037v0.018v0.018v0.019v0.019v0.018v0.018v0.019v0.019v0.018v0.018
	v0.019v0.019l-0.02,0.074l0.02,0.188l0.075,0.339v0.15l-0.263,0.339l-0.151,0.188l-0.113,0.075l-0.113,0.112l-0.113,0.113
	l-0.113,0.113l-0.113,0.075l-0.188,0.226l-0.113,0.113l-0.188,0.226l-0.512,0.651l-0.113,0.188l-0.15,0.112l0.018,0.765
	l-0.076,0.188l-0.226,0.15l-0.647,0.301l-0.075,0.188l-0.035,0.339v0.301l0.151,0.227l0.339,0.263l0.301,0.151l0.301,0.15
	l0.264,0.188l0.15,0.227l0.031,0.112l0.025,0.113l0.02,0.112l0.018,0.113l0.018,0.113l-0.026,0.395l-0.038,0.15l-0.038,0.151
	l-0.036,0.15l-0.029,0.15l-0.113,0.264l-0.075,0.112l-0.075,0.113l-0.076,0.113l-0.075,0.113l-0.301,0.301l-0.15,0.075l-0.376,0.264
	l0.036,0.112l0.188,0.227l0.301,0.301l0.301,0.227l0.188,0.188l0.226,0.15l0.301,0.076l0.264-0.019l0.339-0.113l0.188-0.188
	l0.301-0.226l0.113,0.075l0.075,0.227l0.018,0.376l-0.113,0.302l-0.188,0.15l-0.188,0.15l-0.188,0.113l-0.264,0.225l-0.188,0.264
	l-0.075,0.264l0.038,0.227l0.263,0.264l0.151,0.225l0.075,0.264l-0.075,0.302l-0.151,0.188l-0.113,0.301v0.113l0.339,0.541
	l0.263,0.264l-0.113,0.188l0.075,0.188l0.018,0.339l-0.036,0.467l-0.263,0.388l-0.113,0.338l-0.019,0.418l0.038,0.547l-0.113,0.508
	l-0.038,0.075l-0.028,0.15L133,341.854l-0.038,0.037l-0.038,0.035l-0.038,0.034l-0.038,0.034l-0.038,0.031l-0.038,0.03l-0.038,0.028
	l-0.038,0.027l-0.15,0.15l-0.264,0.339l-0.031,0.075l-0.034,0.076l-0.036,0.074l-0.036,0.076l-0.038,0.074l-0.038,0.038
	l-0.113,0.075l-0.263,0.075l-0.339,0.038l-0.226,0.075l-0.15,0.112l-0.15,0.15l-0.226,0.555l-0.075,0.263l-0.113,0.226l-0.113,0.227
	l-0.188,0.226l-0.264,0.226l-0.564,0.264l-0.456,0.301l-0.113,0.113l-0.076,0.15l-0.029,0.264l-0.038,0.188l-0.038,0.188
	l-0.036,0.188l-0.029,0.188l-0.023,0.188l-0.151,0.264l-0.113,0.15l-0.113,0.15l-0.076,0.15l-0.075,0.15l-0.188,0.264l-0.038,0.113
	l-0.038,0.113l-0.038,0.112l-0.075,0.112l-0.076,0.113l-0.075,0.075l-0.075,0.075l-0.264,0.301l-0.15,0.076l0.113,0.226l0.113,0.226
	l0.113,0.227l0.075,0.301l0.027,0.301l-0.188,0.998l-0.399,1.039l-0.113,0.264l-0.376,0.523l-0.151,0.301l-0.075,0.264l-0.038,0.338
	v0.55l-0.075,0.64l-0.075,0.264l-0.076,0.15l-0.226,0.264l-0.376,0.227l-0.301,0.264l-0.384,0.338l-0.376,0.377l-0.339,0.301
	l-0.339,0.339l-0.564,0.681l-0.226,0.113l-1.137,0.377l-0.226,0.15l-0.113,0.301l-0.113,0.264l-0.264,0.377l-0.263,0.15
	l-0.264,0.226l-1.329,0.599l-0.58,0.264l-0.151,0.037l-0.15,0.038l-0.188,0.036l-0.188,0.03l-0.376,0.112l-0.407,0.189l-0.263,0.15
	l-0.376,0.15L116,362.554l-1.17,0.188l-0.301,0.112l-0.339,0.188l-0.339,0.188l-0.226,0.151l-0.151,0.226l-0.113,0.402l-0.113,0.264
	l-0.15,0.188l-0.226,0.188l-0.854,0.527l-0.708,0.579l-0.851,0.564l-0.384,0.113l-0.523,0.075l-0.338,0.15l-0.188,0.188
	l-0.038,0.112l-0.038,0.113l-0.038,0.113l-0.038,0.15l-0.15,0.075l-0.226,0.075l-0.226,0.075l-0.188,0.113l-0.263,0.15l-0.226,0.302
	l-0.339,0.398l-0.339,0.264l-0.504,0.38l-0.301,0.188l-0.113,0.188l-0.075,0.227v0.264l0.038,0.264l-0.018,0.338l-0.075,0.264
	l0.018,0.339l-0.038,0.636l-0.075,0.264l-1.088,1.352l-0.264,0.227l-0.301,0.15l-0.113,0.028l-0.075,0.075l-0.075,0.113v0.113
	l-0.018,0.112l-0.018,0.113l-0.021,0.112l-0.113,0.227l-0.497,0.545l-0.151,0.113l-0.15,0.113l-0.15,0.113l-0.188,0.112
	l-0.429,0.376l-0.542,0.151l-0.538,0.15l-0.339,0.112l-0.407,0.076l-0.602,0.037l-0.603,0.033l-0.15,0.112l-0.264,0.264l-0.406,0.15
	l-0.376,0.038h-0.339l-0.264-0.076l-0.075-0.037l-0.075-0.037l-0.075-0.038l-0.075-0.038l-0.075-0.037l-0.076-0.037l-0.263-0.151
	l-0.188-0.075l-0.188-0.075l-0.188-0.038l-0.338-0.037l-0.264,0.032l-0.339,0.113l-0.15,0.075l-0.151,0.075l-0.15,0.075
	l-0.113,0.075l-0.113,0.075l-1.509-0.15l-0.881-0.113l-1.058-0.226l-0.994-0.572l-0.339-0.112l-0.448,0.226l-0.455,0.226
	l-0.459,0.188l-0.564,0.188l-0.226,0.037l-0.188-0.075l-0.839-0.851l-0.301-0.82l-0.429-0.716l-0.339-0.417l-0.339-0.34
	l-0.263-0.226l-0.339-0.226l-0.38-0.15l-0.429-0.15l-0.376-0.076l-0.339,0.025l-0.339,0.019h-0.339l-0.576,0.038h-0.339
	l-0.746-0.151l-0.452-0.15l-0.96-0.437l-0.301-0.339l-0.301-0.422l-0.264-0.571l-0.075-0.227l-0.113-0.188l-0.264-0.264
	l-0.621-0.377l-1.284-0.816l-0.715-0.43l-0.531-0.339l-0.599-0.402l-0.226-0.226l-0.188-0.15l-0.226-0.076l-0.226-0.188
	l-0.226-0.188l-0.226-0.188l-0.516-0.414l-0.617-0.264l-0.301-0.188l-0.263-0.188l-0.038-0.038l-0.038-0.037l-0.038-0.038
	l-0.038-0.038l-0.038-0.037l-0.075-0.037l-0.339-0.15l-0.301-0.076h-0.576l-0.188-0.037h-0.151l-0.15-0.018l-0.15-0.019
	l-0.151-0.021l-0.489-0.301l-0.452-0.113l-0.15-0.112l-0.301-0.302l-0.339-0.301l-0.339-0.301l-0.113-0.779l0.113,0.91l-0.113,1.337
	l-0.452,1.562l0.018,1.024l0.459,1.197l0.376,0.798l2.112,2.184l1.491,1.275l1.517,1.344l1.088,0.791l0.711,0.816l0.809,0.795
	l0.953,5.557l1.091,5.711l1.596,8.668l0.038,0.688l0.437,1.396l0.64,0.799l0.52,0.376l0.425,0.463l0.15,0.757l0.376,1.51
	l0.407,0.775l1.619,4.66l3.237,8.896l2.721,6.721l3.158,8.185l2.82,7.119l3.105,7.63l2.8,7.655l5.923,3.995l10.241,6.98
	l10.306,6.581l10.592,7.092l13.488,8.532l11.279,1.249l13.288,0.878l14.463,1.2l17.04,1.269l15.775,1.325l12.895,1.419l1.592,0.836
	l-11.564-12.493l-15.624-15.827l7.788-16.815l2.394-6.424l0.512-8.161l2.203-9.05l1.34,0.113l0.587,0.075l0.376,0.112l0.377,0.075
	l0.264,0.113l0.41,0.226l1.201,0.651l0.301,0.188l0.771,0.783l0.226,0.263l0.188,0.339l0.264,0.505l0.301,0.501l0.418,0.809
	l0.226,0.377l0.113,0.301l0.15,0.301l0.15,0.302l0.151,0.301l0.522,0.61l0.339,0.5l0.227,0.264l0.188,0.15l0.227,0.151l0.338,0.15
	l0.422,0.15l0.426,0.15l5.78,2.575l2.198-4.004"/>
<path id="venustianoc" inkscape:connector-curvature="0" fill="#CCCCCC" stroke="#FFFFFF" stroke-width="0.2141" d="
	M245.446,197.814L245.446,197.814l3.309-0.58l1.183-0.226l1.178-0.226l0.949-0.113l0.594-0.034l1.276,0.018l1.058-0.025l1.555-0.188
	l1.072-0.188l7.85-1.683l5.03-0.971l1.114-0.226l0.264-0.264l0.226-0.034l0.376,0.021l0.377,0.018l0.621,0.113l0.674,0.226
	l5.092,0.689l4.217,0.606l4.662,0.719l1.336-0.018l0.535-0.188l0.67-0.399l0.621-0.76l0.572-1.133l0.971-1.638l2.029-3.508
	l0.99-1.302l1.724-2.699l0.81-1.122l0.426-0.226l0.703-0.226l0.742-0.036h8.031l1.435-0.15l1.031-0.497l0.753-0.76l0.02-0.188
	l4.652-10.397l3.249-7.529l-3.512-7.959l-0.076,0.113l-0.338,0.151l-0.264,0.226l-1.096,1.141l-2.47,0.896l-0.534,0.226
	l-1.171,0.376l0.038,0.188l-0.459,0.188l-0.113-0.15l-4.063,1.517l-0.873-0.264l-3.801-1.348l-0.459,0.151l-0.828,0.038
	l-10.706-3.647l-0.339,0.021l-0.482,0.075l-2.382,1.683l-3.734,2.451l-0.7-0.956l-1.705-1.619l-2.428-2.259l-0.546-0.474
	l-0.437-0.226l-0.546-0.113l-0.478-0.02l-0.637,0.075l-3.629,1.468l-0.715,0.264l-0.986,0.03l-0.655-0.113l-4.35-1.574l-2.425-0.93
	l-0.188-0.038v-0.02v-0.02v-0.02v-0.02v-0.02v-0.02v-0.02v-0.018v-0.02v-0.02l-0.076-0.025l-0.074,0.075l-0.027,0.038l-2.522-0.918
	l-2.01-1.555l-3.219-2.533l-1.245-0.433l-3.453-1.148l-1.05,1.63l-1.407,5.81l-0.49,1.069l-0.376,1.374l-0.15,1.404l0.15,0.625
	l0.903,1.362l0.949,1.969l0.674,0.881l-0.422,2.962l-1.781,11.499l-0.484,3.983l-0.52,1.091l-0.625,1.638l-0.572,3.343l-0.393,2.755
	l0.34,0.376l0.113,0.948l0.301,1.321l0.703,2.041l0.302,1.174l0.226,0.986l0.377,2.055"/>
<path id="xochimilco" inkscape:connector-curvature="0" fill="#CCCCCC" stroke="#FFFFFF" stroke-width="0.2141" d="M241.367,435.107
	L241.367,435.107l17.551-31.965l5.414-10.012l0.439-0.688l0.302-0.941l2.353-1.498l0.113-0.038l0.112-0.301l0.188-2.209l0.703,0.112
	l0.568-1.973l0.674,0.188l0.038-0.44l0.075-0.226l0.264-0.554l-0.188-0.497l0.035-0.264l0.019-0.037l0.019-0.037l0.018-0.038
	l0.018-0.036l0.019-0.037l0.018-0.037l0.019-0.033l0.021-0.037l0.021-0.034l0.15-0.188l0.037-0.074l0.038-0.076l0.038-0.075
	l0.037-0.112l0.301-0.019l0.15,0.021l0.501-0.113l1.085-0.264l0.225-0.03l0.709,0.019l0.188-0.029l0.113-0.113l0.075-0.113
	l0.075-0.112l0.075-0.113l0.075-0.112l0.075-0.113l0.075-0.227l0.076-0.805l0.074-0.497l0.113-0.264l0.113-0.15l0.188-0.075
	l0.188,0.018l0.188,0.076l0.188,0.15l0.227,0.15l0.301,0.113l0.41,0.074l0.61-0.021l0.737-0.074l0.264-0.227l0.264-0.113
	l0.301-0.188l32.822-7.251l24.666-5.641l8.624-9.306l5.035-5.738l0.376-1.158l0.388-0.641l0.264,0.034l0.885,0.226l0.188,0.15
	l0.032,0.076l0.034,0.075l0.036,0.075l0.037,0.075l0.038,0.038l0.037,0.037l0.038,0.037l0.113,0.456l-0.038,0.376l-0.075,0.34
	l-0.075,0.338l-0.075,0.301l-0.15,1.19l0.018,0.188l-0.018,0.226l0.018,0.188l0.226,0.188l0.021,0.018l0.021,0.019l0.021,0.019
	l0.023,0.018l0.021,0.018l0.023,0.019l0.023,0.019l0.025,0.018l0.264,0.113l0.613,0.034l0.075-0.038l0.075-0.037l0.075-0.037
	l0.075-0.038l0.339-0.151l0.302-0.033l0.188-0.188l0.076-0.376l0.188-0.34l0.264-0.188l0.433-0.227l0.075-0.112l0.076-0.113
	l0.037-0.112l0.037-0.113l0.038-0.113h0.595l0.038-0.018l0.037-0.021l0.038-0.021l0.037-0.023l0.038-0.025l0.037-0.027v-0.018
	v-0.019v-0.019v-0.018v-0.018l0.019-0.019l0.018-0.019l0.019-0.018l0.018-0.018l0.019-0.019l0.018-0.019l0.018-0.018l0.019-0.018
	l0.018-0.018l0.075-0.113l0.113-0.188l-0.504-0.264l0.301-0.564l0.396-0.806l0.339-0.787l0.075-0.188l0.075-0.188l0.075-0.188
	l0.226-0.545l0.226-0.551l0.403-1.064l0.425-1.059l0.227-0.508l0.704,0.377l-0.076-0.188l-0.805-1.042l-1.032-1.39l0.388-0.339
	l-0.504-0.637l-0.019-0.188l3.482-5.878l-6.071-2.011l-1.378,4.024l-0.226-0.226l-0.15-0.227l-0.113-0.414l-0.15-0.301l-0.475-0.609
	l-0.583-0.539l-0.406-0.263l-0.264-0.151l-1.811-0.715l-0.075-0.037l-0.038-0.037l-0.037-0.076l-0.038-0.075l-0.037-0.075
	l-0.038-0.075l-0.301-0.226l-1.021-0.403l-1.886-0.696l-0.112,0.029l-0.113,0.024l-0.113,0.022l-0.112,0.018l-0.113,0.018
	l-0.113,0.018h-0.112l-0.595-0.029l-0.407-0.076l-0.188-0.037l-0.188-0.037l-0.188-0.038l-0.188-0.036l-0.264-0.075l-0.264-0.075
	l-0.264-0.075l-0.591-0.15l-0.15-0.038l-0.15-0.037l-0.151-0.038l-0.733-0.226l-0.817-0.188h-0.15l-0.15,0.113l-0.58,0.15
	l-0.188-0.038l-0.188-0.037l-0.188-0.075l-0.922-0.038h-0.15h-0.151h-0.15l-0.15-0.018l-0.467-0.264l-0.478-0.226l-0.418-0.302
	l-0.113-0.264l-0.075-0.699l-0.226-0.6l-0.113-0.074l-0.64-0.75l-1.002-1.031l-0.338-0.429l-0.426-0.264l-0.226-0.226l-1.942-2.861
	l-0.377-0.406l-0.745-0.496l-1.735-0.535l-1.604-1.031l-0.753-0.301l-5.55-1.83l-0.949-0.188l-0.226-0.151l-0.564-0.339
	l-0.746-0.384l-1.042-0.632l-0.226-0.076l-0.434-0.264l-0.44-0.15l-0.226-0.112l-0.226-0.112l-0.227-0.076l-0.226-0.075
	l-0.444-0.226l-0.406-0.188l-0.41-0.15l-0.572-0.151h-0.384l-0.456-0.074h-0.112l-0.377,0.018l-0.952-0.15l-0.455-0.113
	l-0.456-0.113l-1.614-0.519l-2.172-0.761l-2.334-0.899l-4.289-2.669l0.018-0.02l-2.758-2.553l-0.34-0.338l-0.488-0.34l-0.302-0.188
	l-0.226-0.113l-0.15-0.113l-0.113-0.037l-0.113-0.037l-0.113-0.076l-0.112-0.075l-0.075-0.075l-0.463-0.339l-0.188-0.226
	l-0.339-0.301l-2.318-2.816l-1.479-1.833l-4.678-5.727l-2.737-3.188l-0.549-0.696l-1.973-2.368l-0.188-0.226l-0.188-0.226
	l-0.188-0.264l-0.377-0.426l-0.264-0.414l-1.987-2.48l-1.431-1.656l-1.095-1.358l-0.226-0.302l-0.302-0.338l-0.339-0.422
	l-0.188-0.227l-0.188-0.226l-0.188-0.226l-0.188-0.227l-0.189-0.225l-0.188-0.227l-0.504-0.798l-0.151-0.565l-0.038-0.225
	l-0.074-0.562l-0.385,3.222l-0.564,6.24l-0.226,3.076l-0.226-0.075l-0.505,5.424l-0.075,0.696l-0.188,1.6l-0.263,2.951l-2.884,1.209
	l-7.86,3.361l-5.469,2.27l-5.252,2.273l-0.553,0.264l-0.941,0.264l-2.537,0.76l-4.885,1.355l-0.795,0.226l-0.922,0.188l-0.885,0.113
	l-0.93,0.074l-0.93,0.038l-0.448-0.034l-0.15-0.034l-0.786-0.075l-0.803-0.113l-0.338-0.075h-0.076l-0.376,2.925l-0.038,0.188
	l-0.075,0.112l-0.112,0.038h-0.189l-0.074-0.018h-0.076h-0.074h-0.076h-0.075l-0.15,0.018l-0.038,0.038l-0.037,0.112v0.151v0.15
	l0.037,0.301v0.15v0.113v0.113v0.112v0.112v0.035v0.032v0.034v0.032v0.032v0.035v0.031l-0.018,0.033v0.031l-0.075,0.112l0.112,0.113
	l0.34,0.188l0.018,0.112l-0.036,0.471v0.302l0.026,0.15l0.038,0.112l0.188,0.264l0.037,0.15l0.038,0.302l0.034,0.301l0.021,0.075
	v0.188l0.037,0.479l0.501,0.112l-0.075,0.188l-0.037,0.188l-0.038,0.188l-0.112,0.264l-0.113,0.263l-0.113,0.264l-0.075,0.399
	l-0.112,0.396l-0.113,0.384l-0.113,0.188l-0.075,0.037l-0.075,0.076l-0.227-0.038l-0.15,0.263l-0.15,0.151l-0.226,0.15l-0.112,0.188
	l-0.076,0.264l-0.113,0.112l-0.15,0.075l-0.15,0.038l-0.301,0.03l-0.113,0.15l-0.113,0.15l-0.112,0.15l-0.075,0.151l-0.075,0.15
	l-0.075,0.15l-0.113,0.302l-0.075,0.512l0.376,0.075l0.58,0.075l0.398,0.018l0.189-0.018l-0.151,0.738l0.151,0.037l0.112,0.15
	l0.038,0.301l-0.025,0.188l0.188,0.595l0.038,0.301l0.376,0.606l0.038,0.113l0.075,0.534l0.188,1.532l-0.032,0.226l-0.038,0.227
	l-0.038,0.226l-0.15,0.485v0.339l0.025,0.15l0.076,0.151l0.021,0.025l0.023,0.025l0.023,0.025l0.024,0.023l0.025,0.023l0.027,0.023
	l0.026,0.021l0.027,0.021l0.301,0.151l0.076,0.075l0.075,0.075l0.075,0.075l0.075,0.075l0.112,0.075l0.151,0.113l0.388,0.226
	l0.414,0.339l0.339,0.227l0.188,0.15l0.112,0.188l0.038,0.301l-0.025,0.189l-0.113,0.225l-0.226,0.227l-0.075,0.113v0.074
	l0.03,0.033l0.03,0.032l0.029,0.034l0.029,0.036l0.026,0.036l0.025,0.036l0.023,0.038l0.023,0.037l0.226,1.859l-0.188,0.633v0.338
	l-0.188,0.34l-0.188,0.338l-0.037,0.076l-0.076,0.074l-0.074,0.076l-0.076,0.075l-1.355,2.333l-0.037,0.189v0.225v0.227L230,344.505
	l-0.264,0.226l-0.264,0.113l-0.99,0.377l-0.406,0.112l-0.15,0.075l-0.949,1.879l-0.437,0.715l-0.021,0.018l-0.02,0.019l-0.021,0.019
	l-0.021,0.018l-0.021,0.018l-0.021,0.019l-0.021,0.019l-0.023,0.018l-0.15,0.023l-0.264,0.075l-0.377,0.15l-0.15,0.112l-0.15,0.113
	l-0.15,0.113l-0.15,0.113l-0.708,0.264l-0.188,0.037h-0.113l-0.074-0.023l-0.076-0.025l-0.075-0.027l-0.075-0.03l-0.075-0.032
	h-0.437l-0.113-0.038l-0.264,0.022l-0.188-0.41l-0.113-0.189l-0.188-0.263l-0.227-0.226l-0.113-0.076l-0.112-0.074l-0.113-0.076
	l-0.075-0.075l-0.075-0.075l-0.264-0.113l-0.512-0.15l-0.151-0.037l-0.15-0.038l-0.15-0.038l-0.151-0.037l-0.15-0.037l-0.301-0.188
	l-0.15-0.075l-0.151-0.076l-0.15-0.112l-0.113-0.112l-0.554-0.43l-0.188-0.188l-0.188-0.113l-0.018-0.02l-0.018-0.019l-0.02-0.019
	l-0.02-0.018l-0.021-0.018l-0.02-0.019l-0.022-0.019l-0.023-0.018l-0.023-0.018l-0.024-0.018l-0.023-0.019l-0.188,0.339
	l-0.075,0.188l-0.023,0.113l-0.027,0.113l-0.03,0.113l-0.033,0.112l-0.075,0.188l-0.075,0.15l-0.076,0.15l-0.113,0.15l-0.113,0.113
	l-0.113,0.113l-0.113,0.112l-0.113,0.112l-0.15,1.432l-0.076,0.53l-0.038,0.112l-0.038,0.076l-0.038,0.075l-0.038,0.075
	l-0.038,0.037l-0.038,0.038l-0.038,0.038l-0.038,0.037l-0.038,0.037l-0.038,0.038l-0.029,0.038l-0.075,0.15l-0.03,0.15l-0.036,0.15
	l-0.038,0.15l-0.113,0.576l-0.023,0.226l-0.018,0.226l-0.018,0.227l-0.038,0.591l-0.113,0.775l-0.075,0.188l-0.226,0.301
	l-0.264,0.227l-0.15,0.15l-0.226,0.264l-0.15,0.225l-0.151,0.547l-0.036,0.264v0.429l0.029,0.301l0.038,0.075l0.15,0.113
	l0.188,0.075l0.075,0.075l0.226,0.188l0.113,0.112l0.113,0.227l-0.986,0.023l-0.403,0.074l-0.15,0.113l-0.075,0.188l0.036,0.075
	l0.034,0.075l0.033,0.075l0.029,0.076l0.113,0.15l0.339,0.387l-0.075,0.302l-0.113,0.075l-0.188,0.034h-0.113l-0.075,0.029
	l-0.264,0.429l-0.301,0.753l-0.15,0.55l-0.038,0.075l-0.038,0.075l-0.038,0.076l-0.038,0.074l-0.113,0.035l-0.076,0.074
	l-0.018,0.038l-0.021,0.112l0.018,0.113l0.075,0.188l0.024,0.028l0.023,0.027l0.025,0.027l0.025,0.025l0.027,0.025l0.027,0.023
	l0.113,0.037l0.113,0.113l0.429,0.433l0.339,0.712l0.113,0.188l0.113,0.15l0.264,0.302l0.075,0.15l0.075,0.15l0.076,0.151
	l0.226,0.301l0.038,0.03l0.226,0.339l0.226,0.339l0.113,0.226l0.113,0.227l0.113,0.225l0.113,0.227l0.113,0.226l0.113,0.513
	l0.075,1.031l0.188,1.242l0.15,0.459l0.264,0.971l0.188,0.621l-0.188,0.301l-0.151,0.302l-0.113,0.264l-0.113,0.339l-0.076,0.338
	l-0.075,0.34l-0.038,0.112l-0.034,0.113l-0.032,0.112l-0.027,0.113l-0.025,0.113l-0.075,0.15l-0.113,0.377l-0.022,0.225
	l-0.113,0.189l-0.113,0.15l-0.076,0.074l-0.075,0.076l-0.075,0.075l-0.075,0.075l-0.075,0.075l-0.076,0.075l-0.188,0.15l-0.504,0.34
	l-0.339,0.033l-0.15,0.113v0.301l-0.076,0.113h-0.021h-0.02h-0.021h-0.022h-0.021h-0.02h-0.021h-0.021h-0.021h-0.02h-0.021h-0.02
	h-0.021l-0.226,0.188l-0.188,0.113l-0.075,0.076l-0.075,0.074l0.029,0.076l0.113,0.15l0.113,0.075l0.113,0.075l0.113,0.037
	l0.113,0.038l0.539,0.15l0.15,0.023l0.15,0.027l0.151,0.03l0.301,0.113l0.15,0.018l0.339,0.037l0.188,0.264l0.075,0.227l0.226,0.384
	l0.113,0.15l0.113,0.188l0.113,0.188l0.188,0.188l0.561,0.772l0.742,0.398l0.263-0.588l0.151,0.151l0.15,0.15l0.15,0.151l0.188,0.15
	l0.226,0.264l0.61,0.624l0.388,0.478l0.376,0.403l0.339,0.414l0.264,0.339l-0.227-1.148l0.113,0.038l0.406,0.301l0.15,0.075
	l0.076,0.113l0.074,0.113l0.076,0.112l0.074,0.113l0.035,0.019l0.034,0.018l0.032,0.018l0.032,0.019l0.032,0.019l0.031,0.018
	l0.032,0.018l0.028,0.018l0.031,0.019l0.037,0.036l0.038,0.037l0.038,0.038l0.035,0.038l0.035,0.037l0.032,0.037l0.301,0.264
	l0.021,0.019l0.021,0.019l0.021,0.018l0.021,0.018l0.021,0.019l0.021,0.019l0.023,0.018l0.023,0.018h0.025l0.023,0.019l0.025,0.019
	l0.037-0.019l0.15-0.113l0.554-0.587l0.151-0.113l0.02-0.018h0.018l0.02-0.019h0.02h0.021h0.02h0.021h0.021l1.088-0.038l1.559-0.035
	h2.962l0.993,0.075h0.448l0.302,0.036l0.112,0.034l0.583,0.263l0.52,0.189l0.302,0.112l0.302,0.112l0.301,0.113l0.666,0.031h0.301
	h0.302h0.301l0.516-0.113l0.188-0.037l0.188-0.037l0.189-0.039l0.188-0.074l0.227-0.113l0.338-0.227l0.34,0.113l0.613,0.076
	l0.15,0.024h0.264l0.037-0.019l0.037-0.074l0.076-0.771l0.037-0.264l0.035-0.264v-0.031l0.018-0.03l0.018-0.03l0.018-0.029
	l0.019-0.029l0.019-0.028l0.018-0.028l0,0l0,0l0,0l0,0l0,0l0,0l0,0l0,0l0,0l0,0l0,0l0,0l0,0l0,0l0.037-0.019l0.113,0.025
	l0.076,0.075l0.074,0.075l0.076,0.075l0.075,0.076l0.075,0.074l0.075,0.076l0.075,0.074l0.264,0.189l0.377,0.074l0.338-0.037
	l0.227-0.075l0.112-0.075l0.113-0.076l0.112-0.112l0.227-0.15l0.903,0.64l-0.075,0.113l-0.029,0.15v0.188l0.019,0.151l0.028,0.55
	l-0.018,0.15l-0.113,0.188l-0.433,0.407l-0.226,0.15l-0.414,0.501l-0.15,0.481v0.188l0.037,0.301l0.075,0.188l0.03,0.112
	l0.035,0.113l0.037,0.113l0.037,0.113v0.226l-0.075,0.263l-0.15,0.151l-0.038,0.15v0.075l0.021,0.018l0.02,0.019l0.021,0.018
	l0.02,0.019l0.02,0.018l0.021,0.019l0.021,0.019l0.021,0.018h0.023l0.554-0.037l0.112,0.018l0.029,0.037l0.029,0.038l0.03,0.038
	l0.032,0.037l0.035,0.036l0.035,0.036l0.036,0.032l0.112,0.188l0.038,0.339l0.625,0.15l-0.399,1.987l0.15,0.227l0.076,0.263
	l-0.021,0.264l0.075,0.264l0.02,0.226l-0.226,0.662l0.023,0.227l-0.019,0.226l-0.022,0.188l-0.029,0.188v0.227l-0.031,0.15
	l-0.037,0.036l-0.188,0.226l-0.301,0.188l-0.226,0.226l-0.076,0.301l0.038,0.34l0.112,0.338l0.076,0.188l0.034,0.376l-0.019,0.302
	l-0.463,1.348l-0.075,0.301l0.019,0.418l-0.021,0.227l0.018,0.406l0.075,0.301l0.188,0.422l0.602,0.771l1.122,1.076l0.459,0.339
	l0.452,0.339l0.301,0.302l0.075,0.112l0.075,0.113l0.076,0.113l0.037,0.112l0.037,0.113l0.038,0.264l-0.075,0.301l-0.113,0.188
	l-0.113,0.188l-0.112,0.188l-0.302,0.377l-0.301,0.301l-0.301,0.301l-0.301,0.302l-0.15,0.112l-0.113,0.227l-0.227,0.15
	l-0.391,0.188l-0.34,0.338l-0.037,0.076l-0.037,0.075l-0.035,0.075l-0.033,0.075l-0.031,0.075l-0.03,0.075l-0.024,0.075
	l-0.076,0.226l-0.037,0.264l-0.038,0.264l-0.036,0.15l-0.037,0.113l-0.037,0.15l-0.038,0.113l-0.188,0.339l-0.377,0.467
	l-0.188,0.263l-0.188,0.264l-0.188,0.264l-0.074,0.15l-0.076,0.15l-0.075,0.151l-0.075,0.15l-0.037,0.15l-0.038,0.15l-0.075,0.64
	l-0.227,0.93h0.019l-0.019,0.151l-0.018,0.15v0.15v0.15v0.15l0.075,0.52l0.113,0.302l0.376,0.55l0.227,0.263l0.112,0.227
	l0.075,0.188l0.038,0.188l0.038,0.188l0.338,0.613l0.113,0.15l0.113,0.15l0.074,0.151l0.302,0.425l0.264,0.302l0.112,0.188v0.264
	l-0.188,0.512l-0.188,0.513l-0.075,0.41v0.497l0.339,1.972l-0.038,1.404l-0.075,0.633l-0.301,0.948l-0.976,1.596l-0.504,1.017
	l-0.227,0.55l-0.112,0.376l-0.226,0.938l-0.037,0.802v0.692l0.037,1.822v0.858l0.037,0.798l0.113,0.554l0.113,0.447l0.15,0.339
	l0.188,0.264l0.302,0.15l0.769,0.075l0.906,0.038"/>
</svg>
