<?xml version="1.0" encoding="utf-8"?>
<!-- Generator: Adobe Illustrator 16.0.3, SVG Export Plug-In . SVG Version: 6.00 Build 0)  -->
<!DOCTYPE svg PUBLIC "-//W3C//DTD SVG 1.1//EN" "http://www.w3.org/Graphics/SVG/1.1/DTD/svg11.dtd">
<svg version="1.1" id="_x2018_лой_x5F_1" xmlns="http://www.w3.org/2000/svg" xmlns:xlink="http://www.w3.org/1999/xlink"
	 x="0px" y="0px" width="3000px" height="2000px" viewBox="0 0 3000 2000" enable-background="new 0 0 3000 2000"
	 xml:space="preserve">
<rect x="0.576" y="1.595" fill="#F6DAE6" width="3000" height="2000"/>
<g>
	<path fill="#EDCCE4" d="M249.574,1991.451c0,0-364.808-363.233-132.486-790.368C349.41,773.95,661.157,988.898,646.243,491.657
		C631.329-5.584,1363.566-48.058,1596.586,96.198c233.021,144.256,231.557,317.9,712.729,260.608
		c481.171-57.292,572.918,421.671,447.655,665.715c-177.728,346.262,492.822,289.364,70.073,969.792L249.574,1991.451z"/>
	<path fill="#E3D6E7" d="M2509.021,788.155c0,35.343-3.28,69.97-9.574,103.593c-15.131,80.67-47.577,155.459-93.501,220.64
		c-106.677,151.471-286.051,250.875-489.332,250.875c-241.815,0-449.795-140.629-541.845-342.276
		c-12.146-26.565-22.282-54.191-30.172-82.707c-13.328-47.852-20.419-98.199-20.419-150.124c0-41.999,4.639-82.965,13.445-122.383
		c0.089-0.459,0.207-0.889,0.296-1.349c24.616-109.013,81.087-206.409,159.457-282.604c22.223-21.63,46.219-41.54,71.779-59.527
		c12.175-8.578,24.734-16.725,37.589-24.385c90.131-53.846,196.248-84.888,309.871-84.888c15.071,0,29.993,0.545,44.769,1.635
		c20.864,1.492,41.4,4.046,61.586,7.603c84.988,14.946,163.622,47.507,231.825,93.637h0.031
		c42.493,28.716,80.909,62.684,114.272,100.981c17.523,20.11,33.658,41.396,48.227,63.745c9.072,13.913,17.554,28.199,25.414,42.888
		c18.883,35.286,34.071,72.724,45.154,111.826C2501.663,683.989,2509.021,735.254,2509.021,788.155z"/>
	<path opacity="0.7" fill="#F6A2CC" d="M1715.342,530.71c-23.639,36.347,9.872,99.46-61.051,82.248
		c-70.923-17.213-114.273-24.872-118.204,13.369c-3.96,38.27,53.192,38.27,53.192,78.432c0,40.164-25.621,53.446-65.013,34.369
		c-39.421-19.077-50.738-46.819-96.542-29.606s-72.4,5.738-82.743-28.688c-1.832-6.053-4.374-10.958-7.359-15.062
		c0.089-0.459,0.207-0.889,0.296-1.349c24.616-109.013,81.087-206.409,159.457-282.604c22.223-21.63,46.219-41.54,71.779-59.527
		c12.175-8.578,24.734-16.725,37.589-24.385c18.469,0.66,40.543,7.459,59.369,30.065c41.369,49.745,68.94,24.873,59.102,82.248
		c-9.872,57.376,5.909,65.035,39.39,63.113c33.481-1.922,72.903-1.922,76.833,22.95
		C1845.367,521.156,1738.983,494.362,1715.342,530.71z"/>
	<path opacity="0.7" fill="#F6A2CC" d="M1960.621,874.962c0,0-52.207,16.256-65.997-19.125
		c-13.792-35.382,1.969-43.032-44.327-53.551s-50.236-41.12-79.788-37.295c-29.551,3.825-14.775,15.3-49.251,40.164
		c-34.477,24.862-65.997,13.387-65.012,59.287c0.984,45.901,52.207,53.073,62.55,83.195c10.342,30.123-7.389,43.033,14.775,65.982
		c22.162,22.95,63.534,12.909,44.325,44.466c-19.208,31.558-48.759,55.941-33.983,104.711c14.775,48.771,4.434,51.639,29.552,86.064
		c25.117,34.425,73.877,45.9,81.266,22.949c7.387-22.949-33.984-53.072-20.687-76.022s35.461-7.172,44.326-41.599
		c8.866-34.424,44.819-34.424,47.774-58.331c2.955-23.905-43.342-60.243-25.611-75.545c17.73-15.3,53.192,27.732,80.772-10.519
		c27.581-38.25,8.866-68.851,37.432-105.189C2047.303,868.268,1980.321,853.924,1960.621,874.962z"/>
	<path opacity="0.7" fill="#F6A2CC" d="M2509.021,788.155c0,35.343-3.28,69.97-9.574,103.593
		c-15.131,80.67-47.577,155.459-93.501,220.64c-15.662,4.991-31.648,4.876-47.368-1.236
		c-73.877-28.688-19.209-106.144,10.342-144.873c29.551-38.729-45.804-21.516-100.473-57.375
		c-54.67-35.86,5.91-131.965-50.236-116.187s-124.114,35.86-156.621-17.213c-32.505-53.073,29.551-61.679,1.479-106.145
		c-28.074-44.466,16.254-70.286,72.4-74.588c56.146-4.304,48.758-43.032,118.203-48.77c69.444-5.738,67.967,80.327,144.799,74.589
		c76.833-5.738,73.375,11.475,73.375,11.475c5.525-0.143,10.904,0.976,16.047,3.271
		C2501.663,683.989,2509.021,735.254,2509.021,788.155z"/>
	<path opacity="0.7" fill="#F6A2CC" d="M2442.738,523.509c-63.889,30.18-89.539-51.896-144.148-27.225
		c-55.054,24.872-45.421-22.95-88.742-53.56c-43.352-30.582-130.023,24.873-126.094-22.951
		c3.931-47.794,68.943-34.426,82.742-72.667c13.801-38.241,76.833-28.688,76.833-28.688c3.574-1.319,7.418-2.18,11.465-2.524
		c0,0,0-0.029,0.031,0c42.493,28.716,80.909,62.684,114.272,100.981c17.523,20.11,33.658,41.396,48.227,63.745
		C2426.396,494.534,2434.878,508.82,2442.738,523.509z"/>
	<path opacity="0.7" fill="#F6A2CC" d="M1904.474,358.58c0,0,33.492-46.912-19.7-60.75c-53.191-13.84-52.207,4.276-93.578,0
		c-41.371-4.277-57.624,26.802-26.596,60.75c31.028,33.947,56.146,99.091,84.22,64.368
		C1876.893,388.224,1871.476,361.926,1904.474,358.58z"/>
	<path fill="#F29ECD" d="M2895.617,1721.241c23.557-72.911-97.273-120.485-97.273-120.485s-144.936,63.288-167.982,52.643
		c-23.049-10.645,113.031-77.598,113.031-77.598c-38.796-29.525-176.553-45.66-176.553-45.66s-76.826,131.045-96.467,115.22
		c-19.639-15.824,74.126-112.664,74.126-112.664c-47.687-13.157-114.857,9.007-114.857,9.007
		c-95.253,44.864-58.627,206.145-119.867,239.279h-0.002c0,0-12.456,5.404-29.312,17.271l10.909,6.765
		c2.76-2.287,5.549-4.423,8.371-6.385c0.013-0.021,0.028-0.031,0.052-0.035c0.041-0.028,0.082-0.056,0.124-0.084
		c1.823-1.173,4.43-2.837,7.635-4.844c0.004-0.002,0.009-0.004,0.013-0.007c0.004-0.007,0.012-0.003,0.016-0.009
		c7.5-4.269,12.83-7.552,16.479-10.047c0.012-0.008,0.021-0.017,0.031-0.025c23.07-13.69,67.976-32.359,67.676-30.161
		c-6.887,50.43,82.229,114.804,141.068,136.701c58.841,21.898,45.536-6.407,32.734-46.896
		c-12.802-40.49-75.504-70.789-86.881-90.606c-11.379-19.819,19.931-13.168,52.909,10.928
		c32.979,24.097,28.167,68.517,80.784,108.437c52.617,39.919,162.613-35.916,162.613-35.916
		c-46.353-12.332-102.085-76.063-96.233-90.667c5.853-14.604,107.713,50.381,126.276,56.423
		C2823.602,1807.863,2872.063,1794.153,2895.617,1721.241z"/>
	<path fill="#F29ECD" d="M138.938,1465.811c11.246-97.418,178.435-92.511,178.435-92.511s136.35,147.137,169.078,146.229
		c32.728-0.906-91.273-147.897-91.273-147.897c61.284-15.149,231.572,35.166,231.572,35.166s20.271,192.426,51.762,183.726
		c31.49-8.701-26.903-169.495-26.903-169.495c62.987,8.528,130,68.31,130,68.31c87.865,100.542-41.15,271.419,13.052,341.094
		l0.003,0.002c0,0,11.736,12.605,25.19,35.005l-16.413,2.455c-2.019-4.073-4.152-7.98-6.418-11.701
		c-0.004-0.032-0.018-0.05-0.043-0.068c-0.033-0.054-0.066-0.105-0.099-0.159c-1.515-2.295-3.688-5.556-6.378-9.523
		c-0.004-0.004-0.007-0.01-0.011-0.016c-0.001-0.01-0.012-0.008-0.014-0.018c-6.526-8.78-11.032-15.313-13.981-20.075
		c-0.011-0.015-0.019-0.028-0.024-0.046c-19.773-27.665-62.519-72.151-63.339-69.42c-18.819,62.648-157.749,93.403-238.488,89.527
		c-80.739-3.878-50.025-30.412-13.403-71.498c36.623-41.085,126.377-45.126,150.301-62.665
		c23.924-17.54-16.371-25.475-67.928-13.772c-51.559,11.701-69.607,66.258-152.657,86.659
		c-83.049,20.401-171.696-123.9-171.696-123.9c60.98,8.827,160.387-37.954,161.308-58.036c0.921-20.082-153.294,4.981-178.303,2.739
		C177.258,1603.678,127.693,1563.226,138.938,1465.811z"/>
	<g>
		<path opacity="0.5" fill="#FCFBFC" d="M2445.304,1534.476c0,0,43.311-149.97,138.6-228.965
			c12.664-10.501,31.94,0.319,29.035,16.237c-0.05,0.266-0.101,0.532-0.154,0.803
			C2607.365,1349.652,2498.609,1450.982,2445.304,1534.476z"/>
		<path opacity="0.5" fill="#FCFBFC" d="M2428.482,1576.742c0,0,111.02-178.848,261.855-242.56
			c9.197-3.886,20.235-0.305,24.575,8.475c2.827,5.718,3.175,14.034-2.949,26.012
			C2695.637,1400.609,2524.383,1490.54,2428.482,1576.742z"/>
	</g>
	<g>
		<path opacity="0.5" fill="#FCFBFC" d="M605.95,1370.276c0,0-43.311-149.97-138.6-228.967
			c-12.664-10.497-31.941,0.319-29.034,16.237c0.048,0.267,0.1,0.533,0.154,0.805
			C443.888,1185.455,552.645,1286.781,605.95,1370.276z"/>
		<path opacity="0.5" fill="#FCFBFC" d="M622.772,1412.542c0,0-111.02-178.847-261.856-242.56
			c-9.197-3.884-20.235-0.303-24.576,8.476c-2.827,5.718-3.174,14.033,2.949,26.013
			C355.619,1236.41,526.872,1326.341,622.772,1412.542z"/>
	</g>
	<path fill="#F7DFEA" d="M1902.37,592.205l-0.466,1311.853c-0.016,43.1-36.013,78.02-80.393,78.005l-706.395-0.235
		c-44.396-0.015-80.368-34.96-80.353-78.061l0.466-1311.851c0.015-43.084,36.012-78.006,80.407-77.991l706.396,0.236
		C1866.413,514.176,1902.386,549.12,1902.37,592.205z"/>
	<path fill="#F490C5" d="M1821.505,1991.859l-706.398-0.236c-49.882-0.018-90.451-39.429-90.434-87.854l0.467-1311.851
		c0.017-48.426,40.613-87.81,90.496-87.792l706.398,0.236c49.881,0.017,90.449,39.427,90.431,87.853L1912,1904.066
		C1911.981,1952.492,1871.387,1991.877,1821.505,1991.859z M1115.628,523.712c-38.757-0.012-70.299,30.587-70.313,68.212
		l-0.466,1311.853c-0.013,37.625,31.507,68.244,70.264,68.257l706.398,0.236c38.756,0.014,70.297-30.585,70.31-68.21l0.466-1311.853
		c0.015-37.625-31.506-68.246-70.262-68.259L1115.628,523.712z"/>
	<g>
		<path fill="#FFFFFF" d="M1167.039,638.553l-11.879,8.27l-11.936-8.188c2.647-3.613,7.018-6.002,11.94-6
			C1160.058,632.636,1164.395,634.967,1167.039,638.553z"/>
		<g>
			<path fill="#FFFFFF" d="M1155.172,612.473c-11.938-0.004-22.493,5.757-28.896,14.566l7.537,5.14
				c4.74-6.51,12.557-10.749,21.356-10.746c8.738,0.003,16.49,4.187,21.227,10.61l7.509-5.225
				C1177.477,618.125,1166.987,612.477,1155.172,612.473z"/>
		</g>
		<g>
			<path fill="#FFFFFF" d="M1155.186,574.15c-25.26-0.008-47.603,12.171-61.147,30.805l7.536,5.14
				c11.882-16.304,31.485-26.991,53.607-26.983c21.938,0.006,41.41,10.528,53.312,26.631l7.478-5.225
				C1202.41,586.144,1180.231,574.159,1155.186,574.15z"/>
		</g>
		<g>
			<path fill="#FFFFFF" d="M1155.178,595.118c-17.969-0.006-33.909,8.621-43.605,21.85l7.536,5.141
				c8.034-10.9,21.205-18.034,36.066-18.029c14.738,0.005,27.812,7.028,35.869,17.784l7.479-5.194
				C1188.804,603.613,1172.993,595.125,1155.178,595.118z"/>
		</g>
	</g>
	<g>
		<path fill="#FFFFFF" d="M1313.755,377.454c0,0-51.514-24.026-118.066-10.829c0,0,76.125-5.048,121.265,41.856
			c0,0,31.567-46.995,83.749-57.77C1400.703,350.711,1361.818,346.212,1313.755,377.454z"/>
		<path fill="#FFFFFF" d="M1168.586,354.817c0,0-39.728-18.809-91.262-8.894c0,0,58.898-3.57,93.591,32.904
			c0,0,24.632-36.207,65.04-44.311C1235.955,334.517,1205.904,330.867,1168.586,354.817z"/>
		<path fill="#FFFFFF" d="M1040.439,337.669c0,0-36.883-15.622-83.364-4.677c0,0,53.433-5.449,86.436,26.43
			c0,0,20.969-33.855,57.402-42.738C1100.914,316.684,1073.434,314.488,1040.439,337.669z"/>
		<path fill="#FFFFFF" d="M968.603,301.691c0,0-25.887-8.275-56.518,1.952c0,0,35.677-6.947,60.002,12.529
			c0,0,11.94-24.114,35.932-32.335C1008.019,283.837,989.345,284.039,968.603,301.691z"/>
		<path fill="#FFFFFF" d="M1225.776,213.22c0,0-25.407-9.574-56.547-0.913c0,0,36.002-5.131,59.25,15.551
			c0,0,13.219-23.477,37.619-30.472C1266.098,197.386,1247.439,196.643,1225.776,213.22z"/>
		<path fill="#FFFFFF" d="M1350.998,298.438c0,0-35.454-17.354-81.864-9.047c0,0,52.949-2.522,83.661,30.641
			c0,0,22.571-32.236,58.966-39.047C1411.761,280.985,1384.812,277.358,1350.998,298.438z"/>
		<path fill="#FFFFFF" d="M1301.576,244.586c0,0-33.377-14.832-75.956-5.586c0,0,48.827-4.124,78.393,25.476
			c0,0,19.694-30.547,53.073-38.072C1357.086,226.403,1332.059,223.965,1301.576,244.586z"/>
	</g>
	<g>
		<path fill="#FFFFFF" d="M2485.666,1953.957h-236.422c-22.667,0-41.044-17.84-41.044-39.845v-5.208h315.419v8.207
			C2523.619,1937.461,2506.627,1953.957,2485.666,1953.957z"/>
		<path fill="#E1C2DF" d="M2534.442,1530.637v365.438c0,4.405-0.508,8.7-1.469,12.83h-44.149c-6.85,0-13.247,1.936-18.628,5.284
			c-3.333,2.059-6.271,4.652-8.685,7.672c-4.606,5.708-7.33,12.899-7.33,20.707v11.39h-172.969v-11.39
			c0-11.747-6.186-22.095-15.578-28.118c-2.654-1.701-5.578-3.06-8.685-4.007c-3.276-1.002-6.765-1.538-10.38-1.538h-47.723
			c-0.961-4.13-1.47-8.425-1.47-12.83v-365.438c0-31.973,26.665-57.883,59.572-57.883h217.921
			C2507.777,1472.754,2534.442,1498.664,2534.442,1530.637z"/>
		<g>
			<path fill="#FFFFFF" d="M2429.37,1472.561c-78.059-29.873-132.517-0.473-133.056-0.172l-2.815-4.76
				c0.581-0.323,14.498-7.981,38.55-11.863c22.09-3.566,57.269-4.432,99.394,11.691L2429.37,1472.561z"/>
		</g>
		<rect x="2229.504" y="1937.037" fill="#FFFFFF" width="22.832" height="30.189"/>
		<ellipse fill="#FFFFFF" cx="2240.92" cy="1971.802" rx="16.242" ry="15.781"/>
		<ellipse fill="#FFFFFF" cx="2240.92" cy="1971.802" rx="9.86" ry="9.581"/>
		<rect x="2464.303" y="1937.037" fill="#FFFFFF" width="22.831" height="30.189"/>
		<ellipse fill="#FFFFFF" cx="2475.719" cy="1971.802" rx="16.242" ry="15.781"/>
		<ellipse fill="#FFFFFF" cx="2475.718" cy="1971.802" rx="9.86" ry="9.581"/>
		<path fill="#A08BC2" d="M2265.635,1472.754v441.695c-2.654-1.701-5.578-3.06-8.685-4.007v-437.688H2265.635z"/>
		<rect x="2326.465" y="1472.754" fill="#A08BC2" width="8.686" height="481.203"/>
		<rect x="2391.333" y="1472.754" fill="#A08BC2" width="8.687" height="481.203"/>
		<path fill="#A08BC2" d="M2470.196,1472.754v441.435c-3.333,2.059-6.271,4.652-8.685,7.672v-449.106H2470.196z"/>
	</g>
	<g>
		<path fill="#FFB27D" d="M2009.106,1283.553c-0.002-0.63,9.507-19.711,6.482-21.178c-3.024-1.469-8.443-1.247-9.072,2.096
			C2005.886,1267.813,2009.106,1283.553,2009.106,1283.553z"/>
		<path fill="#FFB27D" d="M2012.695,1294.939c0.007-1.872-2.227-30.439-7.189-36.125c-4.963-5.689-15.099-13.777-18.287-13.526
			c-3.188,0.249-15.654,16.33-11.906,28.652c3.747,12.324,19.564,29,19.564,29L2012.695,1294.939z"/>
		<g>
			<path fill="#F1A34F" d="M2031.617,1260.327l-28.898,8.408c-0.959,0.28-1.969-0.249-2.258-1.18l-16.515-53.493
				c-0.288-0.932,0.257-1.912,1.217-2.191l28.897-8.408c0.959-0.279,1.97,0.25,2.256,1.18l16.517,53.494
				C2033.12,1259.067,2032.576,1260.049,2031.617,1260.327z"/>
			<path fill="#D86713" d="M2024.108,1262.512l-26.212,7.628c-1.702,0.494-3.493-0.443-4.003-2.094l-15.71-50.887
				c-0.51-1.65,0.455-3.391,2.156-3.884l26.212-7.628c1.7-0.495,3.492,0.442,4.002,2.094l15.711,50.886
				C2026.773,1260.277,2025.809,1262.019,2024.108,1262.512z"/>
		</g>
		<path fill="#FFB27D" d="M1984.237,1247.366c0,0,12.033-17.975,14.974-16.974c4.197,1.427-10.91,24.235-10.91,24.235
			s11.195-17.044,12.943-15.763c3.984,2.92-2.358,13.629-8.646,21.839c0,0,11.256-10.008,11.622-8.204
			c1.286,6.314-12.357,21.61-12.357,21.61l-7.625-16.908V1247.366z"/>
		<path fill="#FFB27D" d="M1975.211,1264.056c0.581-2.198,3.52-45.123,4.775-41.052c1.259,4.073,4.251,26.579,4.251,26.579
			L1975.211,1264.056z"/>
		<path fill="#739AF0" d="M2167.254,1252.236c0,0-1.262,46.668-15.124,84.334c-10.95,29.744-29.767,53.872-62.043,44.961
			c-3.302-0.912-6.496-1.888-9.596-2.943c-0.026-0.016-0.041-0.016-0.041-0.016c-65.572-22.173-86.789-72.932-86.789-72.932
			c4.885-7.817,19.03-10.696,19.03-10.696c13.205,0.69,71.235,24.61,74.939,25.34c13.421,2.618,24.265-68.986,32.988-93.793
			c8.724-24.806,44.422-35.906,44.422-35.906L2167.254,1252.236z"/>
		<path fill="#5283DB" d="M2153.392,1302.943l-1.262,33.627c-10.95,29.744-29.767,53.872-62.043,44.961
			c-3.302-0.912-6.496-1.888-9.596-2.943c1.033,0.129,20.788,2.722,29.056-5.304c8.495-8.26,7.609-35.62,23.258-53.859
			C2148.467,1301.185,2153.392,1302.943,2153.392,1302.943z"/>
		<path fill="#133054" d="M2155.2,1917.942c0,0,16.139,14.298,12.99,24.456c-3.149,10.159-17.713,16.934-19.683,29.351
			c-1.968,12.416-9.84,19.188-16.926,19.188c-7.084,0-33.779,0-33.779,0s-5.215-8.738,7.382-11.373
			c12.596-2.632,17.345-17.224,16.558-30.769s1.181-31.606,1.181-31.606l26.766-6.019L2155.2,1917.942z"/>
		<path fill="#163560" d="M1977.392,1988.335h99.456c3.899,0,7.104-3.001,7.21-6.785c0.158-5.658-0.325-13.884-3.556-20.824
			c-5.312-11.431-8.664-13.429,13.759-46.677c-6.742,6.739-24.921,3.656-40.262,1.653c-1.88,2.959-30.34,45.643-36.618,50.023
			C2010.447,1970.563,1979.525,1968.839,1977.392,1988.335z"/>
		<path fill="#163560" d="M2132.361,1452.908c0,0-72.111,132.093-91.707,204.828c-15.209,56.458,77.615,274.903,77.615,274.903
			s7.586-0.489,19.963-5.211c12.152-4.637,16.78-17.075,16.78-17.075s-5.505-156.19-24.294-231.755
			c-4.217-16.962,20.431-71.673,62.035-101.639c41.604-29.966,58.927-126.377,34.16-132.892
			C2202.148,1437.554,2132.361,1452.908,2132.361,1452.908z"/>
		<path fill="#1C468A" d="M2194.096,1415.405c0,0-75.805,269.777-98.804,330.356c-22.997,60.579-59.466,189.157-59.466,189.157
			s23.059,10.507,52.583,5.538c0,0,110.848-157.646,115.673-227.326c2.231-32.204,113.73-159.882,101.304-243.135L2194.096,1415.405
			z"/>
		<path fill="#739AF0" d="M2305.204,1499.582c0,0-16.13,7.896-44.649,10.216h-0.028c-32.651,2.658-81.556-2.007-141.116-34.201
			c0,0-16.613-13.288,3.798-69.806c15.448-42.786,22.977-132.997,41.833-215.206c0,0,61.169-18.63,110.248-2.528
			c37.498,12.313,33.766,68.18,40.69,126.352c0.645,5.433,1.384,10.88,2.256,16.313
			C2328.475,1394.404,2305.204,1499.582,2305.204,1499.582z"/>
		<path fill="#233862" d="M2143.475,1068.88c0,0,41.751-65.978,74.083-32.023c0,0,21.138,5.241,33.245,37.19
			c12.354,32.594-6.885,61.378-19.734,56.729c-8.239-2.981-12.095,10.804-12.095,10.804L2143.475,1068.88z"/>
		<path fill="#233862" d="M2211.152,1031.654c0,0,2.877-27.316,43.99-24.659c0,0-19.443,0.339-23.617,8.212
			c0,0,14.137-8.848,24.45-4.544s14.683,23.038,14.124,29.003s-8.477,24.596-15.407,25.565c-6.931,0.971-16.013-3.787-16.013-3.787
			L2211.152,1031.654z"/>
		<path fill="#FFB27D" d="M2231.867,1186.389c-3.86-9.992-9.611-20.482-14.229-52.393l-2.468,0.843l-41.501,14.188
			c0,0,2.909,12.917,4.765,25.207c0.76,5.025,1.301,13.994,1.654,21.829c0.363,8.007,8.476,8.764,16.723,8.393
			C2218.754,1203.471,2230.847,1195.526,2231.867,1186.389z"/>
		<path fill="#E8945B" d="M2173.669,1149.027c0,0,2.909,12.917,4.765,25.207c23.809-3.999,33.302-26.938,36.736-39.396
			L2173.669,1149.027z"/>
		<path fill="#233862" d="M2218.91,1129.704c0,0,9.676-20.969,10.243-37.82c0.405-12.033-12.207-54.655-56.29-42.094
			c0,0-12.886,3.079-23.978,12.856c-8.822,7.775-20.872,23.582,0.532,59.321l6,12.244L2218.91,1129.704z"/>
		<path fill="#FFB27D" d="M2167.414,1161.787c0,0,56.693-7.01,51.655-41.218c-5.04-34.208-1.116-58.152-37.527-55.123
			c-36.412,3.028-41.508,17.056-42.686,28.872C2137.678,1106.133,2152.536,1162.729,2167.414,1161.787z"/>
		<path fill="#233862" d="M2155.655,1068.213c0,0,21.446,37.961,46.093,40.566c24.646,2.608,34.039-5.016,34.039-5.016
			s-20.318-11.508-27.745-35.52C2208.042,1068.244,2164.502,1047.48,2155.655,1068.213z"/>
		<path fill="#233862" d="M2159.979,1070.933c0,0-10.234,10.577-11.761,19.683c-1.526,9.104-0.133,27.211-5.607,27.356
			c0,0-15.718-25.644-4.895-42.907C2149.189,1056.76,2159.979,1070.933,2159.979,1070.933z"/>
		<path fill="#233862" d="M2158.031,1072.589c0,0,17.272,40.479,49.259,49.739c0,0-33.821-21.621-40.487-49.004
			C2160.138,1045.942,2158.031,1072.589,2158.031,1072.589z"/>
		<path fill="#5283DB" d="M2305.204,1499.582c0,0-16.13,7.896-44.649,10.216h-0.028c0,0-23.432-28.519,2.712-60.479
			c26.143-31.959-2.041-90.927,18.091-123.003c14.011-22.317,27.646-17.119,34.65-11.908c0.645,5.433,1.384,10.88,2.256,16.313
			C2328.475,1394.404,2305.204,1499.582,2305.204,1499.582z"/>
		<path fill="#FFB27D" d="M2408.058,1452.184c0,0,3.477,7.855,8.332,8.382c7.925,0.858,23.026,7.307,25.396,8.673
			c6.425,3.702,5.99,20.27-0.436,21.828c-6.424,1.561-9.636-12.343-29.713-16.067c-6.808-1.263-16.729,3.307-20.745-12.532
			L2408.058,1452.184z"/>
		<path fill="#739AF0" d="M2275.289,1188.057c58.379,20.846,60.535,121.246,86.563,165.464
			c26.842,45.599,52.979,105.619,52.979,105.619s-0.472,1.798-10.481,4.581c-7.047,1.959-14.406,1.127-14.406,1.127
			s-55.152-48.437-70.14-67.544c-14.985-19.109-50.317-107.757-50.317-107.757S2252.115,1179.783,2275.289,1188.057z"/>
		<path fill="#FFB27D" d="M2392.332,1466.391c0,0,1.418,6.747,10.027,12.203c8.608,5.458,15.513,10.914,16.344,7.535
			c0.832-3.377-4.79-7.016-6.128-13.253C2411.235,1466.64,2392.332,1466.391,2392.332,1466.391z"/>
	</g>
	<rect x="1044.85" y="1132.043" fill="#A473B6" width="847.19" height="595.376"/>
	<path fill="#A473B6" d="M1678.743,1889.01v80.316c0,0.985-0.021,1.973-0.062,2.944h-423.646c-0.042-0.972-0.063-1.959-0.063-2.944
		v-80.316c0-36.639,24.361-66.616,54.134-66.616h315.504C1654.383,1822.394,1678.743,1852.371,1678.743,1889.01z"/>
	<g>
		<g>
			<polygon fill="#FFFFFF" points="1466.433,1924.593 1439.163,1900.893 1446.826,1892.583 1464.44,1907.893 1488.814,1874.039 
				1498.231,1880.427 			"/>
		</g>
		<g>
			<path fill="#FFFFFF" d="M1468.698,1949.988c-28.782,0-52.197-22.732-52.197-50.673s23.415-50.67,52.197-50.67
				c28.781,0,52.196,22.729,52.196,50.67S1497.479,1949.988,1468.698,1949.988z M1468.698,1851.25
				c-27.301,0-49.513,21.563-49.513,48.065c0,26.504,22.212,48.066,49.513,48.066s49.512-21.563,49.512-48.066
				C1518.21,1872.813,1495.999,1851.25,1468.698,1851.25z"/>
		</g>
	</g>
	<path fill="#EBF3FA" d="M1120.716,744.702c0,0,19.616-42.405,66.526-37.694c0,0,68.104-70.679,140.728-9.423
		c0,0,77.199-15.178,134.372,13.141c38.118,18.881,50.708,38.688,50.708,38.688L1120.716,744.702z"/>
	<path fill="#EBF3FA" d="M1397.02,644.462c0.244-0.009,0.489-0.016,0.735-0.02c2.976-0.047,5.834-1.086,8.031-3.036
		c9.864-8.752,39.92-30.532,72.283-5.513c2.533,1.958,5.806,2.77,9.01,2.315c12.498-1.773,45.157-4.645,70.727,8.651
		c0.696,0.362,1.378,0.725,2.044,1.088c10.646,5.796,6.177,21.599-6.028,21.445l-156.45-1.973
		C1382.034,667.227,1381.692,645.017,1397.02,644.462z"/>
	<g>
		<path fill="#E3CCE4" d="M1787.817,1640.068H1619.65c-29.01,0-52.609-22.911-52.609-51.073v-344.772
			c0-28.164,23.6-51.074,52.609-51.074h168.167c29.01,0,52.61,22.91,52.61,51.074v344.772
			C1840.428,1617.157,1816.827,1640.068,1787.817,1640.068z M1619.65,1198.359c-26.05,0-47.242,20.574-47.242,45.863v344.772
			c0,25.288,21.192,45.861,47.242,45.861h168.167c26.051,0,47.242-20.573,47.242-45.861v-344.772
			c0-25.289-21.191-45.863-47.242-45.863H1619.65z"/>
	</g>
	<path fill="#E3CCE4" d="M1490.775,1417.88h-242.958c-21.378,0-38.708-16.823-38.708-37.578v-146.97
		c0-20.754,17.33-37.578,38.708-37.578h242.958c21.379,0,38.708,16.824,38.708,37.578v146.97
		C1529.483,1401.057,1512.154,1417.88,1490.775,1417.88z"/>
	<g>
		<path fill="#E3CCE4" d="M1494.355,1640.068h-250.117c-20.85,0-37.813-16.468-37.813-36.708v-114.736
			c0-20.241,16.962-36.708,37.813-36.708h250.117c20.851,0,37.813,16.467,37.813,36.708v114.736
			C1532.168,1623.601,1515.206,1640.068,1494.355,1640.068z M1244.238,1457.127c-17.89,0-32.445,14.13-32.445,31.497v114.736
			c0,17.367,14.555,31.496,32.445,31.496h250.117c17.89,0,32.444-14.129,32.444-31.496v-114.736
			c0-17.367-14.555-31.497-32.444-31.497H1244.238z"/>
	</g>
	<g>
		<path fill="#E3CCE4" d="M1633.823,1319.379c0,40.305,69.911,104.729,69.911,104.729s69.911-64.424,69.911-104.729
			s-31.3-72.987-69.911-72.987C1665.121,1246.392,1633.823,1279.074,1633.823,1319.379z M1662.54,1315.099
			c0-22.033,18.5-39.991,41.194-39.991c22.801,0,41.193,17.958,41.193,39.991c0,22.135-18.393,39.991-41.193,39.991
			C1681.04,1355.09,1662.54,1337.233,1662.54,1315.099z"/>
	</g>
	<path fill="#CF9ECD" d="M1496.85,1342.816l-3.31,0.03c-0.114,0.001-0.229,0.018-0.339,0.047l-25.381,6.729
		c-0.311,0.081-0.641,0.053-0.932-0.083l-35.668-13.331c-0.914-0.427,4.606-3.042,5.426-3.62
		c8.918-6.303,37.204-21.656,47.833-28.479c1.699-1.091,1.229-3.628-0.754-4.077c-0.957-0.217-1.958-0.158-2.882,0.167
		l-51.956,18.313l-6.983-4.296c-1.014-0.624-2.368-0.328-3.011,0.655l-3.422,5.258c-0.63,0.969-0.345,2.256,0.625,2.891
		l-6.693,2.359c-0.318,0.113-0.669,0.104-0.981-0.025l-31.971-13.238c-2.831-1.172-5.992-1.355-8.946-0.519
		c-1.197,0.338-2.487,0.705-3.683,1.049c-2.477,0.71-3.843,3.283-3.006,5.657l0.42,1.193c1.371,3.891,4.46,6.981,8.422,8.43
		l25.924,9.47c0.513,0.188,0.857,0.659,0.868,1.192l0.232,10.877l-1.483-0.912c-1.015-0.623-2.369-0.328-3.01,0.658l-3.423,5.258
		c-0.642,0.983-0.336,2.302,0.678,2.926l7.504,4.617l0.362,16.971c0.029,1.371,0.473,2.703,1.28,3.828
		c1.028,1.434,2.111,3.021,2.493,2.854c1.235-0.535,12.978-26.671,16.973-36.954c0.227-0.584,5.321,1.255,5.923,1.475l35.345,10.494
		c0.454,0.165,0.78,0.558,0.853,1.023l1.57,10.012c0.175,1.121,0.739,2.15,1.598,2.919l0.034,0.029
		c0.608,0.545,1.574,0.429,2.027-0.244l8.219-12.226c0.238-0.355,0.641-0.574,1.078-0.588l3.796-0.115
		c1.184-0.038,1.738-1.438,0.884-2.238l-0.925-0.865l19.18-13.21C1498.708,1344.441,1498.161,1342.805,1496.85,1342.816z"/>
	<g>
		<g>
			<path fill="#E3CCE4" d="M1445.914,1596.757c-28.835,0-52.293-22.773-52.293-50.765c0-27.992,23.458-50.766,52.293-50.766
				c28.833,0,52.292,22.773,52.292,50.766C1498.205,1573.983,1474.747,1596.757,1445.914,1596.757z M1445.914,1500.788
				c-25.676,0-46.564,20.277-46.564,45.204c0,24.924,20.888,45.204,46.564,45.204c25.675,0,46.563-20.28,46.563-45.204
				C1492.477,1521.065,1471.589,1500.788,1445.914,1500.788z"/>
		</g>
		<g>
			<path fill="#E3CCE4" d="M1445.933,1552.805h-0.717c-0.999,0-1.816-0.795-1.816-1.764v-28.28c0-0.972,0.817-1.765,1.816-1.765
				h0.717c1,0,1.816,0.793,1.816,1.765v28.28C1447.75,1552.01,1446.933,1552.805,1445.933,1552.805z"/>
			<path fill="#E3CCE4" d="M1444.952,1551.883l-0.06-0.059c-0.407-0.396-0.407-1.04,0-1.435l29.071-28.223
				c0.406-0.395,1.071-0.395,1.477,0l0.061,0.058c0.406,0.396,0.406,1.04,0,1.436l-29.071,28.223
				C1446.023,1552.276,1445.357,1552.276,1444.952,1551.883z"/>
			<ellipse fill="#E3CCE4" cx="1445.575" cy="1550.864" rx="2.859" ry="2.775"/>
		</g>
	</g>
	<g>
		<rect x="1243.592" y="1485.189" fill="#E3CCE4" width="114.969" height="11.577"/>
		<rect x="1243.592" y="1511.613" fill="#E3CCE4" width="114.969" height="11.656"/>
		<rect x="1243.592" y="1538.115" fill="#E3CCE4" width="68.938" height="11.656"/>
	</g>
	<g>
		<rect x="1646.25" y="1485.684" fill="#E3CCE4" width="114.969" height="11.576"/>
		<rect x="1646.25" y="1512.105" fill="#E3CCE4" width="114.969" height="11.658"/>
		<rect x="1646.25" y="1538.609" fill="#E3CCE4" width="68.937" height="11.656"/>
	</g>
	<g>
		<rect x="1250.721" y="1246.843" fill="#A473B6" width="114.969" height="11.577"/>
		<rect x="1250.721" y="1273.266" fill="#A473B6" width="114.969" height="11.658"/>
		<rect x="1250.721" y="1299.77" fill="#A473B6" width="68.938" height="11.655"/>
	</g>
	<path fill="#F6ACD5" d="M1045.209,896.284c0,0,36.576-2.456,44.544,25.398c0,0,28.166-55.708,87.656-51.118
		c59.49,4.59,70.48,38.558,70.48,38.558s34.085-11.367,62.391,3.789c28.306,15.156,26.487,42.94,26.487,42.94
		s25.953-35.363,78.116-22.733c0,0-10.407-51.131,52.324-62.823c62.732-11.692,89.37,8.516,89.37,8.516
		s71.045-44.416,133.938,11.261c0,0,46.083-8.688,68.611,18.868c0,0,46.166-54.159,133.016-44.646v267.749H1044.85L1045.209,896.284
		z"/>
	<path fill="#EBF3FA" d="M1045.197,1029.901c0,0,61.511-15.104,116.42,20.072c0,0,13.383-15.479,48.238-11.647
		c34.854,3.83,44.452,35.088,44.452,35.088s121.951-39.097,182.329,58.629H1044.85L1045.197,1029.901z"/>
	<path fill="#EBF3FA" d="M1511.684,1132.043c0,0,3.114-59.921,67.563-74.252c0,0-33.374-14.331-16.551-49.942
		c16.824-35.612,57.688-38.218,57.688-38.218s4.269-64.427,120.145-53.302c32.534,3.123,66.971,22.034,72.355,55.04
		c0,0,12.566-20.068,38.596-18.72c0,0,3.22-36.635,40.654-36.318v215.713H1511.684z"/>
	<g>
		<path fill="#9F82BD" d="M1837.743,616.782l-48.634,163.576l-1.534-0.182l-166.171-19.597c0,0,76.965-15.54,84.961-24.506
			c7.535-8.45,87.452-108.686,110.825-119.4c1.435-0.657,2.657-0.976,3.636-0.917
			C1837.743,616.782,1837.743,616.782,1837.743,616.782z"/>
		<path fill="#C4A2CE" d="M1787.575,780.176l-166.171-19.597c0,0,76.965-15.54,84.961-24.506
			c7.535-8.45,87.452-108.686,110.825-119.4c-20.695,29.176-68.663,99.292-66.63,119.678
			C1752.5,755.768,1775.899,772.814,1787.575,780.176z"/>
		<path fill="#A473B6" d="M1805.525,829.43c-5.67,1.883-22.622,7.069-45.883,13.638c-66.873,18.882-185.827,49.199-238.319,45.453
			c-47.089-3.358-296.124-21.818-468.385-36.476c41.679-71.063,93.65-110.326,141.214-131.846
			c200.697,15.962,463.165,37.533,496.56,43.797c54.935,10.31,127.812,18.691,127.812,18.691s0.494,2.164,0.964,5.595
			C1821.034,799.429,1822.336,823.815,1805.525,829.43z"/>
		<path fill="#E1CCE4" d="M1820.343,800.116c-0.013,0.399-0.013,0.821-0.024,1.231c-0.146,8.873-2.004,18.764-8.464,24.461
			c-0.216,0.199-0.446,0.386-0.675,0.574c-0.459,0.364-0.941,0.715-1.437,1.031c0,0,0,0-0.012,0v0.012
			c-0.243,0.152-0.509,0.304-0.773,0.469c-0.254,0.141-0.519,0.292-0.797,0.434c0,0,0,0-0.013,0
			c-0.265,0.141-0.543,0.27-0.833,0.398c-0.289,0.128-0.579,0.258-0.88,0.375c-0.291,0.117-0.604,0.223-0.907,0.328
			c-0.095,0.035-0.181,0.058-0.277,0.082v0.012c-0.096,0.023-0.193,0.059-0.29,0.094c-0.096,0.035-0.204,0.058-0.301,0.093v0.012
			c-0.109,0.023-0.218,0.059-0.326,0.093v0.012c-0.109,0.023-0.23,0.058-0.338,0.105c-0.121,0.035-0.242,0.07-0.351,0.105
			c0,0,0,0-0.012,0v0.012c-0.121,0.035-0.241,0.071-0.363,0.117c-0.132,0.036-0.253,0.082-0.386,0.117h-0.012
			c-0.133,0.047-0.253,0.082-0.398,0.129c-0.134,0.046-0.277,0.082-0.41,0.128c-0.29,0.094-0.58,0.188-0.881,0.281h-0.013
			c-0.146,0.047-0.303,0.095-0.447,0.141h-0.012v0.012c-0.158,0.047-0.314,0.094-0.47,0.141c-0.122,0.036-0.23,0.07-0.351,0.105
			c-1.256,0.398-2.657,0.833-4.189,1.302c-0.29,0.082-0.567,0.164-0.87,0.257c-4.02,1.231-8.898,2.696-14.513,4.336
			c-0.579,0.164-1.157,0.34-1.76,0.516c-0.979,0.293-1.981,0.585-3.008,0.878c-0.216,0.059-0.435,0.129-0.663,0.188
			c-0.302,0.094-0.63,0.188-0.942,0.282c-0.313,0.094-0.628,0.176-0.954,0.27c-0.326,0.093-0.639,0.188-0.965,0.281
			c-0.315,0.093-0.652,0.188-0.979,0.281c-0.325,0.094-0.651,0.188-0.979,0.281c-0.338,0.095-0.675,0.2-1.001,0.293
			c-0.339,0.094-0.677,0.188-1.004,0.282c-0.012,0-0.012,0.011-0.012,0.011c-0.337,0.093-0.675,0.188-1.013,0.281
			c-0.242,0.07-0.483,0.142-0.736,0.223c-0.097,0.012-0.193,0.047-0.291,0.083c-0.349,0.094-0.688,0.188-1.038,0.281
			c-1.737,0.504-3.513,1.008-5.335,1.512c-1.039,0.304-2.102,0.598-3.177,0.902c-0.917,0.257-1.847,0.516-2.775,0.773
			c-0.7,0.2-1.4,0.399-2.113,0.598c-2.765,0.762-5.602,1.547-8.5,2.345c-0.592,0.164-1.17,0.316-1.75,0.48
			c-1.014,0.281-2.028,0.551-3.054,0.833c-0.919,0.258-1.848,0.503-2.789,0.762c-1.038,0.281-2.077,0.563-3.127,0.843
			c-34.759,9.365-76.894,19.867-115.961,27.496c-1.363,0.27-2.74,0.528-4.104,0.797c-0.677,0.129-1.353,0.258-2.028,0.387
			c-1.365,0.258-2.717,0.504-4.068,0.75c-4.045,0.75-8.053,1.465-12.001,2.133c-1.316,0.223-2.619,0.446-3.923,0.657
			c-0.652,0.105-1.305,0.211-1.944,0.316c-1.292,0.211-2.584,0.411-3.864,0.622c-1.278,0.2-2.559,0.387-3.827,0.575
			c-1.254,0.188-2.511,0.375-3.766,0.551c-1.243,0.188-2.499,0.363-3.718,0.527c-1.244,0.164-2.464,0.328-3.671,0.493
			c-1.22,0.152-2.426,0.304-3.622,0.457c-0.591,0.07-1.194,0.141-1.787,0.211c-2.366,0.282-4.707,0.54-6.99,0.773
			c-0.579,0.059-1.146,0.117-1.714,0.164c-1.136,0.106-2.246,0.211-3.368,0.317c-2.222,0.188-4.396,0.363-6.52,0.492
			c-1.593,0.118-3.162,0.199-4.696,0.271c-1.026,0.058-2.041,0.093-3.042,0.128c-1.498,0.059-2.971,0.094-4.396,0.105
			c-1.919,0.035-3.778,0.024-5.565-0.011c-0.905-0.012-1.787-0.047-2.656-0.082c-0.434-0.012-0.856-0.024-1.291-0.059
			c-0.857-0.035-1.69-0.081-2.512-0.141c-0.289-0.023-0.592-0.046-0.918-0.07c-0.071,0-0.145-0.011-0.217-0.011
			c-0.192-0.024-0.398-0.035-0.604-0.047c-0.772-0.059-1.581-0.105-2.45-0.176c-0.229-0.012-0.459-0.035-0.701-0.047
			c-0.29-0.023-0.579-0.047-0.88-0.07c-0.448-0.023-0.919-0.058-1.39-0.093c-0.253-0.024-0.507-0.035-0.761-0.059
			c-0.254-0.012-0.52-0.035-0.772-0.059c-0.531-0.035-1.063-0.07-1.606-0.117c-0.543-0.035-1.098-0.082-1.665-0.117
			c-0.29-0.024-0.579-0.036-0.869-0.059c-0.712-0.059-1.438-0.105-2.185-0.164c-0.351-0.023-0.701-0.047-1.052-0.082
			c-0.735-0.047-1.496-0.105-2.27-0.164c-0.325-0.024-0.651-0.036-0.989-0.07c-0.954-0.071-1.92-0.142-2.922-0.211
			c-2.765-0.199-5.711-0.422-8.825-0.645c-0.374-0.035-0.761-0.059-1.159-0.094c-0.772-0.047-1.558-0.105-2.366-0.164
			c-1.184-0.094-2.402-0.177-3.646-0.27c-0.507-0.047-1.014-0.083-1.509-0.118c-1.171-0.083-2.366-0.176-3.562-0.258
			c-0.434-0.035-0.881-0.069-1.315-0.093c-0.821-0.071-1.654-0.129-2.5-0.188l-2.752-0.211c-0.495-0.035-0.978-0.07-1.473-0.105
			c-0.458-0.035-0.918-0.071-1.376-0.106c-0.737-0.047-1.473-0.105-2.221-0.164c-4.287-0.317-8.741-0.645-13.377-0.985
			c-0.677-0.059-1.34-0.105-2.028-0.152c-1.026-0.083-2.065-0.164-3.115-0.234c-2.415-0.188-4.89-0.363-7.389-0.551
			c-0.193-0.023-0.386-0.035-0.58-0.047c-2.173-0.165-4.37-0.329-6.592-0.492c-0.108-0.012-0.217-0.023-0.314-0.023
			c-13.269-0.997-27.563-2.075-42.666-3.211c-0.761-0.059-1.521-0.117-2.294-0.176c-3.055-0.223-6.146-0.457-9.26-0.691
			c-1.956-0.153-3.923-0.305-5.892-0.457c-0.108,0-0.217-0.012-0.326-0.024c-2.245-0.164-4.516-0.339-6.797-0.516
			c-0.278-0.011-0.555-0.047-0.846-0.059c-3.995-0.305-8.052-0.621-12.145-0.926c-1.05-0.082-2.101-0.164-3.151-0.246
			c-0.326-0.023-0.64-0.048-0.965-0.071c-3.574-0.27-7.195-0.551-10.829-0.832c-1.594-0.118-3.176-0.234-4.77-0.364
			c-1.062-0.081-2.112-0.164-3.175-0.234c-2.149-0.176-4.298-0.34-6.459-0.504c-3.235-0.247-6.483-0.493-9.743-0.751
			c-0.29-0.011-0.579-0.046-0.87-0.058c-1.352-0.117-2.692-0.211-4.032-0.316c-0.097-0.012-0.193-0.012-0.29-0.023
			c-4.009-0.305-8.029-0.621-12.084-0.926c-0.109-0.011-0.218-0.023-0.338-0.035c-0.423-0.035-0.833-0.058-1.256-0.093
			c-2.378-0.176-4.769-0.364-7.16-0.55c-1.799-0.142-3.609-0.27-5.42-0.423c-1.123-0.083-2.245-0.164-3.368-0.258
			c-4.696-0.351-9.405-0.727-14.138-1.089l-0.121-0.012c-7.835-0.622-15.719-1.231-23.639-1.853
			c-1.087-0.082-2.161-0.164-3.248-0.257l-0.23-0.012c-3.477-0.27-6.941-0.551-10.431-0.821c-1.074-0.082-2.137-0.164-3.211-0.257
			c-2.994-0.234-5.988-0.469-8.982-0.704c-6.085-0.492-12.183-0.972-18.267-1.453c-3.852-0.306-7.702-0.609-11.542-0.915
			c-2.415-0.199-4.829-0.398-7.231-0.586c-5.759-0.457-11.494-0.914-17.216-1.371c-0.277-0.023-0.543-0.047-0.821-0.07
			c-3.585-0.293-7.183-0.574-10.756-0.868c-5.095-0.41-10.19-0.832-15.249-1.242c-2.027-0.164-4.057-0.328-6.072-0.492
			c-0.616-0.047-1.231-0.105-1.848-0.152c-4.093-0.329-8.148-0.668-12.193-0.996c-0.604-0.047-1.195-0.094-1.787-0.141
			c-2.776-0.234-5.542-0.457-8.293-0.691c-11.675-0.961-23.144-1.911-34.348-2.86c-1.352-0.105-2.692-0.223-4.044-0.34
			c-0.821-0.07-1.643-0.141-2.452-0.199c-1.099-0.105-2.185-0.188-3.283-0.282c-2.173-0.187-4.347-0.363-6.496-0.55
			c-41.759-3.552-79.017-6.892-107.774-9.728c-2.934-0.281-5.783-0.563-8.524-0.844c-6.833-0.692-13.086-1.348-18.713-1.981
			c-15.935-1.746-26.789-3.211-31.099-4.266c-23.265-5.696-62.067-20.675-85.862-36.239c-14.343-9.388-23.216-18.987-19.92-26.898
			c4.189-10.068,13.292-16.151,22.636-20.617c8.101-3.891,16.383-6.563,21.804-9.611c0.313-0.176,0.616-0.352,0.917-0.527
			c1.001-0.61,1.883-1.242,2.632-1.899c0.121-0.117,0.241-0.21,0.386-0.352c2.112-1.863,5.59-4.981,10.612-8.638
			c3.344-2.438,7.364-5.111,12.133-7.829c0.037-0.023,0.049-0.023,0.072-0.047c20.814-11.826,55.621-24.344,108.645-20.628
			c0,0,103.778,7.958,233.248,18.26c0.012,0,0.012,0,0.012,0c12.906,1.02,26.065,2.074,39.395,3.142c0.012,0,0.012,0,0.012,0
			c4.443,0.351,8.91,0.703,13.389,1.066c6.725,0.539,13.485,1.091,20.27,1.629c0,0,0,0,0.013,0
			c11.313,0.914,22.697,1.828,34.129,2.754c2.283,0.188,4.576,0.375,6.87,0.551c4.575,0.375,9.151,0.751,13.727,1.114
			c9.175,0.75,18.338,1.5,27.501,2.25c4.564,0.375,9.127,0.75,13.69,1.113c16.298,1.336,32.501,2.672,48.485,4.008h0.073
			c46.154,3.845,90.426,7.596,129.687,11.053c0.012,0,0.012,0,0.012,0c2.077,0.175,4.142,0.363,6.183,0.539
			c23.046,2.04,44.258,3.961,62.959,5.72c8.946,0.856,17.325,1.665,25.052,2.426c27.984,2.766,47.507,4.993,55.124,6.423
			c19.789,3.715,41.906,7.185,62.091,10.091c1.667,0.246,3.32,0.481,4.951,0.704c0.085,0.022,0.168,0.022,0.254,0.035
			c2.499,0.363,4.96,0.703,7.388,1.043c0.073,0.011,0.145,0.023,0.218,0.035c2.8,0.387,5.541,0.762,8.209,1.125
			c3.9,0.527,7.642,1.02,11.181,1.488c1.533,0.2,3.018,0.399,4.478,0.587c17.434,2.25,29.036,3.586,29.036,3.586
			s0.072,0.304,0.182,0.867c0.011,0.047,0.023,0.094,0.035,0.141c0.024,0.152,0.062,0.316,0.098,0.504
			c0.059,0.363,0.145,0.785,0.217,1.266c0.109,0.633,0.229,1.359,0.338,2.18c0,0,0,0.012,0.013,0.012
			c0.023,0.199,0.06,0.41,0.085,0.621c0.095,0.68,0.191,1.406,0.277,2.191c0.059,0.539,0.12,1.114,0.181,1.688
			c0.024,0.316,0.06,0.644,0.084,0.972c0.036,0.364,0.062,0.727,0.085,1.09c0.035,0.528,0.071,1.066,0.108,1.617
			c0.013,0.223,0.024,0.446,0.024,0.669c0.024,0.387,0.036,0.785,0.048,1.171c0.013,0.211,0.013,0.411,0.013,0.61
			c0.012,0.398,0.023,0.809,0.023,1.207C1820.33,799.694,1820.33,799.905,1820.343,800.116z"/>
		<path fill="#A473B6" d="M1820.343,800.116c-0.013,0.399-0.013,0.821-0.024,1.231c-0.146,8.873-2.004,18.764-8.464,24.461
			c-0.216,0.199-0.446,0.386-0.675,0.574c-0.459,0.364-0.941,0.715-1.437,1.031c0,0,0,0-0.012,0v0.012
			c-0.243,0.152-0.509,0.304-0.773,0.469c-0.254,0.141-0.519,0.292-0.797,0.434c0,0,0,0-0.013,0
			c-0.265,0.141-0.543,0.27-0.833,0.398c-0.289,0.128-0.579,0.258-0.88,0.375c-0.291,0.117-0.604,0.223-0.907,0.328
			c-0.095,0.035-0.181,0.058-0.277,0.082v0.012c-0.096,0.023-0.193,0.059-0.29,0.094c-0.096,0.035-0.204,0.058-0.301,0.093v0.012
			c-0.109,0.023-0.218,0.059-0.326,0.093v0.012c-0.109,0.023-0.23,0.058-0.338,0.105c-0.121,0.035-0.242,0.07-0.351,0.105
			c0,0,0,0-0.012,0v0.012c-0.121,0.035-0.241,0.071-0.363,0.117c-0.132,0.036-0.253,0.082-0.386,0.117h-0.012
			c-0.133,0.047-0.253,0.082-0.398,0.129c-0.134,0.046-0.277,0.082-0.41,0.128c-0.29,0.094-0.58,0.188-0.881,0.281h-0.013
			c-0.146,0.047-0.303,0.095-0.447,0.141h-0.012v0.012c-0.158,0.047-0.314,0.094-0.47,0.141c-0.122,0.036-0.23,0.07-0.351,0.105
			c-1.256,0.398-2.657,0.833-4.189,1.302c-0.29,0.082-0.567,0.164-0.87,0.257c-4.02,1.231-8.898,2.696-14.513,4.336
			c-0.579,0.164-1.157,0.34-1.76,0.516c-0.979,0.293-1.981,0.585-3.008,0.878c-0.216,0.059-0.435,0.129-0.663,0.188
			c-0.302,0.094-0.63,0.188-0.942,0.282c-0.313,0.094-0.628,0.176-0.954,0.27c-0.326,0.093-0.639,0.188-0.965,0.281
			c-0.315,0.093-0.652,0.188-0.979,0.281c-0.325,0.094-0.651,0.188-0.979,0.281c-0.338,0.095-0.675,0.2-1.001,0.293
			c-0.339,0.094-0.677,0.188-1.004,0.282c-0.012,0-0.012,0.011-0.012,0.011c-0.337,0.093-0.675,0.188-1.013,0.281
			c-0.242,0.07-0.483,0.142-0.736,0.223c-0.097,0.012-0.193,0.047-0.291,0.083c-0.349,0.094-0.688,0.188-1.038,0.281
			c-1.737,0.504-3.513,1.008-5.335,1.512c-1.039,0.304-2.102,0.598-3.177,0.902c-0.917,0.257-1.847,0.516-2.775,0.773
			c-0.7,0.2-1.4,0.399-2.113,0.598c-2.765,0.762-5.602,1.547-8.5,2.345c-0.592,0.164-1.17,0.316-1.75,0.48
			c-1.014,0.281-2.028,0.551-3.054,0.833c-0.919,0.258-1.848,0.503-2.789,0.762c-1.038,0.281-2.077,0.563-3.127,0.843
			c-34.759,9.365-76.894,19.867-115.961,27.496c-1.363,0.27-2.74,0.528-4.104,0.797c-0.677,0.129-1.353,0.258-2.028,0.387
			c-1.365,0.258-2.717,0.504-4.068,0.75c-4.045,0.75-8.053,1.465-12.001,2.133c-1.316,0.223-2.619,0.446-3.923,0.657
			c-0.652,0.105-1.305,0.211-1.944,0.316c-1.292,0.211-2.584,0.411-3.864,0.622c-1.278,0.2-2.559,0.387-3.827,0.575
			c-1.254,0.188-2.511,0.375-3.766,0.551c-1.243,0.188-2.499,0.363-3.718,0.527c-1.244,0.164-2.464,0.328-3.671,0.493
			c-1.22,0.152-2.426,0.304-3.622,0.457c-0.591,0.07-1.194,0.141-1.787,0.211c-2.366,0.282-4.707,0.54-6.99,0.773
			c-0.579,0.059-1.146,0.117-1.714,0.164c-1.136,0.106-2.246,0.211-3.368,0.317c-2.222,0.188-4.396,0.363-6.52,0.492
			c-1.593,0.118-3.162,0.199-4.696,0.271c-1.026,0.058-2.041,0.093-3.042,0.128c-1.498,0.059-2.971,0.094-4.396,0.105
			c-1.919,0.035-3.778,0.024-5.565-0.011c-0.905-0.012-1.787-0.047-2.656-0.082c-0.434-0.012-0.856-0.024-1.291-0.059
			c-0.857-0.035-1.69-0.081-2.512-0.141c-0.289-0.023-0.592-0.046-0.918-0.07c-0.071,0-0.145-0.011-0.217-0.011
			c-0.192-0.024-0.398-0.035-0.604-0.047c-0.772-0.059-1.581-0.105-2.45-0.176c-0.229-0.012-0.459-0.035-0.701-0.047
			c-0.29-0.023-0.579-0.047-0.88-0.07c-0.448-0.023-0.919-0.058-1.39-0.093c-0.253-0.024-0.507-0.035-0.761-0.059
			c-0.254-0.012-0.52-0.035-0.772-0.059c-0.531-0.035-1.063-0.07-1.606-0.117c-0.543-0.035-1.098-0.082-1.665-0.117
			c-0.29-0.024-0.579-0.036-0.869-0.059c-0.712-0.059-1.438-0.105-2.185-0.164c-0.351-0.023-0.701-0.047-1.052-0.082
			c-0.735-0.047-1.496-0.105-2.27-0.164c-0.325-0.024-0.651-0.036-0.989-0.07c-0.954-0.071-1.92-0.142-2.922-0.211
			c-2.765-0.199-5.711-0.422-8.825-0.645c-0.374-0.035-0.761-0.059-1.159-0.094c-0.772-0.047-1.558-0.105-2.366-0.164
			c-1.184-0.094-2.402-0.177-3.646-0.27c-0.507-0.047-1.014-0.083-1.509-0.118c-1.171-0.083-2.366-0.176-3.562-0.258
			c-0.434-0.035-0.881-0.069-1.315-0.093c-0.821-0.071-1.654-0.129-2.5-0.188l-2.752-0.211c-0.495-0.035-0.978-0.07-1.473-0.105
			c-0.458-0.035-0.918-0.071-1.376-0.106c-0.737-0.047-1.473-0.105-2.221-0.164c-4.287-0.317-8.741-0.645-13.377-0.985
			c-0.677-0.059-1.34-0.105-2.028-0.152c-1.026-0.083-2.065-0.164-3.115-0.234c-2.415-0.188-4.89-0.363-7.389-0.551
			c-0.193-0.023-0.386-0.035-0.58-0.047c-2.173-0.165-4.37-0.329-6.592-0.492c-0.108-0.012-0.217-0.023-0.314-0.023
			c-13.269-0.997-27.563-2.075-42.666-3.211c-0.761-0.059-1.521-0.117-2.294-0.176c-3.055-0.223-6.146-0.457-9.26-0.691
			c-1.956-0.153-3.923-0.305-5.892-0.457c-0.108,0-0.217-0.012-0.326-0.024c-2.245-0.164-4.516-0.339-6.797-0.516
			c-0.278-0.011-0.555-0.047-0.846-0.059c-3.995-0.305-8.052-0.621-12.145-0.926c-1.05-0.082-2.101-0.164-3.151-0.246
			c-0.326-0.023-0.64-0.048-0.965-0.071c-3.574-0.27-7.195-0.551-10.829-0.832c-1.594-0.118-3.176-0.234-4.77-0.364
			c-1.062-0.081-2.112-0.164-3.175-0.234c-2.149-0.176-4.298-0.34-6.459-0.504c-3.235-0.247-6.483-0.493-9.743-0.751
			c-0.29-0.011-0.579-0.046-0.87-0.058c-1.352-0.117-2.692-0.211-4.032-0.316c-0.097-0.012-0.193-0.012-0.29-0.023
			c-4.009-0.305-8.029-0.621-12.084-0.926c-0.109-0.011-0.218-0.023-0.338-0.035c-0.423-0.035-0.833-0.058-1.256-0.093
			c90.884-49.19,116.841-133.659,116.841-133.659h0.073c46.154,3.845,90.426,7.596,129.687,11.053c0.012,0,0.012,0,0.012,0
			c2.077,0.175,4.142,0.363,6.183,0.539c23.046,2.04,44.258,3.961,62.959,5.72c8.946,0.856,17.325,1.665,25.052,2.426
			c27.984,2.766,47.507,4.993,55.124,6.423c19.789,3.715,41.906,7.185,62.091,10.091c1.667,0.246,3.32,0.481,4.951,0.704
			c0.085,0.022,0.168,0.022,0.254,0.035c2.499,0.363,4.96,0.703,7.388,1.043c0.073,0.011,0.145,0.023,0.218,0.035
			c2.8,0.387,5.541,0.762,8.209,1.125c3.9,0.527,7.642,1.02,11.181,1.488c1.533,0.2,3.018,0.399,4.478,0.587
			c17.434,2.25,29.036,3.586,29.036,3.586s0.072,0.304,0.182,0.867c0.011,0.047,0.023,0.094,0.035,0.141
			c0.024,0.152,0.062,0.316,0.098,0.504c0.059,0.363,0.145,0.785,0.217,1.266c0.109,0.633,0.229,1.359,0.338,2.18
			c0,0,0,0.012,0.013,0.012c0.023,0.199,0.06,0.41,0.085,0.621c0.095,0.68,0.191,1.406,0.277,2.191
			c0.059,0.539,0.12,1.114,0.181,1.688c0.024,0.316,0.06,0.644,0.084,0.972c0.036,0.364,0.062,0.727,0.085,1.09
			c0.035,0.528,0.071,1.066,0.108,1.617c0.013,0.223,0.024,0.446,0.024,0.669c0.024,0.387,0.036,0.785,0.048,1.171
			c0.013,0.211,0.013,0.411,0.013,0.61c0.012,0.398,0.023,0.809,0.023,1.207C1820.33,799.694,1820.33,799.905,1820.343,800.116z"/>
		<path opacity="0.5" fill="#A473B6" d="M1805.524,829.426c-5.669,1.893-22.624,7.076-45.878,13.641
			c-7.768-31.562-32.789-44.739-32.789-44.739l92.633-10.048C1821.032,799.423,1822.34,823.819,1805.524,829.426z"/>
		<g>
			<path fill="#9F82BD" d="M1310.204,787.78L1310.204,787.78c-3.025-0.253-5.25-3.154-4.942-6.445l0.591-6.336
				c0.307-3.292,3.034-5.777,6.06-5.523l0,0c3.025,0.253,5.249,3.154,4.942,6.445l-0.591,6.336
				C1315.956,785.549,1313.229,788.033,1310.204,787.78z"/>
			<path fill="#9F82BD" d="M1281.83,785.401L1281.83,785.401c-3.025-0.253-5.249-3.153-4.942-6.445l0.591-6.336
				c0.307-3.291,3.033-5.777,6.059-5.523l0,0c3.025,0.254,5.249,3.154,4.942,6.446l-0.591,6.336
				C1287.582,783.17,1284.855,785.655,1281.83,785.401z"/>
			<path fill="#9F82BD" d="M1253.455,783.022L1253.455,783.022c-3.025-0.253-5.249-3.154-4.942-6.444l0.591-6.336
				c0.308-3.292,3.034-5.777,6.059-5.523l0,0c3.025,0.253,5.25,3.154,4.942,6.445l-0.591,6.336
				C1259.207,780.791,1256.48,783.276,1253.455,783.022z"/>
			<path fill="#9F82BD" d="M1225.08,780.644L1225.08,780.644c-3.025-0.253-5.249-3.153-4.942-6.444l0.591-6.337
				c0.307-3.291,3.033-5.776,6.059-5.523l0,0c3.025,0.253,5.249,3.153,4.942,6.445l-0.592,6.335
				C1230.832,778.412,1228.106,780.897,1225.08,780.644z"/>
			<path fill="#9F82BD" d="M1196.706,778.266L1196.706,778.266c-3.025-0.254-5.25-3.154-4.943-6.445l0.591-6.336
				c0.307-3.292,3.033-5.776,6.059-5.523l0,0c3.025,0.254,5.25,3.154,4.942,6.445l-0.591,6.335
				C1202.458,776.034,1199.731,778.519,1196.706,778.266z"/>
			<path fill="#9F82BD" d="M1168.331,775.887L1168.331,775.887c-3.025-0.254-5.249-3.154-4.943-6.445l0.592-6.336
				c0.307-3.291,3.034-5.776,6.059-5.522l0,0c3.026,0.254,5.25,3.153,4.942,6.445l-0.59,6.335
				C1174.083,773.655,1171.356,776.141,1168.331,775.887z"/>
			<path fill="#9F82BD" d="M1139.957,773.508L1139.957,773.508c-3.025-0.253-5.25-3.153-4.942-6.445l0.591-6.336
				c0.307-3.291,3.033-5.776,6.058-5.523l0,0c3.026,0.254,5.25,3.154,4.943,6.445l-0.591,6.336
				C1145.709,771.276,1142.982,773.762,1139.957,773.508z"/>
			<path fill="#9F82BD" d="M1111.582,771.129L1111.582,771.129c-3.026-0.253-5.249-3.154-4.942-6.445l0.59-6.336
				c0.307-3.292,3.034-5.777,6.059-5.523l0,0c3.025,0.254,5.25,3.155,4.942,6.445l-0.591,6.337
				C1117.333,768.897,1114.607,771.382,1111.582,771.129z"/>
			<path fill="#9F82BD" d="M1083.207,768.75L1083.207,768.75c-3.025-0.253-5.249-3.154-4.942-6.445l0.591-6.335
				c0.307-3.292,3.034-5.777,6.059-5.523l0,0c3.025,0.253,5.249,3.153,4.942,6.444l-0.592,6.336
				C1088.959,766.519,1086.233,769.004,1083.207,768.75z"/>
			<path fill="#9F82BD" d="M1055.399,766.419L1055.399,766.419c-3.025-0.253-5.25-3.154-4.942-6.445l0.591-6.336
				c0.308-3.291,3.034-5.776,6.059-5.523l0,0c3.025,0.254,5.249,3.155,4.942,6.445l-0.592,6.337
				C1061.15,764.188,1058.424,766.673,1055.399,766.419z"/>
			<path fill="#9F82BD" d="M1027.024,764.041L1027.024,764.041c-3.025-0.253-5.249-3.154-4.942-6.446l0.591-6.336
				c0.307-3.292,3.034-5.777,6.059-5.523l0,0c3.025,0.254,5.25,3.154,4.942,6.446l-0.591,6.336
				C1032.776,761.808,1030.05,764.294,1027.024,764.041z"/>
			<path fill="#9F82BD" d="M998.649,761.662L998.649,761.662c-3.025-0.253-5.249-3.153-4.942-6.445l0.591-6.335
				c0.307-3.292,3.034-5.777,6.059-5.523l0,0c3.025,0.253,5.249,3.154,4.942,6.445l-0.591,6.337
				C1004.402,759.43,1001.675,761.915,998.649,761.662z"/>
			<path fill="#9F82BD" d="M963.498,758.394L963.498,758.394c-3.025-0.253-5.249-3.154-4.942-6.445l0.591-6.335
				c0.307-3.292,3.034-5.777,6.059-5.523l0,0c3.025,0.253,5.25,3.154,4.942,6.446l-0.591,6.336
				C969.25,756.162,966.524,758.647,963.498,758.394z"/>
		</g>
		<g>
			<path fill="#C4A2CE" d="M1619.795,816.945L1619.795,816.945c-3.024-0.254-5.249-3.154-4.942-6.445l0.592-6.336
				c0.308-3.291,3.033-5.776,6.058-5.522l0,0c3.026,0.254,5.25,3.154,4.943,6.445l-0.591,6.337
				C1625.547,814.713,1622.82,817.199,1619.795,816.945z"/>
			<path fill="#C4A2CE" d="M1591.42,814.567L1591.42,814.567c-3.025-0.253-5.248-3.154-4.941-6.445l0.592-6.337
				c0.307-3.291,3.032-5.776,6.059-5.522l0,0c3.024,0.253,5.249,3.154,4.941,6.445l-0.591,6.336
				C1597.172,812.335,1594.446,814.82,1591.42,814.567z"/>
			<path fill="#C4A2CE" d="M1563.047,812.188L1563.047,812.188c-3.026-0.253-5.25-3.154-4.943-6.445l0.591-6.336
				c0.308-3.292,3.034-5.777,6.06-5.523l0,0c3.025,0.254,5.248,3.154,4.941,6.445l-0.591,6.337
				C1568.797,809.956,1566.071,812.441,1563.047,812.188z"/>
		</g>
		<path fill="#C4A2CE" d="M857.289,722.893l-19.344,17.718l-11.545,0.727c1.008-0.613,1.891-1.244,2.634-1.899
			c0.127-0.113,0.248-0.215,0.389-0.35c2.111-1.87,5.592-4.984,10.607-8.639c3.348-2.438,7.373-5.11,12.142-7.831
			c0.026-0.016,0.045-0.026,0.071-0.041L857.289,722.893z"/>
		<polygon fill="#C4A2CE" points="861.507,723.538 842.617,741.426 864.064,745.843 870.834,725.425 		"/>
		<polygon fill="#C4A2CE" points="872.853,726.06 867.869,745.24 883.762,740.85 884.783,727.487 		"/>
		<path fill="#C4A2CE" d="M1259.819,873.06c8.332-3.164,10.519-17.247,3.622-23.288c-6.893-6.036-16.328-12.105-26.94-12.851
			c-21.819-1.534-12.96,41.59-5.723,42.48C1235.035,879.926,1248.727,877.272,1259.819,873.06z"/>
		<path fill="#C4A2CE" d="M1724.988,789.77c0.876-1.148,82.084-27.134,135.159-15.831l-51.114,31.247l-82.18-6.859
			C1726.854,798.326,1720.61,795.514,1724.988,789.77z"/>
		<path fill="#E1CCE4" d="M1685.777,607.844c0,0-54.356,116.622-64.704,134.323c-10.35,17.7-32.969,29.002-32.969,29.002
			l-0.133,0.048l-144.029,56.806c0,0-179.646-13.763-218.742-17.944c0,0,0,0-0.007,0c-3.544-0.383-5.937-0.691-6.925-0.89
			c-11.881-2.458-17.438-7.807-15.155-12.013c2.283-4.206,278.484-36.359,309.064-39.67c0.291-0.034,0.582-0.068,0.872-0.093
			c29.765-3.407,32.532-13.24,32.532-13.24l113.955-126.792c1.459-2.341,3.848-4.105,6.606-5.438
			C1674.336,607.983,1685.777,607.844,1685.777,607.844z"/>
		<path fill="#9F82BD" d="M1666.144,611.94c-30.665,36.133-115.488,135.781-123.542,142.563
			c-8.663,7.299-256.507,45.971-317.4,55.574c0,0,0,0-0.007,0c-3.544-0.383-5.937-0.691-6.925-0.89
			c-11.881-2.458-17.438-7.807-15.155-12.013c2.283-4.206,278.484-36.359,309.064-39.67c30.58-3.31,33.404-13.333,33.404-13.333
			l113.955-126.792C1660.996,615.038,1663.385,613.274,1666.144,611.94z"/>
		<path fill="#E1CCE4" d="M1685.777,607.844c0,0-54.356,116.622-64.704,134.323c-10.35,17.7-32.969,29.002-32.969,29.002
			l-0.133,0.048c-31.288-0.735-57.655-7.732-74.922-13.806c29.765-3.407,32.532-13.24,32.532-13.24l113.955-126.792
			c1.459-2.341,3.848-4.105,6.606-5.438C1674.336,607.983,1685.777,607.844,1685.777,607.844z"/>
		<path fill="#E1CCE4" d="M1241.439,826.737l-5.468,58.827c0,0-23.156,8.09-59.362,6.214c-22.165-1.151-36.931-5.866-45.049-9.35
			c-5.146-2.211-7.621-3.924-7.621-3.924l5.731-61.668c2.042-1.68,4.884-2.909,8.335-3.766
			c28.622-7.125,98.996,11.292,98.996,11.292L1241.439,826.737z"/>
		<path fill="#A473B6" d="M1138.006,813.07l-6.446,69.358c-5.146-2.211-7.621-3.924-7.621-3.924l5.731-61.668
			C1131.712,815.157,1134.555,813.928,1138.006,813.07z"/>
	</g>
	<g>
		<path fill="#C78FC5" d="M782.346,1885.202l425.542-110.271c9.01-2.335,14.991-9.317,13.293-15.514L982.583,888.602
			c-1.698-6.197-10.458-9.358-19.468-7.024L537.573,991.849c-9.01,2.334-14.992,9.315-13.294,15.513l238.599,870.816
			C764.576,1884.375,773.336,1887.536,782.346,1885.202z"/>
		<path fill="#BDB6D8" d="M782.346,1885.202l34.987-9.067L572.561,982.782l-34.987,9.066c-9.01,2.334-14.992,9.315-13.294,15.513
			l238.599,870.816C764.576,1884.375,773.336,1887.536,782.346,1885.202z"/>
		<polygon opacity="0.5" fill="#C2A7D1" points="906.913,1275.422 835.288,1014.007 780.684,1028.156 852.309,1289.57 		"/>
		<polygon opacity="0.5" fill="#C2A7D1" points="1058.359,1354.706 956.41,982.621 901.807,996.77 1003.756,1368.854 		"/>
		<polygon fill="#C2A7D1" points="938.889,1186.412 887.915,1000.37 875.743,1003.523 926.717,1189.566 		"/>
		<polygon fill="#C2A7D1" points="818.565,1217.591 767.59,1031.549 755.418,1034.704 806.393,1220.745 		"/>
		<path fill="#BDB6D8" d="M671.04,1051.859l1.143,3.05c0.039,0.105,0.092,0.208,0.158,0.3l15.122,21.218
			c0.184,0.259,0.267,0.575,0.232,0.891l-1.116,37.465c-0.112,0.987-4.531-3.239-5.374-3.804
			c-9.177-6.135-33.737-27.146-44.001-34.688c-1.64-1.206-3.973,0.08-3.747,2.064c0.108,0.959,0.501,1.866,1.131,2.61l35.408,41.912
			l-1.874,7.901c-0.272,1.148,0.472,2.302,1.655,2.564l6.309,1.401c1.162,0.257,2.328-0.437,2.627-1.549l4.562,5.4
			c0.217,0.256,0.325,0.584,0.303,0.916l-2.264,34.014c-0.201,3.013,0.68,5.997,2.491,8.449c0.735,0.992,1.528,2.063,2.266,3.055
			c1.528,2.051,4.512,2.453,6.563,0.883l1.028-0.79c3.359-2.574,5.358-6.469,5.448-10.62l0.596-27.156
			c0.011-0.537,0.359-1.013,0.878-1.202l10.599-3.865l-0.398,1.678c-0.272,1.147,0.473,2.301,1.655,2.564l6.309,1.401
			c1.183,0.263,2.373-0.463,2.645-1.61l2.013-8.49l16.537-6.029c1.335-0.488,2.493-1.346,3.326-2.469
			c1.062-1.434,2.256-2.967,1.966-3.265c-0.941-0.961-30.532-3.054-41.965-3.298c-0.65-0.014-0.554-5.344-0.54-5.975l-1.561-36.213
			c0.009-0.476,0.284-0.909,0.716-1.134l9.3-4.812c1.042-0.538,1.863-1.404,2.329-2.457l0.018-0.04
			c0.331-0.746-0.107-1.602-0.919-1.793l-14.758-3.5c-0.428-0.102-0.779-0.4-0.938-0.8l-1.388-3.473
			c-0.432-1.082-1.995-1.124-2.492-0.066l-0.539,1.146l-19.402-13.309C672.013,1049.595,670.588,1050.65,671.04,1051.859z"/>
	</g>
	<g>
		<path fill="#F5CCE3" d="M1088.194,1987.301H528.651v-751.688h560.557c21.19,0,38.368,16.676,38.368,37.247v676.209
			C1127.576,1970.184,1109.943,1987.301,1088.194,1987.301z"/>
		<g>
			<path fill="#FFFFFF" d="M616.403,1330.709v23.545H605.06v-63.369h24.972c3.795,0,7.166,0.5,10.11,1.501
				c2.943,1.002,5.432,2.402,7.465,4.199c2.032,1.8,3.579,3.934,4.64,6.399c1.061,2.468,1.592,5.15,1.592,8.053
				c0,3.074-0.531,5.83-1.592,8.268c-1.061,2.439-2.608,4.499-4.64,6.181c-2.033,1.683-4.521,2.974-7.465,3.873
				c-2.944,0.901-6.314,1.351-10.11,1.351H616.403z M616.403,1321.873h13.628c2.182,0,4.058-0.26,5.627-0.784
				c1.569-0.521,2.861-1.261,3.877-2.219c1.016-0.958,1.755-2.097,2.219-3.417c0.463-1.319,0.695-2.763,0.695-4.33
				c0-1.479-0.232-2.901-0.695-4.267c-0.464-1.362-1.203-2.573-2.219-3.633c-1.016-1.06-2.309-1.901-3.877-2.524
				c-1.569-0.624-3.446-0.938-5.627-0.938h-13.628V1321.873z"/>
			<path fill="#FFFFFF" d="M692.306,1339.5H667.02l-5.29,14.754h-11.792l24.658-63.369h10.178l24.702,63.369H697.64L692.306,1339.5z
				 M670.203,1330.621h18.918l-9.459-26.288L670.203,1330.621z"/>
			<path fill="#FFFFFF" d="M750.991,1337.933c0-1.276-0.195-2.414-0.583-3.416c-0.389-1.001-1.099-1.922-2.13-2.763
				c-1.03-0.842-2.451-1.648-4.259-2.416c-1.81-0.77-4.132-1.575-6.971-2.415c-3.109-0.9-5.978-1.931-8.608-3.092
				c-2.631-1.16-4.895-2.509-6.792-4.048c-1.899-1.537-3.385-3.307-4.461-5.309c-1.076-2.003-1.614-4.294-1.614-6.877
				c0-2.553,0.561-4.904,1.681-7.051s2.697-4.004,4.73-5.571c2.032-1.567,4.468-2.785,7.307-3.655
				c2.839-0.871,5.978-1.307,9.415-1.307c3.677,0,6.978,0.516,9.908,1.546c2.929,1.03,5.402,2.431,7.42,4.199
				c2.018,1.771,3.563,3.823,4.64,6.157c1.076,2.338,1.613,4.826,1.613,7.467h-11.297c0-1.539-0.247-2.953-0.74-4.244
				c-0.493-1.291-1.248-2.408-2.264-3.352c-1.017-0.942-2.303-1.676-3.856-2.197c-1.555-0.523-3.392-0.784-5.514-0.784
				c-2.003,0-3.737,0.218-5.201,0.653c-1.464,0.434-2.684,1.045-3.654,1.827c-0.971,0.784-1.688,1.713-2.151,2.786
				c-0.464,1.073-0.695,2.234-0.695,3.482c0,2.349,1.143,4.309,3.43,5.875c2.286,1.566,5.775,3.018,10.469,4.352
				c3.676,1.046,6.859,2.206,9.549,3.482c2.69,1.278,4.924,2.721,6.702,4.331c1.778,1.609,3.101,3.424,3.968,5.44
				s1.3,4.286,1.3,6.813c0,2.668-0.545,5.069-1.636,7.201c-1.091,2.133-2.645,3.947-4.663,5.441s-4.461,2.641-7.331,3.438
				c-2.869,0.798-6.067,1.197-9.594,1.197c-3.138,0-6.231-0.413-9.28-1.24c-3.05-0.826-5.784-2.073-8.205-3.742
				c-2.421-1.67-4.372-3.751-5.851-6.247c-1.479-2.494-2.219-5.426-2.219-8.792h11.343c0,2.002,0.366,3.722,1.098,5.157
				c0.732,1.438,1.733,2.611,3.004,3.525c1.27,0.916,2.772,1.583,4.506,2.004c1.733,0.419,3.601,0.631,5.604,0.631
				c3.945,0,6.911-0.776,8.899-2.329C749.997,1342.54,750.991,1340.486,750.991,1337.933z"/>
			<path fill="#FFFFFF" d="M806.404,1337.933c0-1.276-0.195-2.414-0.584-3.416c-0.388-1.001-1.098-1.922-2.129-2.763
				c-1.031-0.842-2.451-1.648-4.26-2.416c-1.808-0.77-4.132-1.575-6.971-2.415c-3.109-0.9-5.978-1.931-8.608-3.092
				c-2.631-1.16-4.895-2.509-6.792-4.048c-1.898-1.537-3.385-3.307-4.461-5.309c-1.077-2.003-1.614-4.294-1.614-6.877
				c0-2.553,0.561-4.904,1.681-7.051c1.121-2.146,2.697-4.004,4.73-5.571c2.032-1.567,4.467-2.785,7.308-3.655
				c2.839-0.871,5.977-1.307,9.415-1.307c3.676,0,6.978,0.516,9.908,1.546c2.929,1.03,5.403,2.431,7.42,4.199
				c2.018,1.771,3.564,3.823,4.64,6.157c1.076,2.338,1.613,4.826,1.613,7.467h-11.296c0-1.539-0.247-2.953-0.74-4.244
				c-0.493-1.291-1.249-2.408-2.264-3.352c-1.018-0.942-2.303-1.676-3.855-2.197c-1.556-0.523-3.393-0.784-5.515-0.784
				c-2.002,0-3.736,0.218-5.2,0.653c-1.465,0.434-2.683,1.045-3.655,1.827c-0.97,0.784-1.688,1.713-2.151,2.786
				c-0.464,1.073-0.695,2.234-0.695,3.482c0,2.349,1.143,4.309,3.43,5.875c2.286,1.566,5.775,3.018,10.467,4.352
				c3.677,1.046,6.861,2.206,9.55,3.482c2.69,1.278,4.924,2.721,6.703,4.331c1.778,1.609,3.1,3.424,3.968,5.44
				c0.867,2.017,1.3,4.286,1.3,6.813c0,2.668-0.545,5.069-1.636,7.201c-1.092,2.133-2.645,3.947-4.663,5.441
				s-4.461,2.641-7.331,3.438c-2.87,0.798-6.068,1.197-9.594,1.197c-3.139,0-6.231-0.413-9.28-1.24
				c-3.049-0.826-5.784-2.073-8.205-3.742c-2.42-1.67-4.371-3.751-5.851-6.247c-1.48-2.494-2.219-5.426-2.219-8.792h11.343
				c0,2.002,0.365,3.722,1.099,5.157c0.731,1.438,1.732,2.611,3.003,3.525c1.27,0.916,2.771,1.583,4.506,2.004
				c1.733,0.419,3.601,0.631,5.604,0.631c3.945,0,6.911-0.776,8.899-2.329C805.41,1342.54,806.404,1340.486,806.404,1337.933z"/>
			<path fill="#FFFFFF" d="M839.043,1330.709v23.545h-11.344v-63.369h24.973c3.795,0,7.165,0.5,10.11,1.501
				c2.943,1.002,5.431,2.402,7.464,4.199c2.033,1.8,3.579,3.934,4.641,6.399c1.061,2.468,1.591,5.15,1.591,8.053
				c0,3.074-0.53,5.83-1.591,8.268c-1.062,2.439-2.608,4.499-4.641,6.181c-2.033,1.683-4.521,2.974-7.464,3.873
				c-2.945,0.901-6.315,1.351-10.11,1.351H839.043z M839.043,1321.873h13.629c2.181,0,4.057-0.26,5.627-0.784
				c1.568-0.521,2.861-1.261,3.877-2.219c1.016-0.958,1.756-2.097,2.219-3.417c0.463-1.319,0.695-2.763,0.695-4.33
				c0-1.479-0.232-2.901-0.695-4.267c-0.463-1.362-1.204-2.573-2.219-3.633c-1.017-1.06-2.309-1.901-3.877-2.524
				c-1.57-0.624-3.446-0.938-5.627-0.938h-13.629V1321.873z"/>
			<path fill="#FFFFFF" d="M938.481,1324.225c0,4.815-0.65,9.132-1.95,12.948c-1.301,3.814-3.132,7.05-5.493,9.705
				c-2.361,2.654-5.201,4.692-8.518,6.113c-3.317,1.423-6.993,2.134-11.029,2.134c-4.005,0-7.666-0.711-10.983-2.134
				c-3.318-1.421-6.18-3.459-8.586-6.113c-2.406-2.655-4.274-5.891-5.604-9.705c-1.33-3.816-1.995-8.133-1.995-12.948v-3.223
				c0-4.815,0.665-9.139,1.995-12.97c1.33-3.829,3.184-7.079,5.56-9.749c2.375-2.669,5.223-4.715,8.541-6.137
				c3.317-1.421,6.978-2.133,10.984-2.133c4.035,0,7.718,0.712,11.051,2.133c3.332,1.422,6.188,3.468,8.563,6.137
				c2.377,2.67,4.214,5.92,5.516,9.749c1.3,3.831,1.95,8.154,1.95,12.97V1324.225z M927.138,1320.916
				c0-3.541-0.351-6.666-1.054-9.38c-0.702-2.713-1.726-4.982-3.07-6.811c-1.345-1.829-2.997-3.214-4.955-4.156
				c-1.958-0.944-4.177-1.415-6.657-1.415c-2.421,0-4.603,0.471-6.546,1.415c-1.943,0.942-3.594,2.327-4.954,4.156
				c-1.36,1.828-2.407,4.098-3.139,6.811c-0.732,2.714-1.098,5.839-1.098,9.38v3.309c0,3.538,0.366,6.674,1.098,9.399
				c0.732,2.729,1.786,5.014,3.161,6.855c1.374,1.844,3.041,3.236,4.999,4.178c1.957,0.943,4.147,1.414,6.568,1.414
				c5.021,0,8.884-1.856,11.589-5.571c2.705-3.713,4.057-9.139,4.057-16.275V1320.916z"/>
			<path fill="#FFFFFF" d="M973.764,1329.838h-12.643v24.416h-11.342v-63.369h22.954c3.736,0,7.068,0.412,9.998,1.24
				c2.929,0.826,5.403,2.046,7.42,3.655c2.017,1.612,3.549,3.605,4.596,5.985c1.046,2.379,1.569,5.136,1.569,8.269
				c0,4.236-1.054,7.785-3.161,10.642c-2.107,2.859-5.043,5.056-8.81,6.595l14.661,26.418v0.565h-12.151L973.764,1329.838z
				 M961.121,1321.002h11.657c2.032,0,3.811-0.26,5.335-0.783c1.523-0.522,2.794-1.247,3.81-2.176
				c1.016-0.928,1.779-2.031,2.288-3.309c0.507-1.275,0.761-2.682,0.761-4.221c0-1.625-0.239-3.098-0.716-4.417
				c-0.479-1.321-1.21-2.453-2.197-3.396c-0.987-0.943-2.25-1.669-3.789-2.177c-1.539-0.507-3.385-0.763-5.537-0.763h-11.612
				V1321.002z"/>
			<path fill="#FFFFFF" d="M1051.997,1299.762h-20.354v54.492h-11.253v-54.492h-20.174v-8.877h51.781V1299.762z"/>
		</g>
		<g>
			<path fill="#F6EEF0" d="M873.532,1906.638h-90.006c-2.899,0-5.25-2.283-5.25-5.097l0,0c0-2.815,2.35-5.096,5.25-5.096h90.006
				c2.899,0,5.25,2.28,5.25,5.096l0,0C878.781,1904.354,876.431,1906.638,873.532,1906.638z"/>
			<path fill="#F6EEF0" d="M937.666,1930.929H719.392c-2.899,0-5.25-2.281-5.25-5.096l0,0c0-2.815,2.35-5.097,5.25-5.097h218.274
				c2.898,0,5.249,2.281,5.249,5.097l0,0C942.915,1928.647,940.564,1930.929,937.666,1930.929z"/>
		</g>
		<g>
			<path fill="#F8F4F4" d="M828.529,1832.381c-57.026,0-110.638-21.558-150.962-60.704c-40.323-39.144-62.53-91.192-62.53-146.552
				c0-55.36,22.207-107.406,62.53-146.555c40.324-39.145,93.936-60.703,150.962-60.703s110.638,21.559,150.961,60.703
				c40.323,39.148,62.53,91.194,62.53,146.555c0,55.359-22.207,107.408-62.53,146.552
				C939.167,1810.823,885.555,1832.381,828.529,1832.381z M828.529,1420.146c-56.398,0-109.421,21.321-149.302,60.038
				c-39.879,38.715-61.842,90.188-61.842,144.94c0,54.751,21.963,106.226,61.842,144.941c39.88,38.715,92.903,60.036,149.302,60.036
				c56.399,0,109.421-21.321,149.302-60.036c39.879-38.716,61.842-90.19,61.842-144.941c0-54.752-21.963-106.226-61.842-144.94
				C937.95,1441.468,884.928,1420.146,828.529,1420.146z"/>
		</g>
		<path fill="#F4B9D9" d="M999.709,1625.13c0,10.211-0.947,20.218-2.766,29.934c-4.373,23.311-13.748,44.921-27.018,63.754
			c-30.825,43.769-82.656,72.493-141.396,72.493c-69.874,0-129.971-40.636-156.569-98.903c-3.509-7.676-6.438-15.658-8.718-23.898
			c-3.852-13.827-5.9-28.375-5.9-43.379c0-12.135,1.34-23.975,3.885-35.364c0.026-0.133,0.06-0.256,0.085-0.389
			c7.113-31.501,23.431-59.643,46.076-81.661c6.421-6.249,13.354-12.003,20.741-17.2c3.518-2.479,7.147-4.832,10.861-7.045
			c26.044-15.561,56.707-24.529,89.539-24.529c4.355,0,8.667,0.156,12.937,0.473c6.028,0.43,11.962,1.167,17.794,2.196
			c24.558,4.319,47.28,13.728,66.987,27.056h0.009c12.279,8.299,23.379,18.114,33.02,29.18c5.063,5.813,9.726,11.963,13.936,18.42
			c2.621,4.021,5.072,8.149,7.343,12.394c5.456,10.195,9.845,21.014,13.048,32.313
			C997.583,1595.029,999.709,1609.843,999.709,1625.13z"/>
		<g>
			<path fill="#F487B7" d="M770.372,1550.738c-6.832,10.504,2.852,28.74-17.642,23.768c-20.493-4.976-33.02-7.188-34.155,3.861
				c-1.145,11.06,15.37,11.06,15.37,22.664c0,11.605-7.403,15.444-18.785,9.931c-11.391-5.511-14.662-13.526-27.897-8.555
				c-13.235,4.974-20.92,1.659-23.909-8.29c-0.53-1.747-1.264-3.166-2.126-4.352c0.026-0.133,0.06-0.256,0.085-0.389
				c7.113-31.501,23.431-59.643,46.076-81.661c6.421-6.249,13.354-12.003,20.741-17.2c3.518-2.479,7.147-4.832,10.861-7.045
				c5.337,0.189,11.715,2.154,17.155,8.686c11.954,14.374,19.921,7.188,17.078,23.767c-2.852,16.579,1.708,18.793,11.382,18.238
				c9.675-0.556,21.065-0.556,22.201,6.631S777.203,1540.236,770.372,1550.738z"/>
			<path fill="#F487B7" d="M841.246,1650.214c0,0-15.085,4.696-19.07-5.527c-3.985-10.223,0.568-12.435-12.809-15.475
				c-13.377-3.038-14.515-11.882-23.054-10.775c-8.539,1.105-4.27,4.421-14.232,11.605c-9.962,7.184-19.07,3.868-18.785,17.132
				c0.284,13.263,15.085,15.336,18.074,24.039c2.988,8.703-2.135,12.434,4.269,19.065c6.405,6.632,18.359,3.73,12.809,12.85
				c-5.55,9.118-14.089,16.164-9.82,30.256c4.27,14.093,1.281,14.922,8.539,24.87c7.258,9.946,21.348,13.262,23.483,6.631
				c2.134-6.631-9.82-15.336-5.978-21.967c3.843-6.632,10.247-2.073,12.808-12.02c2.563-9.949,12.951-9.949,13.806-16.856
				c0.853-6.907-12.524-17.409-7.401-21.828c5.123-4.422,15.37,8.013,23.34-3.041c7.969-11.052,2.561-19.894,10.815-30.394
				C866.293,1648.278,846.938,1644.133,841.246,1650.214z"/>
			<path fill="#F487B7" d="M999.709,1625.13c0,10.211-0.947,20.218-2.766,29.934c-4.373,23.311-13.748,44.921-27.018,63.754
				c-4.525,1.444-9.145,1.409-13.688-0.356c-21.348-8.289-5.55-30.671,2.988-41.861c8.54-11.191-13.235-6.217-29.032-16.579
				c-15.796-10.361,1.708-38.133-14.516-33.573c-16.224,4.56-35.863,10.362-45.256-4.974c-9.393-15.335,8.539-17.821,0.427-30.671
				c-8.112-12.849,4.696-20.309,20.92-21.553c16.224-1.244,14.089-12.435,34.156-14.092c20.066-1.658,19.64,23.209,41.841,21.552
				c22.201-1.657,21.202,3.316,21.202,3.316c1.597-0.042,3.15,0.282,4.637,0.945C997.583,1595.029,999.709,1609.843,999.709,1625.13
				z"/>
			<path fill="#F487B7" d="M980.557,1548.659c-18.461,8.719-25.873-14.997-41.652-7.867c-15.909,7.187-13.125-6.631-25.643-15.477
				c-12.527-8.837-37.571,7.187-36.436-6.632c1.135-13.811,19.921-9.947,23.909-20.998c3.988-11.05,22.201-8.288,22.201-8.288
				c1.033-0.383,2.143-0.631,3.313-0.731c0,0,0-0.007,0.009,0c12.279,8.299,23.379,18.114,33.02,29.18
				c5.063,5.813,9.726,11.963,13.936,18.42C975.834,1540.286,978.285,1544.415,980.557,1548.659z"/>
			<path fill="#F487B7" d="M825.022,1501c0,0,9.677-13.555-5.693-17.553c-15.37-3.999-15.085,1.235-27.04,0
				c-11.955-1.234-16.651,7.744-7.685,17.553c8.966,9.811,16.224,28.634,24.336,18.601
				C817.052,1509.566,815.486,1501.969,825.022,1501z"/>
		</g>
	</g>
</g>
</svg>
